<svg width="20" height="20" viewBox="0 0 20 20" fill="none" xmlns="http://www.w3.org/2000/svg">
<path d="M17.0775 6.24508L8.74421 14.5784C8.66712 14.6557 8.57554 14.717 8.47473 14.7588C8.37392 14.8006 8.26585 14.8221 8.15671 14.8221C8.04757 14.8221 7.9395 14.8006 7.83869 14.7588C7.73788 14.717 7.64631 14.6557 7.56921 14.5784L5.21088 12.2201C5.13373 12.1429 5.07253 12.0513 5.03077 11.9505C4.98902 11.8497 4.96753 11.7417 4.96753 11.6326C4.96753 11.5235 4.98902 11.4154 5.03077 11.3146C5.07253 11.2138 5.13373 11.1222 5.21088 11.0451C5.28803 10.9679 5.37962 10.9067 5.48042 10.865C5.58123 10.8232 5.68927 10.8017 5.79838 10.8017C5.90749 10.8017 6.01553 10.8232 6.11633 10.865C6.21713 10.9067 6.30873 10.9679 6.38588 11.0451L8.15254 12.8117L15.8942 5.07008C15.9713 4.99283 16.0629 4.93154 16.1637 4.88972C16.2645 4.8479 16.3726 4.82638 16.4817 4.82638C16.5909 4.82638 16.6989 4.8479 16.7997 4.88972C16.9005 4.93154 16.9921 4.99283 17.0692 5.07008C17.4025 5.39508 17.4025 5.92008 17.0775 6.24508ZM9.33588 18.0034C5.41088 18.0034 2.26921 14.5951 2.71088 10.5867C3.03588 7.65341 5.31088 5.24508 8.21921 4.76175C9.72754 4.51175 11.1609 4.77841 12.3775 5.41175C12.5742 5.51452 12.8037 5.53494 13.0155 5.46852C13.2272 5.4021 13.4039 5.25428 13.5067 5.05758C13.6095 4.86088 13.6299 4.63141 13.5635 4.41965C13.4971 4.20789 13.3492 4.03118 13.1525 3.92841C11.9275 3.30341 10.5442 2.96175 9.06921 3.00341C4.78588 3.13675 1.22754 6.62008 1.01088 10.8951C0.76921 15.7034 4.58588 19.6701 9.33588 19.6701C10.3359 19.6701 11.2859 19.4951 12.1775 19.1701C12.7442 18.9617 12.9025 18.2284 12.4692 17.7951C12.3586 17.683 12.218 17.6052 12.0642 17.5712C11.9104 17.5372 11.7501 17.5484 11.6025 17.6034C10.8942 17.8617 10.1275 18.0034 9.33588 18.0034ZM15.1692 13.8367H13.5025C13.0442 13.8367 12.6692 14.2117 12.6692 14.6701C12.6692 15.1284 13.0442 15.5034 13.5025 15.5034H15.1692V17.1701C15.1692 17.6284 15.5442 18.0034 16.0025 18.0034C16.4609 18.0034 16.8359 17.6284 16.8359 17.1701V15.5034H18.5025C18.9609 15.5034 19.3359 15.1284 19.3359 14.6701C19.3359 14.2117 18.9609 13.8367 18.5025 13.8367H16.8359V12.1701C16.8359 11.7117 16.4609 11.3367 16.0025 11.3367C15.5442 11.3367 15.1692 11.7117 15.1692 12.1701V13.8367Z" fill="#9CA3AF"/>
</svg>
