<svg width="20" height="20" viewBox="0 0 20 20" fill="none" xmlns="http://www.w3.org/2000/svg">
<path d="M17.0775 5.24508L8.74421 13.5784C8.66712 13.6557 8.57554 13.717 8.47473 13.7588C8.37392 13.8006 8.26585 13.8221 8.15671 13.8221C8.04757 13.8221 7.9395 13.8006 7.83869 13.7588C7.73788 13.717 7.64631 13.6557 7.56921 13.5784L5.21088 11.2201C5.13373 11.1429 5.07253 11.0513 5.03077 10.9505C4.98902 10.8497 4.96753 10.7417 4.96753 10.6326C4.96753 10.5235 4.98902 10.4154 5.03077 10.3146C5.07253 10.2138 5.13373 10.1222 5.21088 10.0451C5.28803 9.96793 5.37962 9.90673 5.48042 9.86497C5.58123 9.82322 5.68927 9.80173 5.79838 9.80173C5.90749 9.80173 6.01553 9.82322 6.11633 9.86497C6.21713 9.90673 6.30873 9.96793 6.38588 10.0451L8.15254 11.8117L15.8942 4.07008C15.9713 3.99283 16.0629 3.93154 16.1637 3.88972C16.2645 3.8479 16.3726 3.82638 16.4817 3.82638C16.5909 3.82638 16.6989 3.8479 16.7997 3.88972C16.9005 3.93154 16.9921 3.99283 17.0692 4.07008C17.4025 4.39508 17.4025 4.92008 17.0775 5.24508ZM9.33588 17.0034C5.41088 17.0034 2.26921 13.5951 2.71088 9.58675C3.03588 6.65341 5.31088 4.24508 8.21921 3.76175C9.72754 3.51175 11.1609 3.77841 12.3775 4.41175C12.5742 4.51452 12.8037 4.53494 13.0155 4.46852C13.2272 4.4021 13.4039 4.25428 13.5067 4.05758C13.6095 3.86088 13.6299 3.63141 13.5635 3.41965C13.4971 3.20789 13.3492 3.03118 13.1525 2.92841C11.9275 2.30341 10.5442 1.96175 9.06921 2.00341C4.78588 2.13675 1.22754 5.62008 1.01088 9.89508C0.76921 14.7034 4.58588 18.6701 9.33588 18.6701C10.3359 18.6701 11.2859 18.4951 12.1775 18.1701C12.7442 17.9617 12.9025 17.2284 12.4692 16.7951C12.3586 16.683 12.218 16.6052 12.0642 16.5712C11.9104 16.5372 11.7501 16.5484 11.6025 16.6034C10.8942 16.8617 10.1275 17.0034 9.33588 17.0034ZM15.1692 12.8367H13.5025C13.0442 12.8367 12.6692 13.2117 12.6692 13.6701C12.6692 14.1284 13.0442 14.5034 13.5025 14.5034H15.1692V16.1701C15.1692 16.6284 15.5442 17.0034 16.0025 17.0034C16.4609 17.0034 16.8359 16.6284 16.8359 16.1701V14.5034H18.5025C18.9609 14.5034 19.3359 14.1284 19.3359 13.6701C19.3359 13.2117 18.9609 12.8367 18.5025 12.8367H16.8359V11.1701C16.8359 10.7117 16.4609 10.3367 16.0025 10.3367C15.5442 10.3367 15.1692 10.7117 15.1692 11.1701V12.8367Z" fill="url(#paint0_linear_196_456)"/>
<defs>
<linearGradient id="paint0_linear_196_456" x1="1" y1="10.335" x2="19.3359" y2="10.335" gradientUnits="userSpaceOnUse">
<stop stop-color="#A855F7"/>
<stop offset="0.754808" stop-color="#3B82F6"/>
</linearGradient>
</defs>
</svg>
