<svg width="20" height="20" viewBox="0 0 20 20" fill="none" xmlns="http://www.w3.org/2000/svg">
<path d="M10.4951 19.3815L10.4851 19.3832L10.426 19.4124L10.4093 19.4157L10.3976 19.4124L10.3385 19.3824C10.3296 19.3801 10.3229 19.3818 10.3185 19.3874L10.3151 19.3957L10.301 19.7524L10.3051 19.769L10.3135 19.7799L10.4001 19.8415L10.4126 19.8449L10.4226 19.8415L10.5093 19.7799L10.5193 19.7665L10.5226 19.7524L10.5085 19.3965C10.5063 19.3876 10.5018 19.3826 10.4951 19.3815ZM10.7151 19.2874L10.7035 19.289L10.5501 19.3665L10.5418 19.3749L10.5393 19.384L10.5543 19.7424L10.5585 19.7524L10.5651 19.759L10.7326 19.8357C10.7432 19.8385 10.7513 19.8363 10.7568 19.829L10.7601 19.8174L10.7318 19.3057C10.729 19.2951 10.7235 19.289 10.7151 19.2874ZM10.1193 19.289C10.1156 19.2868 10.1112 19.2861 10.1071 19.287C10.1029 19.2879 10.0992 19.2905 10.0968 19.294L10.0918 19.3057L10.0635 19.8174C10.064 19.8274 10.0688 19.834 10.0776 19.8374L10.0901 19.8357L10.2576 19.7582L10.266 19.7515L10.2685 19.7424L10.2835 19.384L10.281 19.374L10.2726 19.3657L10.1193 19.289Z" fill="#9CA3AF"/>
<path d="M16.6669 2.49984C17.1089 2.49984 17.5329 2.67543 17.8454 2.98799C18.158 3.30055 18.3336 3.72448 18.3336 4.1665V15.8332C18.3336 16.2752 18.158 16.6991 17.8454 17.0117C17.5329 17.3242 17.1089 17.4998 16.6669 17.4998H3.33359C2.89156 17.4998 2.46764 17.3242 2.15508 17.0117C1.84252 16.6991 1.66692 16.2752 1.66692 15.8332V10.8332C1.66692 10.6122 1.75472 10.4002 1.911 10.2439C2.06728 10.0876 2.27924 9.99984 2.50025 9.99984C2.72127 9.99984 2.93323 10.0876 3.08951 10.2439C3.24579 10.4002 3.33359 10.6122 3.33359 10.8332V12.5832L7.49609 8.4215C7.59282 8.32475 7.70766 8.24799 7.83406 8.19563C7.96046 8.14326 8.09594 8.11631 8.23275 8.11631C8.36957 8.11631 8.50505 8.14326 8.63145 8.19563C8.75784 8.24799 8.87269 8.32475 8.96942 8.4215L12.3569 11.8098L13.3886 10.7782C13.4853 10.6814 13.6002 10.6047 13.7266 10.5523C13.853 10.4999 13.9884 10.473 14.1253 10.473C14.2621 10.473 14.3975 10.4999 14.5239 10.5523C14.6503 10.6047 14.7652 10.6814 14.8619 10.7782L16.6669 12.584V4.1665H10.0003C9.77924 4.1665 9.56728 4.07871 9.411 3.92243C9.25472 3.76615 9.16692 3.55418 9.16692 3.33317C9.16692 3.11216 9.25472 2.9002 9.411 2.74391C9.56728 2.58763 9.77924 2.49984 10.0003 2.49984H16.6669ZM4.16692 1.6665C4.32282 1.6665 4.47559 1.71024 4.60788 1.79273C4.74017 1.87522 4.84666 1.99317 4.91525 2.13317L4.95525 2.23067L5.06359 2.54567C5.17792 2.88082 5.36215 3.18786 5.60408 3.44646C5.84601 3.70505 6.14012 3.9093 6.46692 4.04567L6.62109 4.104L6.93609 4.2115C7.09204 4.26482 7.22867 4.36317 7.32872 4.49413C7.42878 4.6251 7.48775 4.78279 7.49818 4.94727C7.50862 5.11174 7.47005 5.27562 7.38735 5.41818C7.30466 5.56074 7.18155 5.67558 7.03359 5.74817L6.93609 5.78817L6.62109 5.8965C6.28593 6.01084 5.9789 6.19507 5.7203 6.437C5.46171 6.67893 5.25746 6.97303 5.12109 7.29984L5.06275 7.454L4.95525 7.769C4.90194 7.92495 4.80359 8.06159 4.67262 8.16164C4.54166 8.26169 4.38397 8.32067 4.21949 8.3311C4.05501 8.34154 3.89114 8.30297 3.74858 8.22027C3.60602 8.13757 3.49118 8.01446 3.41859 7.8665L3.37859 7.769L3.27025 7.454C3.15592 7.11885 2.97169 6.81181 2.72976 6.55322C2.48783 6.29462 2.19373 6.09038 1.86692 5.954L1.71275 5.89567L1.39775 5.78817C1.24181 5.73486 1.10517 5.6365 1.00512 5.50554C0.905065 5.37458 0.846093 5.21689 0.835657 5.05241C0.825221 4.88793 0.86379 4.72405 0.946487 4.58149C1.02918 4.43893 1.1523 4.3241 1.30025 4.2515L1.39775 4.2115L1.71275 4.10317C2.04791 3.98884 2.35495 3.8046 2.61354 3.56268C2.87213 3.32075 3.07638 3.02664 3.21275 2.69984L3.27109 2.54567L3.37859 2.23067C3.43473 2.06616 3.54092 1.92332 3.68228 1.82216C3.82364 1.721 3.99309 1.66657 4.16692 1.6665ZM12.9169 5.83317C13.2484 5.83317 13.5664 5.96487 13.8008 6.19929C14.0352 6.43371 14.1669 6.75165 14.1669 7.08317C14.1669 7.41469 14.0352 7.73263 13.8008 7.96705C13.5664 8.20147 13.2484 8.33317 12.9169 8.33317C12.5854 8.33317 12.2675 8.20147 12.033 7.96705C11.7986 7.73263 11.6669 7.41469 11.6669 7.08317C11.6669 6.75165 11.7986 6.43371 12.033 6.19929C12.2675 5.96487 12.5854 5.83317 12.9169 5.83317Z" fill="#9CA3AF"/>
</svg>
