<svg width="24" height="24" viewBox="0 0 24 24" fill="none" xmlns="http://www.w3.org/2000/svg">
<path fill-rule="evenodd" clip-rule="evenodd" d="M2.94089 2C1.869 2 1 2.96 1 4.14267V17C1 18.1833 1.869 19.1427 2.94089 19.1427H9.41194V20.5713H6.82328V22H17.1767V20.5713H14.5881V19.1427H21.0591C22.131 19.1427 23 18.1833 23 17V4.14267C23 2.96 22.131 2 21.0591 2H2.94089ZM10.7057 20.5713H13.2943V19.1427H10.7057V20.5713ZM2.29433 4.14267C2.29433 3.74867 2.584 3.42867 2.94089 3.42867H21.0591C21.416 3.42867 21.7057 3.74867 21.7057 4.14267V17C21.7057 17.3947 21.416 17.714 21.0591 17.714H2.94089C2.584 17.714 2.29433 17.394 2.29433 17V4.14267ZM6.82328 4.85733H5.52956V6.286H4.23522V7.714H5.52956V9.14267H6.82328V7.714H8.11761V6.28667H6.82328V4.85733ZM4.88239 10.5713C4.52489 10.5713 4.23461 10.8913 4.23461 11.286V14.1427C4.23461 14.5373 4.52489 14.8573 4.88239 14.8573H7.47044C7.82794 14.8573 8.11761 14.5373 8.11761 14.1427V11.2867C8.11761 10.892 7.82794 10.572 7.47044 10.572L4.88239 10.5713ZM5.52956 13.4287V12H6.82328V13.4287H5.52956ZM10.0591 5.57133C10.0591 5.17667 10.3488 4.85733 10.7063 4.85733H13.2943C13.6518 4.85733 13.9415 5.17733 13.9415 5.57133V8.42867C13.9415 8.82333 13.6518 9.14267 13.2937 9.14267H10.7063C10.3488 9.14267 10.0585 8.82267 10.0585 8.42867L10.0591 5.57133ZM11.3528 6.286V7.714H12.6472V6.28667L11.3528 6.286ZM10.7063 10.5713C10.3488 10.5713 10.0585 10.8913 10.0585 11.286V14.1427C10.0585 14.5373 10.3488 14.8573 10.7063 14.8573H13.2943C13.6518 14.8573 13.9415 14.5373 13.9415 14.1427V11.2867C13.9415 10.892 13.6518 10.572 13.2937 10.572L10.7063 10.5713ZM11.3528 13.4287V12H12.6472V13.4287H11.3528ZM15.8824 5.57133C15.8824 5.17667 16.1721 4.85733 16.5296 4.85733H19.1176C19.4751 4.85733 19.7648 5.17733 19.7648 5.57133V8.42867C19.7648 8.82333 19.4751 9.14267 19.1176 9.14267H16.5296C16.1721 9.14267 15.8824 8.82267 15.8824 8.42867V5.57133ZM17.1767 6.286V7.714H18.4704V6.28667L17.1767 6.286Z" fill="#4B5563"/>
</svg>
