<svg width="52" height="9" viewBox="0 0 52 9" fill="none" xmlns="http://www.w3.org/2000/svg">
<path d="M51.3889 4.43921C51.6037 4.22442 51.6037 3.87618 51.3889 3.66139L47.8887 0.16121C47.6739 -0.0535786 47.3257 -0.0535786 47.1109 0.16121C46.8961 0.375998 46.8961 0.724239 47.1109 0.939027L50.2222 4.0503L47.1109 7.16157C46.8961 7.37636 46.8961 7.7246 47.1109 7.93938C47.3257 8.15417 47.6739 8.15417 47.8887 7.93938L51.3889 4.43921ZM0 4.05029L-4.80825e-08 4.60029L51 4.6003L51 4.0503L51 3.5003L4.80825e-08 3.50029L0 4.05029Z" fill="url(#paint0_linear_486_2772)"/>
<defs>
<linearGradient id="paint0_linear_486_2772" x1="-4.37114e-08" y1="4.55029" x2="51" y2="4.5503" gradientUnits="userSpaceOnUse">
<stop stop-color="#22D3EE"/>
<stop offset="1" stop-color="#3B82F6"/>
</linearGradient>
</defs>
</svg>
