<svg width="20" height="20" viewBox="0 0 20 20" fill="none" xmlns="http://www.w3.org/2000/svg">
<path d="M9.375 11.25C10.038 11.25 10.6739 11.5134 11.1428 11.9822C11.6116 12.4511 11.875 13.087 11.875 13.75C11.875 14.9562 11.135 15.9125 10.1112 16.5375C9.0875 17.16 7.71875 17.5 6.25 17.5C4.78125 17.5 3.4125 17.16 2.38875 16.5375C1.36375 15.9125 0.625 14.9562 0.625 13.75C0.625 13.087 0.888392 12.4511 1.35723 11.9822C1.82607 11.5134 2.46196 11.25 3.125 11.25H9.375ZM17.6912 11.26C18.153 11.3073 18.5807 11.5242 18.8917 11.8687C19.2027 12.2133 19.3749 12.6609 19.375 13.125C19.375 14.0887 18.7875 14.8862 17.9975 15.4125C17.2037 15.9425 16.1412 16.25 15 16.25C14.125 16.25 13.3 16.0675 12.6037 15.7462C12.9262 15.1675 13.1237 14.5012 13.1237 13.75C13.1237 12.8012 12.7687 11.9375 12.1875 11.2762C12.2892 11.2596 12.3933 11.2508 12.5 11.25H17.5L17.6912 11.26ZM6.25 3.125C7.16168 3.125 8.03602 3.48716 8.68068 4.13182C9.32534 4.77648 9.6875 5.65082 9.6875 6.5625C9.6875 7.47418 9.32534 8.34852 8.68068 8.99318C8.03602 9.63784 7.16168 10 6.25 10C5.33832 10 4.46398 9.63784 3.81932 8.99318C3.17466 8.34852 2.8125 7.47418 2.8125 6.5625C2.8125 5.65082 3.17466 4.77648 3.81932 4.13182C4.46398 3.48716 5.33832 3.125 6.25 3.125ZM15.0025 4.37125C15.3771 4.36336 15.7495 4.43031 16.0978 4.5682C16.4462 4.70609 16.7635 4.91214 17.0312 5.17426C17.2989 5.43638 17.5116 5.7493 17.6568 6.09469C17.802 6.44007 17.8768 6.81096 17.8768 7.18562C17.8768 7.56029 17.802 7.93118 17.6568 8.27656C17.5116 8.62195 17.2989 8.93487 17.0312 9.19699C16.7635 9.45911 16.4462 9.66516 16.0978 9.80305C15.7495 9.94093 15.3771 10.0079 15.0025 10C14.2664 9.98448 13.5656 9.68116 13.0504 9.15505C12.5353 8.62894 12.2468 7.92194 12.2468 7.18562C12.2468 6.44931 12.5353 5.74231 13.0504 5.2162C13.5656 4.69009 14.2664 4.38677 15.0025 4.37125Z" fill="#6B7280"/>
</svg>
