<svg width="16" height="16" viewBox="0 0 16 16" fill="none" xmlns="http://www.w3.org/2000/svg">
<path d="M7.5 9C8.03043 9 8.53914 9.21071 8.91421 9.58579C9.28929 9.96086 9.5 10.4696 9.5 11C9.5 11.965 8.908 12.73 8.089 13.23C7.27 13.728 6.175 14 5 14C3.825 14 2.73 13.728 1.911 13.23C1.091 12.73 0.5 11.965 0.5 11C0.5 10.4696 0.710714 9.96086 1.08579 9.58579C1.46086 9.21071 1.96957 9 2.5 9H7.5ZM14.153 9.008C14.5224 9.04587 14.8646 9.2194 15.1134 9.495C15.3622 9.7706 15.5 10.1287 15.5 10.5C15.5 11.271 15.03 11.909 14.398 12.33C13.763 12.754 12.913 13 12 13C11.3 13 10.64 12.854 10.083 12.597C10.341 12.134 10.499 11.601 10.499 11C10.499 10.241 10.215 9.55 9.75 9.021C9.83133 9.00767 9.91467 9.00067 10 9H14L14.153 9.008ZM5 2.5C5.72935 2.5 6.42882 2.78973 6.94454 3.30546C7.46027 3.82118 7.75 4.52065 7.75 5.25C7.75 5.97935 7.46027 6.67882 6.94454 7.19454C6.42882 7.71027 5.72935 8 5 8C4.27065 8 3.57118 7.71027 3.05546 7.19454C2.53973 6.67882 2.25 5.97935 2.25 5.25C2.25 4.52065 2.53973 3.82118 3.05546 3.30546C3.57118 2.78973 4.27065 2.5 5 2.5ZM12.002 3.497C12.3017 3.49068 12.5996 3.54425 12.8783 3.65456C13.157 3.76487 13.4108 3.92971 13.625 4.13941C13.8392 4.3491 14.0093 4.59944 14.1255 4.87575C14.2416 5.15205 14.3015 5.44877 14.3015 5.7485C14.3015 6.04823 14.2416 6.34495 14.1255 6.62125C14.0093 6.89756 13.8392 7.1479 13.625 7.35759C13.4108 7.56729 13.157 7.73213 12.8783 7.84244C12.5996 7.95275 12.3017 8.00632 12.002 8C11.4131 7.98759 10.8525 7.74492 10.4404 7.32404C10.0282 6.90315 9.79745 6.33755 9.79745 5.7485C9.79745 5.15945 10.0282 4.59385 10.4404 4.17296C10.8525 3.75208 11.4131 3.50941 12.002 3.497Z" fill="#6B7280"/>
</svg>
