<svg width="26" height="40" viewBox="0 0 26 40" fill="none" xmlns="http://www.w3.org/2000/svg">
<path d="M8 0C3.58172 0 6.44277e-08 3.58172 0 8V32C0 36.4183 3.58172 40 8 40H18C22.4183 40 26 36.4183 26 32V8C26 3.58172 22.4183 1.61064e-07 18 0H8Z" stroke="#E5E7EB"/>
<path d="M8.29385 19.2937C7.90322 19.6843 7.90322 20.3187 8.29385 20.7093L14.2938 26.7093C14.6845 27.0999 15.3188 27.0999 15.7095 26.7093C16.1001 26.3187 16.1001 25.6843 15.7095 25.2937L10.4157 19.9999L15.7063 14.7062C16.097 14.3155 16.097 13.6812 15.7063 13.2905C15.3157 12.8999 14.6813 12.8999 14.2907 13.2905L8.29072 19.2905L8.29385 19.2937Z" fill="#9CA3AF"/>
</svg>
