<svg width="18" height="18" viewBox="0 0 18 18" fill="none" xmlns="http://www.w3.org/2000/svg">
<path d="M15.0228 11.8854C15.0086 11.868 14.9907 11.854 14.9704 11.8444C14.9501 11.8348 14.9279 11.8298 14.9054 11.8298C14.883 11.8298 14.8608 11.8348 14.8405 11.8444C14.8202 11.854 14.8023 11.868 14.7881 11.8854C14.3842 12.362 13.057 13.6748 13.057 14.8706C13.057 15.9085 13.8841 16.75 14.9035 16.75C15.9229 16.75 16.75 15.9043 16.75 14.8706C16.75 13.6748 15.4305 12.362 15.0228 11.8854ZM13.7879 9.98064L4.88671 1.15702C4.75805 1.02801 4.60518 0.925646 4.43684 0.8558C4.26851 0.785954 4.08804 0.75 3.90577 0.75C3.7235 0.75 3.54303 0.785954 3.37469 0.8558C3.20636 0.925646 3.05348 1.02801 2.92482 1.15702L2.72671 1.35499C2.5976 1.48356 2.49516 1.63632 2.42527 1.80453C2.35537 1.97274 2.31939 2.15309 2.31939 2.33522C2.31939 2.51736 2.35537 2.6977 2.42527 2.86591C2.49516 3.03412 2.5976 3.18689 2.72671 3.31545L4.76131 5.34857L6.95401 3.15746L1.06757 9.03116C0.965957 9.13214 0.885536 9.25237 0.831011 9.3848C0.776487 9.51723 0.748956 9.6592 0.75003 9.80239C0.751105 9.94559 0.780764 10.0871 0.83727 10.2187C0.893776 10.3503 0.975993 10.4693 1.07911 10.5688L6.12617 15.4123C6.3277 15.6051 6.59614 15.7124 6.87515 15.7117C7.15416 15.711 7.42205 15.6023 7.62259 15.4084C9.0767 14.0015 12.1734 11.007 12.4965 10.6841C12.7197 10.4611 13.1967 10.4112 13.6006 10.4112H13.6121C13.6621 10.4112 13.7109 10.3964 13.7524 10.3686C13.7938 10.3407 13.8261 10.3012 13.8449 10.255C13.8638 10.2088 13.8685 10.158 13.8583 10.1091C13.8482 10.0603 13.8236 10.0155 13.7879 9.98064Z" stroke="#4B5563" stroke-width="1.5" stroke-miterlimit="10"/>
</svg>
