<svg width="16" height="14" viewBox="0 0 16 14" fill="none" xmlns="http://www.w3.org/2000/svg">
<path d="M1.33333 2.66667C1.68696 2.66667 2.02609 2.52619 2.27614 2.27614C2.52619 2.02609 2.66667 1.68696 2.66667 1.33333C2.66667 0.979711 2.52619 0.640573 2.27614 0.390524C2.02609 0.140476 1.68696 0 1.33333 0C0.979711 0 0.640573 0.140476 0.390524 0.390524C0.140476 0.640573 0 0.979711 0 1.33333C0 1.68696 0.140476 2.02609 0.390524 2.27614C0.640573 2.52619 0.979711 2.66667 1.33333 2.66667ZM5.66667 0.333333C5.40145 0.333333 5.1471 0.43869 4.95956 0.626226C4.77202 0.813763 4.66667 1.06812 4.66667 1.33333C4.66667 1.59855 4.77202 1.8529 4.95956 2.04044C5.1471 2.22798 5.40145 2.33333 5.66667 2.33333H15C15.2652 2.33333 15.5196 2.22798 15.7071 2.04044C15.8946 1.8529 16 1.59855 16 1.33333C16 1.06812 15.8946 0.813763 15.7071 0.626226C15.5196 0.43869 15.2652 0.333333 15 0.333333H5.66667ZM5.66667 6C5.40145 6 5.1471 6.10536 4.95956 6.29289C4.77202 6.48043 4.66667 6.73478 4.66667 7C4.66667 7.26522 4.77202 7.51957 4.95956 7.70711C5.1471 7.89464 5.40145 8 5.66667 8H15C15.2652 8 15.5196 7.89464 15.7071 7.70711C15.8946 7.51957 16 7.26522 16 7C16 6.73478 15.8946 6.48043 15.7071 6.29289C15.5196 6.10536 15.2652 6 15 6H5.66667ZM5.66667 11.6667C5.40145 11.6667 5.1471 11.772 4.95956 11.9596C4.77202 12.1471 4.66667 12.4015 4.66667 12.6667C4.66667 12.9319 4.77202 13.1862 4.95956 13.3738C5.1471 13.5613 5.40145 13.6667 5.66667 13.6667H15C15.2652 13.6667 15.5196 13.5613 15.7071 13.3738C15.8946 13.1862 16 12.9319 16 12.6667C16 12.4015 15.8946 12.1471 15.7071 11.9596C15.5196 11.772 15.2652 11.6667 15 11.6667H5.66667ZM2.66667 12.6667C2.66667 13.0203 2.52619 13.3594 2.27614 13.6095C2.02609 13.8595 1.68696 14 1.33333 14C0.979711 14 0.640573 13.8595 0.390524 13.6095C0.140476 13.3594 0 13.0203 0 12.6667C0 12.313 0.140476 11.9739 0.390524 11.7239C0.640573 11.4738 0.979711 11.3333 1.33333 11.3333C1.68696 11.3333 2.02609 11.4738 2.27614 11.7239C2.52619 11.9739 2.66667 12.313 2.66667 12.6667ZM1.33333 8.33333C1.68696 8.33333 2.02609 8.19286 2.27614 7.94281C2.52619 7.69276 2.66667 7.35362 2.66667 7C2.66667 6.64638 2.52619 6.30724 2.27614 6.05719C2.02609 5.80714 1.68696 5.66667 1.33333 5.66667C0.979711 5.66667 0.640573 5.80714 0.390524 6.05719C0.140476 6.30724 0 6.64638 0 7C0 7.35362 0.140476 7.69276 0.390524 7.94281C0.640573 8.19286 0.979711 8.33333 1.33333 8.33333Z" fill="#4B5563"/>
</svg>
