<svg width="40" height="47" viewBox="0 0 40 47" fill="none" xmlns="http://www.w3.org/2000/svg">
<g filter="url(#filter0_dd_211_162)">
<rect x="8" y="5" width="24" height="30" rx="12" fill="url(#paint0_linear_211_162)"/>
<path d="M14.4801 16.0402H26.0001M18.8001 18.9202V23.2402M21.6801 18.9202V23.2402M15.2001 16.0402L15.9201 24.6802C15.9201 25.0621 16.0718 25.4283 16.3418 25.6984C16.6119 25.9684 16.9782 26.1202 17.3601 26.1202H23.1201C23.502 26.1202 23.8683 25.9684 24.1383 25.6984C24.4084 25.4283 24.5601 25.0621 24.5601 24.6802L25.2801 16.0402M18.0801 16.0402V13.8802C18.0801 13.6892 18.1559 13.5061 18.291 13.371C18.426 13.236 18.6091 13.1602 18.8001 13.1602H21.6801C21.871 13.1602 22.0542 13.236 22.1892 13.371C22.3242 13.5061 22.4001 13.6892 22.4001 13.8802V16.0402" stroke="white" stroke-width="1.44" stroke-linecap="round" stroke-linejoin="round"/>
</g>
<defs>
<filter id="filter0_dd_211_162" x="0.8" y="0.48" width="38.4" height="45.52" filterUnits="userSpaceOnUse" color-interpolation-filters="sRGB">
<feFlood flood-opacity="0" result="BackgroundImageFix"/>
<feColorMatrix in="SourceAlpha" type="matrix" values="0 0 0 0 0 0 0 0 0 0 0 0 0 0 0 0 0 0 127 0" result="hardAlpha"/>
<feOffset dy="5.04"/>
<feGaussianBlur stdDeviation="3.6"/>
<feColorMatrix type="matrix" values="0 0 0 0 0 0 0 0 0 0 0 0 0 0 0 0 0 0 0.1 0"/>
<feBlend mode="normal" in2="BackgroundImageFix" result="effect1_dropShadow_211_162"/>
<feColorMatrix in="SourceAlpha" type="matrix" values="0 0 0 0 0 0 0 0 0 0 0 0 0 0 0 0 0 0 127 0" result="hardAlpha"/>
<feOffset dy="2.016"/>
<feGaussianBlur stdDeviation="1.512"/>
<feColorMatrix type="matrix" values="0 0 0 0 0 0 0 0 0 0 0 0 0 0 0 0 0 0 0.1 0"/>
<feBlend mode="normal" in2="effect1_dropShadow_211_162" result="effect2_dropShadow_211_162"/>
<feBlend mode="normal" in="SourceGraphic" in2="effect2_dropShadow_211_162" result="shape"/>
</filter>
<linearGradient id="paint0_linear_211_162" x1="8" y1="20" x2="32" y2="20" gradientUnits="userSpaceOnUse">
<stop stop-color="#3B82F6"/>
<stop offset="1" stop-color="#2563EB"/>
</linearGradient>
</defs>
</svg>
