<svg width="24" height="24" viewBox="0 0 24 24" fill="none" xmlns="http://www.w3.org/2000/svg">
<path d="M11 3.00001H4.5C4.10218 3.00001 3.72064 3.15805 3.43934 3.43935C3.15804 3.72066 3 4.10219 3 4.50001V15.5C3 15.8978 3.15804 16.2794 3.43934 16.5607C3.72064 16.842 4.10218 17 4.5 17H19.5C19.8978 17 20.2794 16.842 20.5607 16.5607C20.842 16.2794 21 15.8978 21 15.5V11M12 17V21M7 21H17M16.65 3.00001C15.739 3.00001 15 3.71751 15 4.60251C15 6.20451 16.95 7.66101 18 8.00001C19.05 7.66101 21 6.20501 21 4.60251C21 3.71751 20.2615 3.00001 19.35 3.00001C19.0872 2.99893 18.8279 3.06007 18.5932 3.17843C18.3586 3.29679 18.1553 3.46902 18 3.68101C17.8447 3.46902 17.6414 3.29679 17.4068 3.17843C17.1721 3.06007 16.9128 2.99893 16.65 3.00001Z" stroke="#9CA3AF" stroke-width="2" stroke-linecap="round" stroke-linejoin="round"/>
</svg>
