<svg width="20" height="20" viewBox="0 0 20 20" fill="none" xmlns="http://www.w3.org/2000/svg">
<path d="M13.3333 1.66675V5.00008M6.66667 1.66675V5.00008M17.5 10.0001C17.5 6.85758 17.5 5.28591 16.5233 4.31008C15.5467 3.33425 13.9758 3.33341 10.8333 3.33341H9.16667C6.02417 3.33341 4.4525 3.33341 3.47667 4.31008C2.50083 5.28675 2.5 6.85758 2.5 10.0001V11.6667C2.5 14.8092 2.5 16.3809 3.47667 17.3567C4.45333 18.3326 6.02417 18.3334 9.16667 18.3334M2.5 8.33341H17.5" stroke="#6B7280" stroke-width="1.5" stroke-linecap="round" stroke-linejoin="round"/>
<path d="M15.2224 15.5842L14.1666 15.0001V13.5559M17.4999 15.0001C17.4999 15.8841 17.1487 16.732 16.5236 17.3571C15.8985 17.9822 15.0506 18.3334 14.1666 18.3334C13.2825 18.3334 12.4347 17.9822 11.8096 17.3571C11.1844 16.732 10.8333 15.8841 10.8333 15.0001C10.8333 14.116 11.1844 13.2682 11.8096 12.6431C12.4347 12.0179 13.2825 11.6667 14.1666 11.6667C15.0506 11.6667 15.8985 12.0179 16.5236 12.6431C17.1487 13.2682 17.4999 14.116 17.4999 15.0001Z" stroke="#6B7280" stroke-width="1.5" stroke-linecap="round" stroke-linejoin="round"/>
</svg>
