<svg width="20" height="20" viewBox="0 0 20 20" fill="none" xmlns="http://www.w3.org/2000/svg">
<path d="M4.79199 0.833252C4.95775 0.833252 5.11672 0.8991 5.23393 1.01631C5.35114 1.13352 5.41699 1.29249 5.41699 1.45825V2.99992L6.85033 2.71325C8.22601 2.43913 9.65168 2.56997 10.9545 3.08992L11.1245 3.15742C12.4253 3.67782 13.8569 3.77521 15.2162 3.43575C15.3636 3.3989 15.5175 3.39613 15.6661 3.42765C15.8147 3.45918 15.9543 3.52416 16.074 3.61766C16.1938 3.71117 16.2907 3.83074 16.3573 3.9673C16.424 4.10385 16.4586 4.2538 16.4587 4.40575V10.5449C16.4587 11.0816 16.0928 11.5499 15.572 11.6799L15.3937 11.7241C13.9191 12.0927 12.3659 11.9874 10.9545 11.4233C9.65194 10.9035 8.22658 10.7726 6.85116 11.0466L5.41699 11.3333V18.1249C5.41699 18.2907 5.35114 18.4497 5.23393 18.5669C5.11672 18.6841 4.95775 18.7499 4.79199 18.7499C4.62623 18.7499 4.46726 18.6841 4.35005 18.5669C4.23284 18.4497 4.16699 18.2907 4.16699 18.1249V1.45825C4.16699 1.29249 4.23284 1.13352 4.35005 1.01631C4.46726 0.8991 4.62623 0.833252 4.79199 0.833252Z" fill="#B01314"/>
<path d="M18.9836 18.1456L16.1916 13.338C15.7257 12.5631 15.1061 12.5631 14.6403 13.338L11.8498 18.1456C11.3839 18.9205 11.8498 19.5416 12.7799 19.5416H18.0534C18.9836 19.5416 19.4494 18.9205 18.9836 18.1456ZM16.0378 18.9205H14.797V17.6798H16.0378V18.9205ZM16.0378 17.0602H14.797V14.2682H16.0378V17.0602Z" fill="#F4C90D"/>
</svg>
