<svg width="20" height="20" viewBox="0 0 20 20" fill="none" xmlns="http://www.w3.org/2000/svg">
<path d="M4.6 0.800049C4.75913 0.800049 4.91174 0.863263 5.02426 0.975785C5.13679 1.08831 5.2 1.24092 5.2 1.40005V2.88005L6.576 2.60485C7.89666 2.34169 9.2653 2.4673 10.516 2.96645L10.6792 3.03125C11.9279 3.53084 13.3023 3.62433 14.6072 3.29845C14.7487 3.26307 14.8964 3.26042 15.0391 3.29068C15.1818 3.32094 15.3158 3.38332 15.4308 3.47308C15.5457 3.56285 15.6388 3.67764 15.7027 3.80873C15.7667 3.93983 15.8 4.08378 15.8 4.22965V10.1232C15.8 10.6384 15.4488 11.088 14.9488 11.2128L14.7776 11.2552C13.362 11.6091 11.8709 11.5081 10.516 10.9664C9.26555 10.4675 7.8972 10.3418 6.5768 10.6048L5.2 10.88V17.4C5.2 17.5592 5.13679 17.7118 5.02426 17.8243C4.91174 17.9368 4.75913 18 4.6 18C4.44087 18 4.28826 17.9368 4.17574 17.8243C4.06321 17.7118 4 17.5592 4 17.4V1.40005C4 1.24092 4.06321 1.08831 4.17574 0.975785C4.28826 0.863263 4.44087 0.800049 4.6 0.800049Z" fill="#4B5563"/>
<path d="M18.6668 16.6667H16.6668V18.6667H15.3335V16.6667H13.3335V15.3334H15.3335V13.3334H16.6668V15.3334H18.6668V16.6667Z" fill="#4B5563"/>
</svg>
