<svg width="20" height="20" viewBox="0 0 20 20" fill="none" xmlns="http://www.w3.org/2000/svg">
<path d="M4.79175 0.833374C4.95751 0.833374 5.11648 0.899222 5.23369 1.01643C5.3509 1.13364 5.41675 1.29261 5.41675 1.45837V3.00004L6.85008 2.71337C8.22577 2.43925 9.65144 2.57009 10.9542 3.09004L11.1242 3.15754C12.425 3.67795 13.8567 3.77533 15.2159 3.43587C15.3633 3.39903 15.5172 3.39626 15.6659 3.42778C15.8145 3.4593 15.954 3.52428 16.0738 3.61778C16.1936 3.71129 16.2904 3.83086 16.3571 3.96742C16.4237 4.10397 16.4584 4.25392 16.4584 4.40587V10.545C16.4584 11.0817 16.0926 11.55 15.5717 11.68L15.3934 11.7242C13.9188 12.0928 12.3656 11.9876 10.9542 11.4234C9.65169 10.9036 8.22633 10.7727 6.85091 11.0467L5.41675 11.3334V18.125C5.41675 18.2908 5.3509 18.4498 5.23369 18.567C5.11648 18.6842 4.95751 18.75 4.79175 18.75C4.62599 18.75 4.46702 18.6842 4.34981 18.567C4.2326 18.4498 4.16675 18.2908 4.16675 18.125V1.45837C4.16675 1.29261 4.2326 1.13364 4.34981 1.01643C4.46702 0.899222 4.62599 0.833374 4.79175 0.833374Z" fill="#B01314"/>
<path d="M18.9836 18.1455L16.1916 13.3379C15.7257 12.563 15.1061 12.563 14.6403 13.3379L11.8498 18.1455C11.3839 18.9204 11.8498 19.5415 12.7799 19.5415H18.0534C18.9836 19.5415 19.4494 18.9204 18.9836 18.1455ZM16.0378 18.9204H14.797V17.6797H16.0378V18.9204ZM16.0378 17.0601H14.797V14.2681H16.0378V17.0601Z" fill="#F4C90D"/>
</svg>
