<svg width="20" height="20" viewBox="0 0 20 20" fill="none" xmlns="http://www.w3.org/2000/svg">
<path d="M14.7917 18.8067L12.6355 16.7367L13.6181 15.7934L14.7917 16.9234L18.2223 13.6267L19.2049 14.57L14.7917 18.8067Z" fill="#22C55E"/>
<path d="M4.79175 0.800049C4.95751 0.800049 5.11648 0.863263 5.23369 0.975785C5.3509 1.08831 5.41675 1.24092 5.41675 1.40005V2.88005L6.85008 2.60485C8.22577 2.34169 9.65144 2.4673 10.9542 2.96645L11.1242 3.03125C12.425 3.53084 13.8567 3.62433 15.2159 3.29845C15.3633 3.26307 15.5172 3.26042 15.6659 3.29068C15.8145 3.32094 15.954 3.38332 16.0738 3.47308C16.1936 3.56285 16.2904 3.67764 16.3571 3.80873C16.4237 3.93983 16.4584 4.08378 16.4584 4.22965V10.1232C16.4584 10.6384 16.0926 11.088 15.5717 11.2128L15.3934 11.2552C13.9188 11.6091 12.3656 11.5081 10.9542 10.9664C9.65169 10.4675 8.22633 10.3418 6.85091 10.6048L5.41675 10.88V17.4C5.41675 17.5592 5.3509 17.7118 5.23369 17.8243C5.11648 17.9368 4.95751 18 4.79175 18C4.62599 18 4.46702 17.9368 4.34981 17.8243C4.2326 17.7118 4.16675 17.5592 4.16675 17.4V1.40005C4.16675 1.24092 4.2326 1.08831 4.34981 0.975785C4.46702 0.863263 4.62599 0.800049 4.79175 0.800049Z" fill="#B01314"/>
</svg>
