<svg width="24" height="24" viewBox="0 0 24 24" fill="none" xmlns="http://www.w3.org/2000/svg">
<path d="M6.66673 22.7679H17.3339C19.4133 22.7679 20.4479 21.7132 20.4479 19.6239V10.5035C20.4479 9.20746 20.3073 8.64518 19.5037 7.82146L13.9589 2.18661C13.196 1.40275 12.5729 1.23218 11.438 1.23218H6.66673C4.59759 1.23218 3.55273 2.29675 3.55273 4.38646V19.6239C3.55273 21.723 4.59759 22.7679 6.66673 22.7679ZM6.74688 21.1509C5.71231 21.1509 5.16973 20.598 5.16973 19.5939V4.41646C5.16973 3.42218 5.71231 2.84918 6.75716 2.84918H11.2169V8.68546C11.2169 9.95103 11.8597 10.5737 13.1052 10.5737H18.8309V19.5939C18.8309 20.598 18.2982 21.1509 17.2537 21.1509H6.74688ZM13.286 9.05661C12.8943 9.05661 12.7332 8.89632 12.7332 8.49432V3.16075L18.5189 9.05703L13.286 9.05661ZM15.6967 13.3359H8.07245C7.71116 13.3359 7.45016 13.6072 7.45016 13.9487C7.45016 14.3002 7.71159 14.5715 8.07288 14.5715H15.6967C15.7789 14.5728 15.8605 14.5576 15.9366 14.5268C16.0128 14.496 16.0819 14.4501 16.14 14.392C16.1981 14.334 16.2439 14.2648 16.2748 14.1886C16.3056 14.1125 16.3208 14.0309 16.3194 13.9487C16.3194 13.6072 16.0482 13.3359 15.6967 13.3359ZM15.6967 16.8416H8.07245C7.71116 16.8416 7.45016 17.1227 7.45016 17.4742C7.45016 17.8157 7.71159 18.0772 8.07288 18.0772H15.6967C16.0482 18.0772 16.3194 17.8157 16.3194 17.4742C16.3194 17.1227 16.0482 16.8416 15.6967 16.8416Z" fill="#9CA3AF"/>
</svg>
