<svg width="20" height="20" viewBox="0 0 20 20" fill="none" xmlns="http://www.w3.org/2000/svg">
<path d="M10 2.5H4.16667C3.72464 2.5 3.30072 2.67559 2.98816 2.98816C2.67559 3.30072 2.5 3.72464 2.5 4.16667V15.8333C2.5 16.2754 2.67559 16.6993 2.98816 17.0118C3.30072 17.3244 3.72464 17.5 4.16667 17.5H15.8333C16.2754 17.5 16.6993 17.3244 17.0118 17.0118C17.3244 16.6993 17.5 16.2754 17.5 15.8333V10" stroke="#6B7280" stroke-width="2" stroke-linecap="round" stroke-linejoin="round"/>
<path d="M15.3125 2.18744C15.644 1.85592 16.0937 1.66968 16.5625 1.66968C17.0313 1.66968 17.481 1.85592 17.8125 2.18744C18.144 2.51897 18.3303 2.9686 18.3303 3.43744C18.3303 3.90629 18.144 4.35592 17.8125 4.68744L10.3017 12.1991C10.1038 12.3968 9.85933 12.5415 9.59083 12.6199L7.19666 13.3199C7.12496 13.3409 7.04895 13.3421 6.97659 13.3236C6.90423 13.305 6.83819 13.2674 6.78537 13.2146C6.73255 13.1618 6.6949 13.0957 6.67637 13.0234C6.65783 12.951 6.65908 12.875 6.68 12.8033L7.38 10.4091C7.45877 10.1408 7.60378 9.89666 7.80166 9.69911L15.3125 2.18744Z" stroke="#6B7280" stroke-width="2" stroke-linecap="round" stroke-linejoin="round"/>
</svg>
