<svg width="24" height="24" viewBox="0 0 24 24" fill="none" xmlns="http://www.w3.org/2000/svg">
<path d="M12.5932 23.258L12.5822 23.26L12.5112 23.295L12.4912 23.299L12.4772 23.295L12.4062 23.26C12.3955 23.2567 12.3875 23.2583 12.3822 23.265L12.3782 23.275L12.3612 23.703L12.3662 23.723L12.3762 23.736L12.4802 23.81L12.4952 23.814L12.5072 23.81L12.6112 23.736L12.6232 23.72L12.6272 23.703L12.6102 23.276C12.6075 23.2653 12.6018 23.2593 12.5932 23.258ZM12.8582 23.145L12.8452 23.147L12.6602 23.24L12.6502 23.25L12.6472 23.261L12.6652 23.691L12.6702 23.703L12.6782 23.71L12.8792 23.803C12.8918 23.8063 12.9015 23.8037 12.9082 23.795L12.9122 23.781L12.8782 23.167C12.8748 23.155 12.8682 23.1477 12.8582 23.145ZM12.1432 23.147C12.1388 23.1443 12.1335 23.1435 12.1285 23.1446C12.1234 23.1457 12.119 23.1487 12.1162 23.153L12.1102 23.167L12.0762 23.781C12.0768 23.793 12.0825 23.801 12.0932 23.805L12.1082 23.803L12.3092 23.71L12.3192 23.702L12.3232 23.691L12.3402 23.261L12.3372 23.249L12.3272 23.239L12.1432 23.147Z" fill="#9CA3AF"/>
<path d="M12 2C17.523 2 22 6.477 22 12C22 17.523 17.523 22 12 22C6.477 22 2 17.523 2 12C2 6.477 6.477 2 12 2ZM12 4C9.87827 4 7.84344 4.84285 6.34315 6.34315C4.84285 7.84344 4 9.87827 4 12C4 14.1217 4.84285 16.1566 6.34315 17.6569C7.84344 19.1571 9.87827 20 12 20C14.1217 20 16.1566 19.1571 17.6569 17.6569C19.1571 16.1566 20 14.1217 20 12C20 9.87827 19.1571 7.84344 17.6569 6.34315C16.1566 4.84285 14.1217 4 12 4ZM14.8 13.857C14.8933 13.7629 15.0044 13.6882 15.1268 13.6374C15.2492 13.5866 15.3804 13.5606 15.513 13.561C15.6455 13.5614 15.7766 13.5881 15.8987 13.6396C16.0208 13.6911 16.1315 13.7663 16.2243 13.8609C16.317 13.9556 16.3901 14.0677 16.4391 14.1908C16.4882 14.3139 16.5123 14.4455 16.5101 14.578C16.5078 14.7105 16.4792 14.8413 16.426 14.9626C16.3728 15.084 16.2959 15.1936 16.2 15.285C15.0796 16.3861 13.5709 17.0022 12 17C10.4291 17.0022 8.92039 16.3861 7.8 15.285C7.61503 15.0984 7.51093 14.8465 7.5102 14.5838C7.50948 14.321 7.61219 14.0685 7.79613 13.8809C7.98006 13.6933 8.23045 13.5856 8.49316 13.5811C8.75586 13.5767 9.00977 13.6758 9.2 13.857C9.94658 14.5916 10.9526 15.0023 12 15C13.09 15 14.077 14.565 14.8 13.857ZM8.5 8C8.89782 8 9.27936 8.15804 9.56066 8.43934C9.84196 8.72064 10 9.10218 10 9.5C10 9.89782 9.84196 10.2794 9.56066 10.5607C9.27936 10.842 8.89782 11 8.5 11C8.10218 11 7.72064 10.842 7.43934 10.5607C7.15804 10.2794 7 9.89782 7 9.5C7 9.10218 7.15804 8.72064 7.43934 8.43934C7.72064 8.15804 8.10218 8 8.5 8ZM15.5 8C15.8978 8 16.2794 8.15804 16.5607 8.43934C16.842 8.72064 17 9.10218 17 9.5C17 9.89782 16.842 10.2794 16.5607 10.5607C16.2794 10.842 15.8978 11 15.5 11C15.1022 11 14.7206 10.842 14.4393 10.5607C14.158 10.2794 14 9.89782 14 9.5C14 9.10218 14.158 8.72064 14.4393 8.43934C14.7206 8.15804 15.1022 8 15.5 8Z" fill="#9CA3AF"/>
</svg>
