<svg width="24" height="24" viewBox="0 0 24 24" fill="none" xmlns="http://www.w3.org/2000/svg">
<path d="M18 18H2.4V7.19995H5.514C5.514 7.19995 6.3408 6.12475 8.118 4.79995H1.2C0.88174 4.79995 0.576516 4.92638 0.351472 5.15142C0.126428 5.37647 0 5.68169 0 5.99995L0 19.2C0 19.5182 0.126428 19.8234 0.351472 20.0485C0.576516 20.2735 0.88174 20.4 1.2 20.4H19.2C19.5183 20.4 19.8235 20.2735 20.0485 20.0485C20.2736 19.8234 20.4 19.5182 20.4 19.2V14.7048L18 16.6788V18ZM16.0332 9.65995V13.9212L24 7.67995L16.0332 1.68115V5.43835C6.36 5.43835 6.36 15 6.36 15C9.0984 10.5024 10.7832 9.65995 16.0332 9.65995Z" fill="#9CA3AF"/>
</svg>
