<svg width="24" height="24" viewBox="0 0 24 24" fill="none" xmlns="http://www.w3.org/2000/svg">
<path d="M13.9046 11.39C13.8048 11.0784 13.63 10.796 13.3956 10.5677C13.1612 10.3393 12.8744 10.172 12.5603 10.0803C12.2462 9.98866 11.9144 9.97546 11.594 10.0419C11.2735 10.1083 10.9743 10.2524 10.7226 10.4614C10.4708 10.6704 10.2741 10.938 10.1498 11.2407C10.0256 11.5434 9.97747 11.872 10.0098 12.1976C10.042 12.5232 10.1537 12.8359 10.335 13.1084C10.5163 13.3808 10.7617 13.6045 11.0496 13.76" stroke="#9CA3AF" stroke-width="1.5" stroke-linecap="round" stroke-linejoin="round"/>
<path d="M9.992 17.779C7.27 17.1583 4.93933 15.232 3 12C5.4 8 8.4 6 12 6C15.332 6 18.15 7.71333 20.454 11.14M18 22L21.35 18.716C21.5554 18.5167 21.7188 18.2782 21.8306 18.0146C21.9423 17.7511 22.0001 17.4678 22.0006 17.1816C22.0011 16.8953 21.9442 16.6119 21.8333 16.3479C21.7224 16.084 21.5598 15.845 21.355 15.645C20.9374 15.2359 20.3764 15.0062 19.7917 15.0051C19.2071 15.004 18.6452 15.2315 18.226 15.639L18.002 15.859L17.779 15.639C17.3614 15.2302 16.8006 15.0007 16.2162 14.9996C15.6318 14.9985 15.0701 15.2258 14.651 15.633C14.4455 15.8323 14.282 16.0707 14.1702 16.3342C14.0583 16.5977 14.0004 16.881 13.9999 17.1672C13.9993 17.4535 14.0561 17.737 14.1669 18.0009C14.2777 18.2648 14.4403 18.5039 14.645 18.704L18 22Z" stroke="#9CA3AF" stroke-width="1.5" stroke-linecap="round" stroke-linejoin="round"/>
</svg>
