<svg width="17" height="17" viewBox="0 0 17 17" fill="none" xmlns="http://www.w3.org/2000/svg">
<g clip-path="url(#clip0_333_2115)">
<path d="M9.54269 7.8168C9.47417 7.60295 9.35422 7.40917 9.19337 7.25246C9.03252 7.09576 8.83568 6.98091 8.62011 6.918C8.40453 6.85509 8.17681 6.84603 7.95693 6.89162C7.73704 6.93721 7.53169 7.03606 7.3589 7.1795C7.18612 7.32293 7.05116 7.50658 6.96587 7.71432C6.88059 7.92206 6.84758 8.14755 6.86974 8.37102C6.89189 8.59449 6.96855 8.80911 7.09297 8.99605C7.21739 9.183 7.38578 9.33656 7.58337 9.44327" stroke="#9CA3AF" stroke-width="1.17647" stroke-linecap="round" stroke-linejoin="round"/>
<path d="M6.85727 12.2013C4.98923 11.7754 3.38975 10.4534 2.05884 8.23532C3.7059 5.49022 5.76472 4.11768 8.23531 4.11768C10.522 4.11768 12.4559 5.29349 14.0371 7.64513M12.353 15.0981L14.652 12.8443C14.793 12.7075 14.9051 12.5439 14.9818 12.363C15.0585 12.1821 15.0982 11.9877 15.0985 11.7913C15.0988 11.5948 15.0598 11.4003 14.9837 11.2192C14.9076 11.0381 14.7959 10.8741 14.6554 10.7368C14.3688 10.456 13.9838 10.2984 13.5826 10.2976C13.1814 10.2969 12.7957 10.453 12.5081 10.7327L12.3543 10.8837L12.2013 10.7327C11.9147 10.4521 11.5298 10.2946 11.1288 10.2939C10.7277 10.2931 10.3423 10.4491 10.0546 10.7286C9.91359 10.8653 9.80139 11.029 9.72465 11.2098C9.6479 11.3906 9.60816 11.585 9.60778 11.7815C9.6074 11.9779 9.64637 12.1725 9.72241 12.3536C9.79845 12.5347 9.91001 12.6988 10.0505 12.8361L12.353 15.0981Z" stroke="#9CA3AF" stroke-width="1.17647" stroke-linecap="round" stroke-linejoin="round"/>
</g>
<defs>
<clipPath id="clip0_333_2115">
<rect width="16.4706" height="16.4706" fill="white"/>
</clipPath>
</defs>
</svg>
