<svg width="17" height="17" viewBox="0 0 17 17" fill="none" xmlns="http://www.w3.org/2000/svg">
<path d="M9.0074 3.86035C12.6103 4.37506 14.6692 8.23535 14.6692 8.23535C14.6692 8.23535 14.1545 9.52212 13.125 10.5515M10.5515 12.0956C4.37504 14.1545 1.80151 8.23535 1.80151 8.23535C1.80151 8.23535 2.31622 6.43388 4.88975 4.88976" stroke="#9CA3AF" stroke-width="1.23529" stroke-linecap="round" stroke-linejoin="round"/>
<path d="M8.87864 9.3496C8.5999 9.51053 8.27098 9.56116 7.95675 9.4915C7.64252 9.42183 7.36581 9.23694 7.1812 8.97329C6.99659 8.70964 6.91749 8.38638 6.9595 8.06728C7.00151 7.74817 7.16158 7.4564 7.40814 7.24951L8.23525 8.23524L8.87864 9.3496Z" fill="#9CA3AF" stroke="#9CA3AF" stroke-width="1.23529" stroke-linecap="round" stroke-linejoin="round"/>
<path d="M3.86035 1.80151L12.6104 14.6692" stroke="#9CA3AF" stroke-width="1.23529" stroke-linecap="round" stroke-linejoin="round"/>
</svg>
