<svg width="17" height="17" viewBox="0 0 17 17" fill="none" xmlns="http://www.w3.org/2000/svg">
<path d="M9.00764 3.86035C12.6106 4.37506 14.6694 8.23535 14.6694 8.23535C14.6694 8.23535 14.1547 9.52212 13.1253 10.5515M10.5518 12.0956C4.37529 14.1545 1.80176 8.23535 1.80176 8.23535C1.80176 8.23535 2.31646 6.43388 4.88999 4.88976" stroke="#9CA3AF" stroke-width="1.17647" stroke-linecap="round" stroke-linejoin="round"/>
<path d="M8.87839 9.3496C8.59966 9.51053 8.27073 9.56116 7.9565 9.4915C7.64228 9.42183 7.36556 9.23694 7.18095 8.97329C6.99634 8.70964 6.91724 8.38638 6.95925 8.06728C7.00127 7.74817 7.16134 7.4564 7.4079 7.24951L8.23501 8.23524L8.87839 9.3496Z" fill="#9CA3AF" stroke="#9CA3AF" stroke-width="1.76471" stroke-linecap="round" stroke-linejoin="round"/>
<path d="M3.86035 1.80151L12.6104 14.6692" stroke="#9CA3AF" stroke-width="1.17647" stroke-linecap="round" stroke-linejoin="round"/>
</svg>
