<svg width="25" height="25" viewBox="0 0 25 25" fill="none" xmlns="http://www.w3.org/2000/svg">
<path fill-rule="evenodd" clip-rule="evenodd" d="M19.5312 19.7156C20.0109 19.2859 20.3125 18.6624 20.3125 17.9687V10.9015C20.3126 10.5425 20.2302 10.1883 20.0717 9.86617C19.9133 9.54406 19.6829 9.26266 19.3984 9.04367L13.9297 4.83742C13.5199 4.52194 13.0172 4.35087 12.5 4.35087C11.9828 4.35087 11.4801 4.52194 11.0703 4.83742L5.60156 9.04367C5.31689 9.26282 5.0864 9.54447 4.92791 9.86687C4.76942 10.1893 4.68717 10.5438 4.6875 10.9031V17.9687C4.68668 18.2758 4.74638 18.58 4.86319 18.864C4.98 19.1481 5.15163 19.4063 5.36827 19.6239C5.58491 19.8416 5.84232 20.0144 6.12578 20.1326C6.40925 20.2507 6.71322 20.3118 7.02031 20.3124H7.8125V14.8437C7.8125 14.0149 8.14174 13.22 8.72779 12.634C9.31384 12.0479 10.1087 11.7187 10.9375 11.7187H14.0625C14.8913 11.7187 15.6862 12.0479 16.2722 12.634C16.8583 13.22 17.1875 14.0149 17.1875 14.8437V20.3124H17.9797C18.575 20.3093 19.1203 20.0843 19.5312 19.7156ZM22.6562 17.9687C22.6562 19.2119 22.1624 20.4042 21.2833 21.2832C20.4042 22.1623 19.212 22.6562 17.9688 22.6562H7.03125C5.78805 22.6562 4.59576 22.1623 3.71669 21.2832C2.83761 20.4042 2.34375 19.2119 2.34375 17.9687V10.9015C2.3438 10.1838 2.50866 9.47565 2.82561 8.83172C3.14257 8.18778 3.60316 7.62523 4.17188 7.18742L9.64063 2.98117C10.4603 2.3502 11.4656 2.00806 12.5 2.00806C13.5344 2.00806 14.5397 2.3502 15.3594 2.98117L20.8281 7.18742C21.3971 7.62539 21.8578 8.1882 22.1747 8.83242C22.4917 9.47665 22.6564 10.1851 22.6562 10.9031V17.9687ZM14.8438 14.8437C14.8438 14.6365 14.7614 14.4378 14.6149 14.2912C14.4684 14.1447 14.2697 14.0624 14.0625 14.0624H10.9375C10.7303 14.0624 10.5316 14.1447 10.3851 14.2912C10.2386 14.4378 10.1562 14.6365 10.1562 14.8437V20.3124H14.8438V14.8437Z" fill="#4B5563"/>
</svg>
