<svg width="15" height="18" viewBox="0 0 15 18" fill="none" xmlns="http://www.w3.org/2000/svg">
<path d="M12.4492 9.36167C12.4414 7.91016 13.0898 6.8146 14.4023 6.00776C13.668 4.94385 12.5586 4.3585 11.0938 4.2438C9.70703 4.13306 8.19141 5.0625 7.63672 5.0625C7.05078 5.0625 5.70703 4.28335 4.65234 4.28335C2.47266 4.31895 0.15625 6.04336 0.15625 9.55151C0.15625 10.5877 0.34375 11.6583 0.71875 12.763C1.21875 14.2146 3.02344 17.7741 4.90625 17.7148C5.89062 17.6911 6.58594 17.0068 7.86719 17.0068C9.10938 17.0068 9.75391 17.7148 10.8516 17.7148C12.75 17.6871 14.3828 14.4519 14.8594 12.9964C12.3125 11.7822 12.4492 9.43682 12.4492 9.36167ZM10.2383 2.86743C11.3047 1.58599 11.207 0.419238 11.1758 0C10.2344 0.0553711 9.14453 0.648633 8.52344 1.38032C7.83984 2.16343 7.4375 3.13242 7.52344 4.22402C8.54297 4.30312 9.47266 3.77314 10.2383 2.86743Z" fill="#9CA3AF"/>
</svg>
