<svg width="20" height="20" viewBox="0 0 20 20" fill="none" xmlns="http://www.w3.org/2000/svg">
<path d="M10.0002 14.1667L8.75015 15.4167C8.19757 15.9691 7.44819 16.2794 6.66682 16.2794C5.88545 16.2794 5.13607 15.9691 4.58349 15.4167C4.03105 14.8641 3.7207 14.1147 3.7207 13.3333C3.7207 12.552 4.03105 11.8026 4.58349 11.25L7.08349 8.74999C7.63607 8.19755 8.38545 7.88721 9.16682 7.88721C9.94819 7.88721 10.6976 8.19755 11.2502 8.74999" stroke="url(#paint0_linear_486_2775)" stroke-width="1.5" stroke-linecap="round"/>
<path d="M10 5.83324L11.25 4.58324C11.8026 4.0308 12.552 3.72046 13.3333 3.72046C14.1147 3.72046 14.8641 4.0308 15.4167 4.58324C15.9691 5.13583 16.2795 5.88521 16.2795 6.66658C16.2795 7.44795 15.9691 8.19733 15.4167 8.74991L12.9167 11.2499C12.3641 11.8023 11.6147 12.1127 10.8333 12.1127C10.052 12.1127 9.30258 11.8023 8.75 11.2499" stroke="url(#paint1_linear_486_2775)" stroke-width="1.5" stroke-linecap="round"/>
<defs>
<linearGradient id="paint0_linear_486_2775" x1="3.7207" y1="12.0833" x2="11.2502" y2="12.0833" gradientUnits="userSpaceOnUse">
<stop stop-color="#A855F7"/>
<stop offset="0.754808" stop-color="#3B82F6"/>
</linearGradient>
<linearGradient id="paint1_linear_486_2775" x1="8.75" y1="7.91658" x2="16.2795" y2="7.91658" gradientUnits="userSpaceOnUse">
<stop stop-color="#A855F7"/>
<stop offset="0.754808" stop-color="#3B82F6"/>
</linearGradient>
</defs>
</svg>
