<svg width="20" height="20" viewBox="0 0 20 20" fill="none" xmlns="http://www.w3.org/2000/svg">
<path d="M8.42917 18.1759C8.93417 18.5925 9.46083 18.9734 10 19.345C10.5403 18.9783 11.0644 18.5882 11.5708 18.1759C12.415 17.4827 13.2095 16.7312 13.9483 15.9267C15.6517 14.0642 17.5 11.3642 17.5 8.33337C17.5 7.34846 17.306 6.37319 16.9291 5.46325C16.5522 4.55331 15.9997 3.72651 15.3033 3.03007C14.6069 2.33363 13.7801 1.78119 12.8701 1.40428C11.9602 1.02737 10.9849 0.833374 10 0.833374C9.01509 0.833374 8.03982 1.02737 7.12987 1.40428C6.21993 1.78119 5.39314 2.33363 4.6967 3.03007C4.00026 3.72651 3.44781 4.55331 3.0709 5.46325C2.69399 6.37319 2.5 7.34846 2.5 8.33337C2.5 11.3642 4.34833 14.0634 6.05167 15.9267C6.79052 16.7314 7.58497 17.4825 8.42917 18.1759ZM10 11.0417C9.28171 11.0417 8.59283 10.7564 8.08492 10.2485C7.57701 9.74054 7.29167 9.05167 7.29167 8.33337C7.29167 7.61508 7.57701 6.9262 8.08492 6.41829C8.59283 5.91038 9.28171 5.62504 10 5.62504C10.7183 5.62504 11.4072 5.91038 11.9151 6.41829C12.423 6.9262 12.7083 7.61508 12.7083 8.33337C12.7083 9.05167 12.423 9.74054 11.9151 10.2485C11.4072 10.7564 10.7183 11.0417 10 11.0417Z" fill="#6B7280"/>
</svg>
