<svg width="18" height="28" viewBox="0 0 18 28" fill="none" xmlns="http://www.w3.org/2000/svg">
<path d="M3.75 3.5C1.67969 3.5 0 5.17969 0 7.25V19.75C0 21.8203 1.67969 23.5 3.75 23.5H15H16.25C16.9414 23.5 17.5 22.9414 17.5 22.25C17.5 21.5586 16.9414 21 16.25 21V18.5C16.9414 18.5 17.5 17.9414 17.5 17.25V4.75C17.5 4.05859 16.9414 3.5 16.25 3.5H15H3.75ZM3.75 18.5H13.75V21H3.75C3.05859 21 2.5 20.4414 2.5 19.75C2.5 19.0586 3.05859 18.5 3.75 18.5ZM5 9.125C5 8.78125 5.28125 8.5 5.625 8.5H13.125C13.4688 8.5 13.75 8.78125 13.75 9.125C13.75 9.46875 13.4688 9.75 13.125 9.75H5.625C5.28125 9.75 5 9.46875 5 9.125ZM5.625 11H13.125C13.4688 11 13.75 11.2812 13.75 11.625C13.75 11.9688 13.4688 12.25 13.125 12.25H5.625C5.28125 12.25 5 11.9688 5 11.625C5 11.2812 5.28125 11 5.625 11Z" fill="#4B5563"/>
</svg>
