<svg width="210" height="209" viewBox="0 0 210 209" fill="none" xmlns="http://www.w3.org/2000/svg">
<circle opacity="0.12" cx="62" cy="66.6519" r="34" fill="url(#paint0_linear_286_918)"/>
<g filter="url(#filter0_d_286_918)">
<path d="M63.2806 44.5477C65.1162 42.712 67.7589 41.795 71.0905 41.6875L71.7659 41.6764H71.7907L71.8156 41.6778L151.353 46.9804C154.986 46.9867 157.849 47.8997 159.801 49.851C161.752 51.8021 162.664 54.6648 162.671 58.2976L167.974 137.836L167.975 137.861V137.886C167.975 141.537 167.062 144.413 165.104 146.371C163.146 148.329 160.27 149.242 156.619 149.242C152.968 149.242 150.091 148.329 148.133 146.371C146.175 144.413 145.262 141.537 145.262 137.886V74.2462C145.262 70.8262 144.408 68.399 142.83 66.8215C141.253 65.244 138.825 64.3895 135.405 64.3895H71.7659C68.1147 64.3895 65.2386 63.4763 63.2806 61.5182C61.3226 59.5602 60.4093 56.6841 60.4093 53.033C60.4093 49.3818 61.3226 46.5057 63.2806 44.5477Z" fill="url(#paint1_linear_286_918)" stroke="url(#paint2_linear_286_918)" stroke-width="1.5"/>
<path d="M85.6607 63.746C89.4097 59.9969 95.4876 59.9969 99.2366 63.746C102.986 67.495 102.986 73.5728 99.2366 77.3219L44.0823 132.476C40.3332 136.225 34.2554 136.225 30.5064 132.476C26.7573 128.727 26.7573 122.649 30.5064 118.9L85.6607 63.746Z" fill="url(#paint3_linear_286_918)" stroke="url(#paint4_linear_286_918)" stroke-width="1.2"/>
<path d="M108.995 87.0802C112.744 83.3311 118.822 83.3312 122.571 87.0802C126.32 90.8292 126.32 96.907 122.571 100.656L67.4169 155.81C63.6678 159.559 57.59 159.559 53.841 155.81C50.0919 152.061 50.0919 145.984 53.841 142.235L108.995 87.0802Z" fill="url(#paint5_linear_286_918)" stroke="url(#paint6_linear_286_918)" stroke-width="1.2"/>
<path d="M132.33 110.415C136.079 106.666 142.157 106.666 145.906 110.415C149.655 114.164 149.655 120.242 145.906 123.991L90.7515 179.145C87.0024 182.894 80.9246 182.894 77.1756 179.145C73.4265 175.396 73.4265 169.318 77.1756 165.569L132.33 110.415Z" fill="url(#paint7_linear_286_918)" stroke="url(#paint8_linear_286_918)" stroke-width="1.2"/>
</g>
<g filter="url(#filter1_di_286_918)">
<path d="M101.394 108.046L104.788 109.404L108.182 108.046L106.825 111.44L108.182 114.834L104.788 113.477L101.394 114.834L102.752 111.44L101.394 108.046Z" fill="url(#paint9_linear_286_918)" fill-opacity="0.5" shape-rendering="crispEdges"/>
<path d="M104.566 109.961L104.789 110.05L105.011 109.96L107.105 109.123L106.268 111.217L106.179 111.44L106.268 111.663L107.105 113.757L105.011 112.92L104.789 112.83L104.566 112.919L102.471 113.757L103.309 111.663L103.399 111.44L103.309 111.218L102.471 109.123L104.566 109.961Z" stroke="white" stroke-opacity="0.3" stroke-width="1.2" shape-rendering="crispEdges"/>
</g>
<g filter="url(#filter2_d_286_918)">
<path d="M131.105 100.403L143.833 105.494L156.561 100.403L151.469 113.131L156.561 125.859L143.833 120.768L131.105 125.859L136.196 113.131L131.105 100.403Z" fill="url(#paint10_linear_286_918)"/>
<path d="M130.256 99.5543C130.595 99.2149 131.104 99.1109 131.55 99.2891L143.832 104.202L156.115 99.2891C156.561 99.1109 157.07 99.2149 157.409 99.5543C157.749 99.8937 157.853 100.403 157.674 100.848L152.761 113.131L157.674 125.413C157.853 125.859 157.749 126.368 157.409 126.707C157.07 127.047 156.561 127.151 156.115 126.973L143.832 122.06L131.55 126.973C131.104 127.151 130.595 127.047 130.256 126.707C129.917 126.368 129.813 125.859 129.991 125.413L134.903 113.131L129.991 100.848L129.937 100.678C129.842 100.278 129.959 99.8512 130.256 99.5543Z" stroke="white" stroke-opacity="0.8" stroke-width="2.4" stroke-linejoin="round"/>
</g>
<circle opacity="0.6" cx="45.5" cy="95.1519" r="12.5" fill="url(#paint11_linear_286_918)"/>
<g opacity="0.1" filter="url(#filter3_d_286_918)">
<path d="M51.5 93.1519C53.433 93.1519 55 91.5849 55 89.6519C55 87.7189 53.433 86.1519 51.5 86.1519C49.567 86.1519 48 87.7189 48 89.6519C48 91.5849 49.567 93.1519 51.5 93.1519Z" fill="white"/>
<path d="M51.5 85.6519C53.7091 85.6519 55.5 87.4427 55.5 89.6519C55.5 91.861 53.7091 93.6519 51.5 93.6519C49.2909 93.6519 47.5 91.861 47.5 89.6519C47.5 87.4427 49.2909 85.6519 51.5 85.6519Z" stroke="white"/>
</g>
<g opacity="0.7">
<circle cx="49" cy="88.1519" r="2" fill="white" fill-opacity="0.3"/>
<circle cx="49" cy="88.1519" r="2.25" stroke="white" stroke-opacity="0.5" stroke-width="0.5"/>
</g>
<circle opacity="0.12" cx="161.5" cy="90.1519" r="17.5" fill="url(#paint12_linear_286_918)"/>
<rect x="6" y="15.6526" width="187" height="187" rx="41" stroke="url(#paint13_linear_286_918)" stroke-width="12"/>
<defs>
<filter id="filter0_d_286_918" x="22.2944" y="40.9263" width="151.231" height="151.231" filterUnits="userSpaceOnUse" color-interpolation-filters="sRGB">
<feFlood flood-opacity="0" result="BackgroundImageFix"/>
<feColorMatrix in="SourceAlpha" type="matrix" values="0 0 0 0 0 0 0 0 0 0 0 0 0 0 0 0 0 0 127 0" result="hardAlpha"/>
<feOffset dy="4.8"/>
<feGaussianBlur stdDeviation="2.4"/>
<feComposite in2="hardAlpha" operator="out"/>
<feColorMatrix type="matrix" values="0 0 0 0 0 0 0 0 0 0 0 0 0 0 0 0 0 0 0.25 0"/>
<feBlend mode="normal" in2="BackgroundImageFix" result="effect1_dropShadow_286_918"/>
<feBlend mode="normal" in="SourceGraphic" in2="effect1_dropShadow_286_918" result="shape"/>
</filter>
<filter id="filter1_di_286_918" x="44.9942" y="51.6461" width="121.988" height="121.988" filterUnits="userSpaceOnUse" color-interpolation-filters="sRGB">
<feFlood flood-opacity="0" result="BackgroundImageFix"/>
<feColorMatrix in="SourceAlpha" type="matrix" values="0 0 0 0 0 0 0 0 0 0 0 0 0 0 0 0 0 0 127 0" result="hardAlpha"/>
<feMorphology radius="57.6" operator="dilate" in="SourceAlpha" result="effect1_dropShadow_286_918"/>
<feOffset dx="1.2" dy="1.2"/>
<feComposite in2="hardAlpha" operator="out"/>
<feColorMatrix type="matrix" values="0 0 0 0 1 0 0 0 0 1 0 0 0 0 1 0 0 0 0.2 0"/>
<feBlend mode="normal" in2="BackgroundImageFix" result="effect1_dropShadow_286_918"/>
<feBlend mode="normal" in="SourceGraphic" in2="effect1_dropShadow_286_918" result="shape"/>
<feColorMatrix in="SourceAlpha" type="matrix" values="0 0 0 0 0 0 0 0 0 0 0 0 0 0 0 0 0 0 127 0" result="hardAlpha"/>
<feOffset dy="4.8"/>
<feGaussianBlur stdDeviation="2.4"/>
<feComposite in2="hardAlpha" operator="arithmetic" k2="-1" k3="1"/>
<feColorMatrix type="matrix" values="0 0 0 0 1 0 0 0 0 1 0 0 0 0 1 0 0 0 0.3 0"/>
<feBlend mode="normal" in2="shape" result="effect2_innerShadow_286_918"/>
</filter>
<filter id="filter2_d_286_918" x="123.905" y="98.0029" width="39.856" height="39.8559" filterUnits="userSpaceOnUse" color-interpolation-filters="sRGB">
<feFlood flood-opacity="0" result="BackgroundImageFix"/>
<feColorMatrix in="SourceAlpha" type="matrix" values="0 0 0 0 0 0 0 0 0 0 0 0 0 0 0 0 0 0 127 0" result="hardAlpha"/>
<feOffset dy="4.8"/>
<feGaussianBlur stdDeviation="2.4"/>
<feComposite in2="hardAlpha" operator="out"/>
<feColorMatrix type="matrix" values="0 0 0 0 0 0 0 0 0 0 0 0 0 0 0 0 0 0 0.25 0"/>
<feBlend mode="normal" in2="BackgroundImageFix" result="effect1_dropShadow_286_918"/>
<feBlend mode="normal" in="SourceGraphic" in2="effect1_dropShadow_286_918" result="shape"/>
</filter>
<filter id="filter3_d_286_918" x="43" y="85.1519" width="17" height="17" filterUnits="userSpaceOnUse" color-interpolation-filters="sRGB">
<feFlood flood-opacity="0" result="BackgroundImageFix"/>
<feColorMatrix in="SourceAlpha" type="matrix" values="0 0 0 0 0 0 0 0 0 0 0 0 0 0 0 0 0 0 127 0" result="hardAlpha"/>
<feOffset dy="4"/>
<feGaussianBlur stdDeviation="2"/>
<feComposite in2="hardAlpha" operator="out"/>
<feColorMatrix type="matrix" values="0 0 0 0 0 0 0 0 0 0 0 0 0 0 0 0 0 0 0.25 0"/>
<feBlend mode="normal" in2="BackgroundImageFix" result="effect1_dropShadow_286_918"/>
<feBlend mode="normal" in="SourceGraphic" in2="effect1_dropShadow_286_918" result="shape"/>
</filter>
<linearGradient id="paint0_linear_286_918" x1="96" y1="62.1185" x2="34.8" y2="79.1185" gradientUnits="userSpaceOnUse">
<stop stop-color="#A855F7"/>
<stop offset="0.754808" stop-color="#3B82F6"/>
</linearGradient>
<linearGradient id="paint1_linear_286_918" x1="83.8438" y1="81.0208" x2="154.846" y2="20.3046" gradientUnits="userSpaceOnUse">
<stop offset="0.0865385" stop-color="#A855F7"/>
<stop offset="0.995192" stop-color="#3B82F6"/>
</linearGradient>
<linearGradient id="paint2_linear_286_918" x1="82.3725" y1="26.5165" x2="183.135" y2="127.279" gradientUnits="userSpaceOnUse">
<stop stop-color="white"/>
<stop offset="1" stop-color="#9333EA" stop-opacity="0.3"/>
</linearGradient>
<linearGradient id="paint3_linear_286_918" x1="28.1017" y1="129.224" x2="121.529" y2="118.338" gradientUnits="userSpaceOnUse">
<stop offset="0.0865385" stop-color="#A855F7"/>
<stop offset="0.995192" stop-color="#3B82F6"/>
</linearGradient>
<linearGradient id="paint4_linear_286_918" x1="58.5075" y1="91.7471" x2="71.2355" y2="104.475" gradientUnits="userSpaceOnUse">
<stop stop-color="white"/>
<stop offset="1" stop-color="#9333EA" stop-opacity="0.3"/>
</linearGradient>
<linearGradient id="paint5_linear_286_918" x1="51.4363" y1="152.558" x2="144.863" y2="141.673" gradientUnits="userSpaceOnUse">
<stop offset="0.0865385" stop-color="#A855F7"/>
<stop offset="0.995192" stop-color="#3B82F6"/>
</linearGradient>
<linearGradient id="paint6_linear_286_918" x1="81.8421" y1="115.081" x2="94.57" y2="127.809" gradientUnits="userSpaceOnUse">
<stop stop-color="white"/>
<stop offset="1" stop-color="#9333EA" stop-opacity="0.3"/>
</linearGradient>
<linearGradient id="paint7_linear_286_918" x1="74.7709" y1="175.892" x2="168.198" y2="165.007" gradientUnits="userSpaceOnUse">
<stop offset="0.0865385" stop-color="#A855F7"/>
<stop offset="0.995192" stop-color="#3B82F6"/>
</linearGradient>
<linearGradient id="paint8_linear_286_918" x1="105.177" y1="138.416" x2="117.905" y2="151.144" gradientUnits="userSpaceOnUse">
<stop stop-color="white"/>
<stop offset="1" stop-color="#9333EA" stop-opacity="0.3"/>
</linearGradient>
<linearGradient id="paint9_linear_286_918" x1="99.8855" y1="113.326" x2="109.007" y2="108.311" gradientUnits="userSpaceOnUse">
<stop offset="0.0865385" stop-color="#A855F7"/>
<stop offset="0.995192" stop-color="#3B82F6"/>
</linearGradient>
<linearGradient id="paint10_linear_286_918" x1="125.447" y1="120.201" x2="159.654" y2="101.397" gradientUnits="userSpaceOnUse">
<stop offset="0.0865385" stop-color="#A855F7"/>
<stop offset="0.995192" stop-color="#3B82F6"/>
</linearGradient>
<linearGradient id="paint11_linear_286_918" x1="58" y1="93.4852" x2="35.5" y2="99.7352" gradientUnits="userSpaceOnUse">
<stop stop-color="#A855F7"/>
<stop offset="0.754808" stop-color="#3B82F6"/>
</linearGradient>
<linearGradient id="paint12_linear_286_918" x1="179" y1="87.8185" x2="147.5" y2="96.5685" gradientUnits="userSpaceOnUse">
<stop stop-color="#A855F7"/>
<stop offset="0.754808" stop-color="#3B82F6"/>
</linearGradient>
<linearGradient id="paint13_linear_286_918" x1="12" y1="109.153" x2="187" y2="109.153" gradientUnits="userSpaceOnUse">
<stop stop-color="#A855F7"/>
<stop offset="0.754808" stop-color="#3B82F6"/>
</linearGradient>
</defs>
</svg>
