<svg width="29" height="29" viewBox="0 0 29 29" fill="none" xmlns="http://www.w3.org/2000/svg">
<g filter="url(#filter0_d_65_354)">
<rect x="2" width="25" height="25" rx="5" fill="#22C55E"/>
<path d="M22 14V17H19V16H20.4844C20.25 15.6875 19.9583 15.4427 19.6094 15.2656C19.2604 15.0885 18.8906 15 18.5 15C18.1927 15 17.9036 15.0521 17.6328 15.1562C17.362 15.2604 17.1146 15.4036 16.8906 15.5859C16.6667 15.7682 16.4844 15.9896 16.3438 16.25C16.2031 16.5104 16.1042 16.7891 16.0469 17.0859L15.0547 16.9141C15.1276 16.4922 15.2682 16.1042 15.4766 15.75C15.6849 15.3958 15.9401 15.0885 16.2422 14.8281C16.5443 14.5677 16.8906 14.3646 17.2812 14.2188C17.6719 14.0729 18.0781 14 18.5 14C18.974 14 19.4271 14.0911 19.8594 14.2734C20.2917 14.4557 20.6719 14.7214 21 15.0703V14H22ZM18.5 20C18.8021 20 19.0911 19.9479 19.3672 19.8438C19.6432 19.7396 19.8906 19.5964 20.1094 19.4141C20.3281 19.2318 20.5104 19.0104 20.6562 18.75C20.8021 18.4896 20.901 18.2109 20.9531 17.9141L21.9453 18.0859C21.8724 18.5078 21.7318 18.8958 21.5234 19.25C21.3151 19.6042 21.0599 19.9115 20.7578 20.1719C20.4557 20.4323 20.1094 20.6354 19.7188 20.7812C19.3281 20.9271 18.9219 21 18.5 21C18.026 21 17.5729 20.9089 17.1406 20.7266C16.7083 20.5443 16.3281 20.2786 16 19.9297V21H15V18H18V19H16.5156C16.75 19.3125 17.0417 19.5573 17.3906 19.7344C17.7396 19.9115 18.1094 20 18.5 20ZM10.5 13.2891L15.3984 8.39844L16.1016 9.10156L10.5 14.7109L7.89844 12.1016L8.60156 11.3984L10.5 13.2891ZM7 16H14.125C14.0677 16.1615 14.0208 16.3255 13.9844 16.4922C13.9479 16.6589 13.9219 16.8281 13.9062 17H6V5H18V12.9062C17.8281 12.9219 17.6589 12.9479 17.4922 12.9844C17.3255 13.0208 17.1615 13.0677 17 13.125V6H7V16Z" fill="white"/>
</g>
<defs>
<filter id="filter0_d_65_354" x="0" y="0" width="29" height="29" filterUnits="userSpaceOnUse" color-interpolation-filters="sRGB">
<feFlood flood-opacity="0" result="BackgroundImageFix"/>
<feColorMatrix in="SourceAlpha" type="matrix" values="0 0 0 0 0 0 0 0 0 0 0 0 0 0 0 0 0 0 127 0" result="hardAlpha"/>
<feOffset dy="2"/>
<feGaussianBlur stdDeviation="1"/>
<feComposite in2="hardAlpha" operator="out"/>
<feColorMatrix type="matrix" values="0 0 0 0 0 0 0 0 0 0 0 0 0 0 0 0 0 0 0.25 0"/>
<feBlend mode="normal" in2="BackgroundImageFix" result="effect1_dropShadow_65_354"/>
<feBlend mode="normal" in="SourceGraphic" in2="effect1_dropShadow_65_354" result="shape"/>
</filter>
</defs>
</svg>
