<svg width="24" height="24" viewBox="0 0 24 24" fill="none" xmlns="http://www.w3.org/2000/svg">
<path d="M12 7C11.264 7 10.687 7.649 10.756 8.4L11.25 12.55C11.265 12.7393 11.3503 12.9161 11.4891 13.0456C11.6279 13.1752 11.8101 13.2481 12 13.25C12.1899 13.2481 12.3721 13.1752 12.5109 13.0456C12.6497 12.9161 12.735 12.7393 12.75 12.55L13.244 8.4C13.314 7.65 12.736 7 12 7ZM12 17C12.3315 17 12.6495 16.8683 12.8839 16.6339C13.1183 16.3995 13.25 16.0815 13.25 15.75C13.25 15.4185 13.1183 15.1005 12.8839 14.8661C12.6495 14.6317 12.3315 14.5 12 14.5C11.6685 14.5 11.3505 14.6317 11.1161 14.8661C10.8817 15.1005 10.75 15.4185 10.75 15.75C10.75 16.0815 10.8817 16.3995 11.1161 16.6339C11.3505 16.8683 11.6685 17 12 17Z" fill="#9CA3AF"/>
<path d="M12 4.75C11.0479 4.75 10.1052 4.93753 9.22554 5.30187C8.34593 5.66622 7.5467 6.20025 6.87348 6.87348C6.20025 7.5467 5.66622 8.34593 5.30187 9.22554C4.93753 10.1052 4.75 11.0479 4.75 12C4.75 12.9521 4.93753 13.8948 5.30187 14.7745C5.66622 15.6541 6.20025 16.4533 6.87348 17.1265C7.5467 17.7997 8.34593 18.3338 9.22554 18.6981C10.1052 19.0625 11.0479 19.25 12 19.25C13.9228 19.25 15.7669 18.4862 17.1265 17.1265C18.4862 15.7669 19.25 13.9228 19.25 12C19.25 10.0772 18.4862 8.23311 17.1265 6.87348C15.7669 5.51384 13.9228 4.75 12 4.75ZM3.25 12C3.25 9.67936 4.17187 7.45376 5.81282 5.81282C7.45376 4.17187 9.67936 3.25 12 3.25C14.3206 3.25 16.5462 4.17187 18.1872 5.81282C19.8281 7.45376 20.75 9.67936 20.75 12C20.75 14.3206 19.8281 16.5462 18.1872 18.1872C16.5462 19.8281 14.3206 20.75 12 20.75C9.67936 20.75 7.45376 19.8281 5.81282 18.1872C4.17187 16.5462 3.25 14.3206 3.25 12Z" fill="#9CA3AF"/>
</svg>
