<svg width="36" height="36" viewBox="0 0 36 36" fill="none" xmlns="http://www.w3.org/2000/svg">
<path d="M17.8743 9.25C17.2521 9.25 16.7493 9.75273 16.7493 10.375V11.05C14.1829 11.5703 12.2493 13.8414 12.2493 16.5625V17.2234C12.2493 18.8758 11.6411 20.4719 10.5442 21.7094L10.2841 22.0012C9.98878 22.3316 9.91847 22.8063 10.0978 23.2105C10.2771 23.6148 10.6814 23.875 11.1243 23.875H24.6243C25.0673 23.875 25.4681 23.6148 25.6509 23.2105C25.8337 22.8063 25.7599 22.3316 25.4646 22.0012L25.2044 21.7094C24.1075 20.4719 23.4993 18.8793 23.4993 17.2234V16.5625C23.4993 13.8414 21.5657 11.5703 18.9993 11.05V10.375C18.9993 9.75273 18.4966 9.25 17.8743 9.25ZM19.4669 26.5926C19.8888 26.1707 20.1243 25.5977 20.1243 25H17.8743H15.6243C15.6243 25.5977 15.8599 26.1707 16.2817 26.5926C16.7036 27.0145 17.2767 27.25 17.8743 27.25C18.472 27.25 19.045 27.0145 19.4669 26.5926Z" fill="#4B5563"/>
</svg>
