<svg width="36" height="36" viewBox="0 0 36 36" fill="none" xmlns="http://www.w3.org/2000/svg">
<path d="M17.8748 9.25C17.2525 9.25 16.7498 9.75273 16.7498 10.375V11.05C14.1834 11.5703 12.2498 13.8414 12.2498 16.5625V17.2234C12.2498 18.8758 11.6416 20.4719 10.5447 21.7094L10.2846 22.0012C9.98927 22.3316 9.91896 22.8063 10.0983 23.2105C10.2775 23.6148 10.6818 23.875 11.1248 23.875H24.6248C25.0678 23.875 25.4686 23.6148 25.6514 23.2105C25.8342 22.8063 25.7604 22.3316 25.465 22.0012L25.2049 21.7094C24.108 20.4719 23.4998 18.8793 23.4998 17.2234V16.5625C23.4998 13.8414 21.5662 11.5703 18.9998 11.05V10.375C18.9998 9.75273 18.4971 9.25 17.8748 9.25ZM19.4674 26.5926C19.8893 26.1707 20.1248 25.5977 20.1248 25H17.8748H15.6248C15.6248 25.5977 15.8604 26.1707 16.2822 26.5926C16.7041 27.0145 17.2772 27.25 17.8748 27.25C18.4725 27.25 19.0455 27.0145 19.4674 26.5926Z" fill="#4B5563"/>
</svg>
