<svg width="40" height="47" viewBox="0 0 40 47" fill="none" xmlns="http://www.w3.org/2000/svg">
<g filter="url(#filter0_dd_211_152)">
<rect x="8" y="5" width="24" height="30" rx="12" fill="url(#paint0_linear_211_152)"/>
<path d="M18.4505 16.364C17.981 16.364 17.6 16.745 17.6 17.2145V22.3175C17.6 22.7871 17.981 23.168 18.4505 23.168H19.0175C19.487 23.168 19.868 22.7871 19.868 22.3175V17.2145C19.868 16.745 19.487 16.364 19.0175 16.364H18.4505ZM21.8525 16.364C21.383 16.364 21.002 16.745 21.002 17.2145V22.3175C21.002 22.7871 21.383 23.168 21.8525 23.168H22.4195C22.889 23.168 23.27 22.7871 23.27 22.3175V17.2145C23.27 16.745 22.889 16.364 22.4195 16.364H21.8525Z" fill="white"/>
</g>
<defs>
<filter id="filter0_dd_211_152" x="0.8" y="0.48" width="38.4" height="45.52" filterUnits="userSpaceOnUse" color-interpolation-filters="sRGB">
<feFlood flood-opacity="0" result="BackgroundImageFix"/>
<feColorMatrix in="SourceAlpha" type="matrix" values="0 0 0 0 0 0 0 0 0 0 0 0 0 0 0 0 0 0 127 0" result="hardAlpha"/>
<feOffset dy="5.04"/>
<feGaussianBlur stdDeviation="3.6"/>
<feColorMatrix type="matrix" values="0 0 0 0 0 0 0 0 0 0 0 0 0 0 0 0 0 0 0.1 0"/>
<feBlend mode="normal" in2="BackgroundImageFix" result="effect1_dropShadow_211_152"/>
<feColorMatrix in="SourceAlpha" type="matrix" values="0 0 0 0 0 0 0 0 0 0 0 0 0 0 0 0 0 0 127 0" result="hardAlpha"/>
<feOffset dy="2.016"/>
<feGaussianBlur stdDeviation="1.512"/>
<feColorMatrix type="matrix" values="0 0 0 0 0 0 0 0 0 0 0 0 0 0 0 0 0 0 0.1 0"/>
<feBlend mode="normal" in2="effect1_dropShadow_211_152" result="effect2_dropShadow_211_152"/>
<feBlend mode="normal" in="SourceGraphic" in2="effect2_dropShadow_211_152" result="shape"/>
</filter>
<linearGradient id="paint0_linear_211_152" x1="8" y1="20" x2="32" y2="20" gradientUnits="userSpaceOnUse">
<stop stop-color="#EF4444"/>
<stop offset="1" stop-color="#DC2626"/>
</linearGradient>
</defs>
</svg>
