<svg width="14" height="14" viewBox="0 0 14 14" fill="none" xmlns="http://www.w3.org/2000/svg">
<path d="M7.00033 1.16675C3.78383 1.16675 1.16699 3.78358 1.16699 7.00008C1.16699 10.2166 3.78383 12.8334 7.00033 12.8334C10.2168 12.8334 12.8337 10.2166 12.8337 7.00008C12.8337 3.78358 10.2168 1.16675 7.00033 1.16675ZM7.00033 11.6667C4.42724 11.6667 2.33366 9.57316 2.33366 7.00008C2.33366 4.427 4.42724 2.33341 7.00033 2.33341C9.57341 2.33341 11.667 4.427 11.667 7.00008C11.667 9.57316 9.57341 11.6667 7.00033 11.6667Z" fill="#9CA3AF"/>
<path d="M7 3.01344V6.99994H10.9865C10.9878 6.47606 10.8856 5.95708 10.6857 5.47283C10.4858 4.98857 10.1922 4.54858 9.8218 4.17814C9.45136 3.8077 9.01137 3.51411 8.52711 3.31423C8.04286 3.11435 7.52388 3.01213 7 3.01344Z" fill="#9CA3AF"/>
</svg>
