<svg width="20" height="28" viewBox="0 0 20 28" fill="none" xmlns="http://www.w3.org/2000/svg">
<path d="M5.94141 4.99216C6.32813 5.33982 6.35938 5.92966 6.01172 6.31638L3.19922 9.44138C3.02734 9.63279 2.78516 9.74607 2.52734 9.74997C2.26953 9.75388 2.02344 9.65622 1.83984 9.47654L0.273438 7.91404C-0.0898438 7.54685 -0.0898438 6.9531 0.273438 6.58591C0.636719 6.21872 1.23438 6.21872 1.59766 6.58591L2.46094 7.44919L4.61328 5.05857C4.96094 4.67185 5.55078 4.6406 5.9375 4.98825L5.94141 4.99216ZM5.94141 11.2422C6.32813 11.5898 6.35938 12.1797 6.01172 12.5664L3.19922 15.6914C3.02734 15.8828 2.78516 15.9961 2.52734 16C2.26953 16.0039 2.02344 15.9062 1.83984 15.7265L0.273438 14.164C-0.09375 13.7968 -0.09375 13.2031 0.273438 12.8398C0.640625 12.4765 1.23438 12.4726 1.59766 12.8398L2.46094 13.7031L4.61328 11.3125C4.96094 10.9258 5.55078 10.8945 5.9375 11.2422H5.94141ZM8.75 7.24997C8.75 6.55857 9.30859 5.99997 10 5.99997H18.75C19.4414 5.99997 20 6.55857 20 7.24997C20 7.94138 19.4414 8.49997 18.75 8.49997H10C9.30859 8.49997 8.75 7.94138 8.75 7.24997ZM8.75 13.5C8.75 12.8086 9.30859 12.25 10 12.25H18.75C19.4414 12.25 20 12.8086 20 13.5C20 14.1914 19.4414 14.75 18.75 14.75H10C9.30859 14.75 8.75 14.1914 8.75 13.5ZM6.25 19.75C6.25 19.0586 6.80859 18.5 7.5 18.5H18.75C19.4414 18.5 20 19.0586 20 19.75C20 20.4414 19.4414 21 18.75 21H7.5C6.80859 21 6.25 20.4414 6.25 19.75ZM1.875 17.875C2.37228 17.875 2.84919 18.0725 3.20083 18.4241C3.55246 18.7758 3.75 19.2527 3.75 19.75C3.75 20.2473 3.55246 20.7242 3.20083 21.0758C2.84919 21.4274 2.37228 21.625 1.875 21.625C1.37772 21.625 0.900805 21.4274 0.549175 21.0758C0.197544 20.7242 -1.11759e-08 20.2473 -1.11759e-08 19.75C-1.11759e-08 19.2527 0.197544 18.7758 0.549175 18.4241C0.900805 18.0725 1.37772 17.875 1.875 17.875Z" fill="#4B5563"/>
</svg>
