<svg width="20" height="28" viewBox="0 0 20 28" fill="none" xmlns="http://www.w3.org/2000/svg">
<path d="M5.94336 4.99204C6.33008 5.33969 6.36133 5.92954 6.01367 6.31626L3.20117 9.44126C3.0293 9.63266 2.78711 9.74594 2.5293 9.74985C2.27148 9.75376 2.02539 9.6561 1.8418 9.47641L0.275391 7.91391C-0.0878906 7.54673 -0.0878906 6.95298 0.275391 6.58579C0.638672 6.2186 1.23633 6.2186 1.59961 6.58579L2.46289 7.44907L4.61523 5.05844C4.96289 4.67173 5.55273 4.64048 5.93945 4.98813L5.94336 4.99204ZM5.94336 11.242C6.33008 11.5897 6.36133 12.1795 6.01367 12.5663L3.20117 15.6913C3.0293 15.8827 2.78711 15.9959 2.5293 15.9999C2.27148 16.0038 2.02539 15.9061 1.8418 15.7264L0.275391 14.1639C-0.0917969 13.7967 -0.0917969 13.203 0.275391 12.8397C0.642578 12.4764 1.23633 12.4725 1.59961 12.8397L2.46289 13.703L4.61523 11.3124C4.96289 10.9256 5.55273 10.8944 5.93945 11.242H5.94336ZM8.75195 7.24985C8.75195 6.55844 9.31055 5.99985 10.002 5.99985H18.752C19.4434 5.99985 20.002 6.55844 20.002 7.24985C20.002 7.94126 19.4434 8.49985 18.752 8.49985H10.002C9.31055 8.49985 8.75195 7.94126 8.75195 7.24985ZM8.75195 13.4999C8.75195 12.8084 9.31055 12.2499 10.002 12.2499H18.752C19.4434 12.2499 20.002 12.8084 20.002 13.4999C20.002 14.1913 19.4434 14.7499 18.752 14.7499H10.002C9.31055 14.7499 8.75195 14.1913 8.75195 13.4999ZM6.25195 19.7499C6.25195 19.0584 6.81055 18.4999 7.50195 18.4999H18.752C19.4434 18.4999 20.002 19.0584 20.002 19.7499C20.002 20.4413 19.4434 20.9999 18.752 20.9999H7.50195C6.81055 20.9999 6.25195 20.4413 6.25195 19.7499ZM1.87695 17.8749C2.37423 17.8749 2.85115 18.0724 3.20278 18.424C3.55441 18.7757 3.75195 19.2526 3.75195 19.7499C3.75195 20.2471 3.55441 20.724 3.20278 21.0757C2.85115 21.4273 2.37423 21.6249 1.87695 21.6249C1.37967 21.6249 0.902759 21.4273 0.551128 21.0757C0.199497 20.724 0.00195311 20.2471 0.00195311 19.7499C0.00195311 19.2526 0.199497 18.7757 0.551128 18.424C0.902759 18.0724 1.37967 17.8749 1.87695 17.8749Z" fill="#4B5563"/>
</svg>
