<svg width="24" height="24" viewBox="0 0 24 24" fill="none" xmlns="http://www.w3.org/2000/svg">
<g clip-path="url(#clip0_380_1298)">
<path d="M2 13.4991L3.875 9.09614M3.875 9.09614H10.625M3.875 9.09614L6.748 2.34814C6.78626 2.24589 6.85484 2.15777 6.94455 2.09555C7.03426 2.03334 7.14083 2 7.25 2C7.35917 2 7.46574 2.03334 7.55545 2.09555C7.64516 2.15777 7.71374 2.24589 7.752 2.34814L10.625 9.09614M10.625 9.09614L11.2 10.4451M12.086 21.9351C12.5479 21.8308 12.9706 21.5974 13.305 21.2621L18.759 15.8121C19.0018 15.5796 19.1958 15.3009 19.3295 14.9924C19.4632 14.6839 19.534 14.3518 19.5377 14.0156C19.5414 13.6794 19.478 13.3459 19.3511 13.0345C19.2242 12.7231 19.0364 12.4402 18.7988 12.2024C18.5611 11.9645 18.2784 11.7765 17.9671 11.6494C17.6559 11.5222 17.3224 11.4585 16.9862 11.4619C16.65 11.4653 16.3178 11.5358 16.0092 11.6693C15.7006 11.8028 15.4218 11.9965 15.189 12.2391L9.736 17.6911C9.401 18.0271 9.167 18.4511 9.062 18.9131L8.526 21.2671C8.48804 21.4333 8.49287 21.6063 8.54003 21.7701C8.58719 21.9339 8.67514 22.083 8.79565 22.2035C8.91615 22.324 9.06527 22.4119 9.22904 22.4591C9.3928 22.5063 9.56586 22.5111 9.732 22.4731L12.086 21.9351Z" stroke="#6B7280" stroke-width="1.5" stroke-linecap="round" stroke-linejoin="round"/>
<line x1="10.0607" y1="13" x2="20" y2="22.9393" stroke="#6B7280" stroke-width="1.5" stroke-linecap="round"/>
</g>
<defs>
<clipPath id="clip0_380_1298">
<rect width="24" height="24" fill="white"/>
</clipPath>
</defs>
</svg>
