<svg width="16" height="16" viewBox="0 0 16 16" fill="none" xmlns="http://www.w3.org/2000/svg">
<path d="M9.8457 0C13.2444 0 16 2.75562 16 6.1543V9.8457C16 13.2444 13.2444 16 9.8457 16H6.1543C2.75562 16 0 13.2444 0 9.8457V6.1543C0 2.75562 2.75562 0 6.1543 0H9.8457Z" stroke="#E5E7EB"/>
<path d="M10.8961 7.56544C11.1365 7.80582 11.1365 8.19621 10.8961 8.43659L7.20379 12.1289C6.9634 12.3693 6.57302 12.3693 6.33263 12.1289C6.09225 11.8885 6.09225 11.4981 6.33263 11.2577L9.59032 8.00005L6.33456 4.74236C6.09417 4.50198 6.09417 4.11159 6.33456 3.87121C6.57494 3.63082 6.96532 3.63082 7.20571 3.87121L10.898 7.56351L10.8961 7.56544Z" fill="#9CA3AF"/>
</svg>
