<svg width="20" height="20" viewBox="0 0 20 20" fill="none" xmlns="http://www.w3.org/2000/svg">
<g clip-path="url(#clip0_282_236)">
<path d="M19.1667 14.1667C19.3877 14.1667 19.5997 14.2545 19.756 14.4107C19.9123 14.567 20.0001 14.779 20.0001 15C20.0003 15.841 19.6827 16.6509 19.1109 17.2676C18.5391 17.8842 17.7553 18.2619 16.9167 18.325L16.6667 18.3333H12.8451L13.0901 18.5767C13.2279 18.7148 13.3128 18.8968 13.3302 19.0911C13.3476 19.2854 13.2962 19.4797 13.1851 19.64L13.0901 19.7567C12.952 19.8945 12.7699 19.9794 12.5756 19.9968C12.3813 20.0142 12.1871 19.9628 12.0267 19.8517L11.9101 19.7567L10.2434 18.09C10.1056 17.9519 10.0206 17.7698 10.0033 17.5755C9.98591 17.3812 10.0373 17.187 10.1484 17.0267L10.2434 16.91L11.9101 15.2433C12.057 15.0957 12.254 15.0085 12.4621 14.9988C12.6702 14.9892 12.8744 15.0579 13.0344 15.1913C13.1944 15.3247 13.2986 15.5132 13.3265 15.7197C13.3544 15.9261 13.3039 16.1356 13.1851 16.3067L13.0901 16.4233L12.8434 16.6667H16.6667C17.1088 16.6667 17.5327 16.4911 17.8452 16.1785C18.1578 15.8659 18.3334 15.442 18.3334 15C18.3334 14.779 18.4212 14.567 18.5775 14.4107C18.7338 14.2545 18.9457 14.1667 19.1667 14.1667ZM7.50007 2.72534e-07C8.55542 -0.000202367 9.59893 0.222322 10.5624 0.653027C11.5258 1.08373 12.3876 1.71292 13.0912 2.49946C13.7948 3.28601 14.3246 4.21219 14.6457 5.21748C14.9669 6.22277 15.0723 7.28452 14.9551 8.33333H13.2717C13.4466 7.12064 13.2353 5.88367 12.6676 4.79787C12.0999 3.71208 11.2047 2.8326 10.1091 2.2842C9.01343 1.73579 7.77291 1.54631 6.5635 1.74262C5.3541 1.93893 4.23721 2.51108 3.37127 3.37789C2.50533 4.2447 1.93432 5.36217 1.73923 6.57178C1.54415 7.78139 1.73489 9.02171 2.2844 10.1168C2.83391 11.2119 3.7143 12.1062 4.80067 12.6728C5.88703 13.2393 7.12422 13.4495 8.33673 13.2733L8.3334 14.9533C7.31952 15.067 6.29312 14.9725 5.31698 14.6759C4.34085 14.3792 3.4355 13.8864 2.65635 13.2278C1.87719 12.5692 1.2406 11.7585 0.785516 10.8454C0.330435 9.93232 0.0664349 8.93597 0.00966673 7.91732C-0.0471014 6.89867 0.104556 5.87915 0.455361 4.92113C0.806165 3.96311 1.34874 3.08674 2.04989 2.34562C2.75105 1.60451 3.59603 1.01423 4.53316 0.61092C5.47028 0.207604 6.47984 -0.000274751 7.50007 2.72534e-07ZM17.9734 8.48167L18.0901 8.57667L19.7567 10.2433C19.8945 10.3814 19.9795 10.5635 19.9969 10.7578C20.0142 10.9521 19.9629 11.1463 19.8517 11.3067L19.7567 11.4233L18.0901 13.09C17.9431 13.2376 17.7461 13.3249 17.538 13.3345C17.3299 13.3441 17.1258 13.2755 16.9658 13.142C16.8058 13.0086 16.7016 12.8201 16.6737 12.6136C16.6458 12.4072 16.6962 12.1978 16.8151 12.0267L16.9101 11.91L17.1551 11.665L13.3334 11.6667C12.8914 11.6667 12.4675 11.8423 12.1549 12.1548C11.8423 12.4674 11.6667 12.8913 11.6667 13.3333C11.6667 13.5543 11.5789 13.7663 11.4227 13.9226C11.2664 14.0789 11.0544 14.1667 10.8334 14.1667C10.6124 14.1667 10.4004 14.0789 10.2441 13.9226C10.0879 13.7663 10.0001 13.5543 10.0001 13.3333C9.9998 12.4924 10.3174 11.6824 10.8892 11.0658C11.461 10.4491 12.2448 10.0714 13.0834 10.0083L13.3334 10L17.1534 9.99833L16.9101 9.75667C16.7723 9.61857 16.6873 9.43651 16.6699 9.24221C16.6526 9.0479 16.7039 8.85366 16.8151 8.69333L16.9101 8.57667C17.0482 8.43887 17.2302 8.3539 17.4245 8.33654C17.6188 8.31918 17.8131 8.37054 17.9734 8.48167ZM7.50007 3.33333C7.69511 3.33327 7.884 3.40162 8.03383 3.52648C8.18367 3.65135 8.28496 3.82481 8.32007 4.01667L8.3334 4.16667V7.5C8.33347 7.69504 8.26512 7.88393 8.14025 8.03376C8.01539 8.1836 7.84193 8.28489 7.65007 8.32L7.50007 8.33333H4.16674C3.95849 8.33372 3.75765 8.25612 3.60376 8.11582C3.44988 7.97552 3.35409 7.78269 3.33528 7.5753C3.31646 7.3679 3.37598 7.16098 3.5021 6.99528C3.62823 6.82958 3.81182 6.7171 4.01674 6.68L4.16674 6.66667H6.66674V4.16667C6.66667 3.97162 6.73502 3.78274 6.85988 3.6329C6.98475 3.48307 7.15821 3.38177 7.35007 3.34667L7.50007 3.33333Z" fill="url(#paint0_linear_282_236)"/>
</g>
<defs>
<linearGradient id="paint0_linear_282_236" x1="-0.00195313" y1="10" x2="20.0002" y2="10" gradientUnits="userSpaceOnUse">
<stop stop-color="#A855F7"/>
<stop offset="0.754808" stop-color="#3B82F6"/>
</linearGradient>
<clipPath id="clip0_282_236">
<rect width="20" height="20" fill="white"/>
</clipPath>
</defs>
</svg>
