<svg width="30" height="30" viewBox="0 0 30 30" fill="none" xmlns="http://www.w3.org/2000/svg">
<path fill-rule="evenodd" clip-rule="evenodd" d="M26.25 7.5H3.75V5.625H26.25V7.5ZM17.73 11.2594C16.5112 11.2594 15.3422 11.7436 14.4804 12.6054C13.6186 13.4672 13.1344 14.6362 13.1344 15.855C13.1344 17.0738 13.6186 18.2428 14.4804 19.1046C15.3422 19.9664 16.5112 20.4506 17.73 20.4506C18.9488 20.4506 20.1178 19.9664 20.9796 19.1046C21.8414 18.2428 22.3256 17.0738 22.3256 15.855C22.3256 14.6362 21.8414 13.4672 20.9796 12.6054C20.1178 11.7436 18.9488 11.2594 17.73 11.2594ZM11.2594 15.8531C11.2597 14.8289 11.5031 13.8193 11.9697 12.9075C12.4363 11.9957 13.1126 11.2077 13.9432 10.6083C14.7737 10.0088 15.7347 9.61514 16.747 9.45954C17.7594 9.30394 18.7942 9.39089 19.7664 9.71324C20.7386 10.0356 21.6204 10.5841 22.3393 11.3137C23.0581 12.0433 23.5935 12.9332 23.9014 13.9101C24.2093 14.8869 24.2808 15.923 24.1102 16.9329C23.9396 17.9428 23.5317 18.8978 22.92 19.7194L26.1394 22.9369L24.8119 24.2625L21.5944 21.045C20.6321 21.7615 19.4895 22.1964 18.2943 22.301C17.0991 22.4057 15.8984 22.1759 14.8262 21.6375C13.754 21.0991 12.8527 20.2732 12.2228 19.252C11.5929 18.2309 11.2594 17.0548 11.2594 15.855M9.375 15.9375H3.75V14.0625H9.375V15.9375ZM11.25 24.375H3.75V22.5H11.25V24.375Z" fill="#9CA3AF"/>
</svg>
