<svg width="36" height="36" viewBox="0 0 36 36" fill="none" xmlns="http://www.w3.org/2000/svg">
<path d="M26.9185 14.857C27.031 15.1629 26.9361 15.5039 26.6935 15.7219L25.1713 17.107C25.2099 17.3988 25.231 17.6977 25.231 18C25.231 18.3023 25.2099 18.6012 25.1713 18.893L26.6935 20.2781C26.9361 20.4961 27.031 20.8371 26.9185 21.143C26.7638 21.5613 26.5775 21.9621 26.363 22.3488L26.1978 22.6336C25.9658 23.0203 25.7056 23.3859 25.4209 23.7305C25.2134 23.9836 24.8689 24.068 24.5595 23.9695L22.6013 23.3473C22.1302 23.7094 21.6099 24.0117 21.0545 24.2402L20.615 26.2477C20.5447 26.5676 20.2986 26.8207 19.9752 26.8734C19.49 26.9543 18.9908 26.9965 18.481 26.9965C17.9712 26.9965 17.472 26.9543 16.9869 26.8734C16.6634 26.8207 16.4173 26.5676 16.347 26.2477L15.9076 24.2402C15.3521 24.0117 14.8318 23.7094 14.3607 23.3473L12.406 23.973C12.0966 24.0715 11.7521 23.9836 11.5447 23.734C11.2599 23.3895 10.9998 23.0238 10.7677 22.6371L10.6025 22.3523C10.388 21.9656 10.2017 21.5648 10.047 21.1465C9.93453 20.8406 10.0295 20.4996 10.272 20.2816L11.7943 18.8965C11.7556 18.6012 11.7345 18.3023 11.7345 18C11.7345 17.6977 11.7556 17.3988 11.7943 17.107L10.272 15.7219C10.0295 15.5039 9.93453 15.1629 10.047 14.857C10.2017 14.4387 10.388 14.0379 10.6025 13.6512L10.7677 13.3664C10.9998 12.9797 11.2599 12.6141 11.5447 12.2695C11.7521 12.0164 12.0966 11.932 12.406 12.0305L14.3642 12.6527C14.8353 12.2906 15.3556 11.9883 15.9111 11.7598L16.3505 9.75234C16.4209 9.43242 16.667 9.1793 16.9904 9.12656C17.4755 9.04219 17.9748 9 18.4845 9C18.9943 9 19.4935 9.04219 19.9787 9.12305C20.3021 9.17578 20.5482 9.42891 20.6185 9.74883L21.058 11.7563C21.6134 11.9848 22.1338 12.2871 22.6048 12.6492L24.563 12.027C24.8724 11.9285 25.217 12.0164 25.4244 12.266C25.7091 12.6105 25.9693 12.9762 26.2013 13.3629L26.3666 13.6477C26.581 14.0344 26.7673 14.4352 26.922 14.8535L26.9185 14.857ZM18.4845 20.8125C19.2305 20.8125 19.9458 20.5162 20.4733 19.9887C21.0007 19.4613 21.297 18.7459 21.297 18C21.297 17.2541 21.0007 16.5387 20.4733 16.0113C19.9458 15.4838 19.2305 15.1875 18.4845 15.1875C17.7386 15.1875 17.0232 15.4838 16.4958 16.0113C15.9683 16.5387 15.672 17.2541 15.672 18C15.672 18.7459 15.9683 19.4613 16.4958 19.9887C17.0232 20.5162 17.7386 20.8125 18.4845 20.8125Z" fill="#4B5563"/>
</svg>
