<svg width="36" height="36" viewBox="0 0 36 36" fill="none" xmlns="http://www.w3.org/2000/svg">
<path d="M26.1841 14.107C26.2966 14.4129 26.2017 14.7539 25.9591 14.9719L24.4369 16.357C24.4755 16.6488 24.4966 16.9477 24.4966 17.25C24.4966 17.5523 24.4755 17.8512 24.4369 18.143L25.9591 19.5281C26.2017 19.7461 26.2966 20.0871 26.1841 20.393C26.0295 20.8113 25.8431 21.2121 25.6287 21.5988L25.4634 21.8836C25.2314 22.2703 24.9712 22.6359 24.6865 22.9805C24.4791 23.2336 24.1345 23.318 23.8252 23.2195L21.867 22.5973C21.3959 22.9594 20.8755 23.2617 20.3201 23.4902L19.8806 25.4977C19.8103 25.8176 19.5642 26.0707 19.2408 26.1234C18.7556 26.2043 18.2564 26.2465 17.7466 26.2465C17.2369 26.2465 16.7377 26.2043 16.2525 26.1234C15.9291 26.0707 15.683 25.8176 15.6127 25.4977L15.1732 23.4902C14.6177 23.2617 14.0974 22.9594 13.6263 22.5973L11.6716 23.223C11.3623 23.3215 11.0177 23.2336 10.8103 22.984C10.5255 22.6395 10.2654 22.2738 10.0334 21.8871L9.86812 21.6023C9.65367 21.2156 9.46734 20.8148 9.31266 20.3965C9.20016 20.0906 9.29508 19.7496 9.53766 19.5316L11.0599 18.1465C11.0212 17.8512 11.0002 17.5523 11.0002 17.25C11.0002 16.9477 11.0212 16.6488 11.0599 16.357L9.53766 14.9719C9.29508 14.7539 9.20016 14.4129 9.31266 14.107C9.46734 13.6887 9.65367 13.2879 9.86812 12.9012L10.0334 12.6164C10.2654 12.2297 10.5255 11.8641 10.8103 11.5195C11.0177 11.2664 11.3623 11.182 11.6716 11.2805L13.6298 11.9027C14.1009 11.5406 14.6212 11.2383 15.1767 11.0098L15.6162 9.00234C15.6865 8.68242 15.9326 8.4293 16.256 8.37656C16.7412 8.29219 17.2404 8.25 17.7502 8.25C18.2599 8.25 18.7591 8.29219 19.2443 8.37305C19.5677 8.42578 19.8138 8.67891 19.8841 8.99883L20.3236 11.0063C20.8791 11.2348 21.3994 11.5371 21.8705 11.8992L23.8287 11.277C24.138 11.1785 24.4826 11.2664 24.69 11.516C24.9748 11.8605 25.2349 12.2262 25.467 12.6129L25.6322 12.8977C25.8466 13.2844 26.033 13.6852 26.1877 14.1035L26.1841 14.107ZM17.7502 20.0625C18.4961 20.0625 19.2114 19.7662 19.7389 19.2387C20.2663 18.7113 20.5627 17.9959 20.5627 17.25C20.5627 16.5041 20.2663 15.7887 19.7389 15.2613C19.2114 14.7338 18.4961 14.4375 17.7502 14.4375C17.0042 14.4375 16.2889 14.7338 15.7614 15.2613C15.234 15.7887 14.9377 16.5041 14.9377 17.25C14.9377 17.9959 15.234 18.7113 15.7614 19.2387C16.2889 19.7662 17.0042 20.0625 17.7502 20.0625Z" fill="#4B5563"/>
</svg>
