<svg width="24" height="24" viewBox="0 0 24 24" fill="none" xmlns="http://www.w3.org/2000/svg">
<path d="M3 14C2.71667 14 2.47934 13.904 2.288 13.712C2.09667 13.52 2.00067 13.2827 2 13C1.99934 12.7173 2.09534 12.48 2.288 12.288C2.48067 12.096 2.718 12 3 12H21C21.2833 12 21.521 12.096 21.713 12.288C21.905 12.48 22.0007 12.7173 22 13C21.9993 13.2827 21.9033 13.5203 21.712 13.713C21.5207 13.9057 21.2833 14.0013 21 14H3ZM10.5 10V7H6.5C6.08334 7 5.72934 6.85433 5.438 6.563C5.14667 6.27167 5.00067 5.91733 5 5.5C4.99934 5.08267 5.14534 4.72867 5.438 4.438C5.73067 4.14733 6.08467 4.00133 6.5 4H17.5C17.9167 4 18.271 4.146 18.563 4.438C18.855 4.73 19.0007 5.084 19 5.5C18.9993 5.916 18.8537 6.27033 18.563 6.563C18.2723 6.85567 17.918 7.00133 17.5 7H13.5V10H10.5ZM10.5 16H13.5V18.5C13.5 18.9167 13.3543 19.271 13.063 19.563C12.7717 19.855 12.4173 20.0007 12 20C11.5827 19.9993 11.2287 19.8537 10.938 19.563C10.6473 19.2723 10.5013 18.918 10.5 18.5V16Z" fill="#6B7280"/>
</svg>
