<svg width="19" height="18" viewBox="0 0 19 18" fill="none" xmlns="http://www.w3.org/2000/svg">
<path d="M4.95703 4.33353C7.38672 1.90384 11.3125 1.89213 13.7578 4.29447L12.1484 5.89994C11.8789 6.16947 11.8008 6.57181 11.9453 6.92338C12.0898 7.27494 12.4336 7.5015 12.8125 7.5015H17.4805H17.8125C18.332 7.5015 18.75 7.08353 18.75 6.564V1.564C18.75 1.18509 18.5234 0.841344 18.1719 0.696813C17.8203 0.552282 17.418 0.630407 17.1484 0.899938L15.5234 2.52494C12.1016 -0.853968 6.58984 -0.842249 3.1875 2.564C2.23437 3.51713 1.54687 4.63822 1.125 5.83744C0.894531 6.48978 1.23828 7.20072 1.88672 7.43119C2.53516 7.66166 3.25 7.31791 3.48047 6.66947C3.78125 5.81791 4.26953 5.01713 4.95703 4.33353ZM0 10.939V11.2359V11.2632V15.939C0 16.3179 0.226562 16.6617 0.578125 16.8062C0.929687 16.9507 1.33203 16.8726 1.60156 16.6031L3.22656 14.9781C6.64844 18.357 12.1602 18.3453 15.5625 14.939C16.5156 13.9859 17.207 12.8648 17.6289 11.6695C17.8594 11.0171 17.5156 10.3062 16.8672 10.0757C16.2187 9.84525 15.5039 10.189 15.2734 10.8374C14.9727 11.689 14.4844 12.4898 13.7969 13.1734C11.3672 15.6031 7.44141 15.6148 4.99609 13.2124L6.60156 11.6031C6.87109 11.3335 6.94922 10.9312 6.80469 10.5796C6.66016 10.2281 6.31641 10.0015 5.9375 10.0015H1.26563H1.23828H0.9375C0.417969 10.0015 0 10.4195 0 10.939Z" fill="#4B5563"/>
</svg>
