<svg width="20" height="19" viewBox="0 0 20 19" fill="none" xmlns="http://www.w3.org/2000/svg">
<path d="M5.58203 5.08201C8.01172 2.65232 11.9375 2.6406 14.3828 5.04294L12.7734 6.64841C12.5039 6.91794 12.4258 7.32029 12.5703 7.67185C12.7148 8.02341 13.0586 8.24997 13.4375 8.24997H18.1055H18.4375C18.957 8.24997 19.375 7.83201 19.375 7.31247V2.31247C19.375 1.93357 19.1484 1.58982 18.7969 1.44529C18.4453 1.30076 18.043 1.37888 17.7734 1.64841L16.1484 3.27341C12.7266 -0.105494 7.21484 -0.0937753 3.8125 3.31247C2.85938 4.2656 2.17188 5.38669 1.75 6.58591C1.51953 7.23826 1.86328 7.94919 2.51172 8.17966C3.16016 8.41013 3.875 8.06638 4.10547 7.41794C4.40625 6.56638 4.89453 5.7656 5.58203 5.08201ZM0.625 11.6875V11.9844V12.0117V16.6875C0.625 17.0664 0.851562 17.4101 1.20312 17.5547C1.55469 17.6992 1.95703 17.6211 2.22656 17.3515L3.85156 15.7265C7.27344 19.1054 12.7852 19.0937 16.1875 15.6875C17.1406 14.7344 17.832 13.6133 18.2539 12.4179C18.4844 11.7656 18.1406 11.0547 17.4922 10.8242C16.8438 10.5937 16.1289 10.9375 15.8984 11.5859C15.5977 12.4375 15.1094 13.2383 14.4219 13.9219C11.9922 16.3515 8.06641 16.3633 5.62109 13.9609L7.22656 12.3515C7.49609 12.082 7.57422 11.6797 7.42969 11.3281C7.28516 10.9765 6.94141 10.75 6.5625 10.75H1.89062H1.86328H1.5625C1.04297 10.75 0.625 11.1679 0.625 11.6875Z" fill="#4B5563"/>
</svg>
