<svg width="14" height="14" viewBox="0 0 14 14" fill="none" xmlns="http://www.w3.org/2000/svg">
<path d="M4.59636 10.5L3.93536 13.3656C3.8953 13.5552 3.80851 13.7083 3.67497 13.825C3.54144 13.9417 3.38119 14 3.19424 14C2.94053 14 2.73355 13.8906 2.5733 13.6719C2.41306 13.4531 2.36632 13.2125 2.43309 12.95L2.99394 10.5H0.810638C0.543567 10.5 0.329911 10.3871 0.169668 10.1614C0.00942599 9.93563 -0.0373113 9.68392 0.0294563 9.40625C0.0695169 9.20208 0.162992 9.04167 0.309881 8.925C0.456769 8.80833 0.623689 8.75 0.810638 8.75H3.39455L4.19576 5.25H2.01246C1.74539 5.25 1.53173 5.13713 1.37149 4.91138C1.21124 4.68563 1.16451 4.43392 1.23127 4.15625C1.27134 3.95208 1.36481 3.79167 1.5117 3.675C1.65859 3.55833 1.82551 3.5 2.01246 3.5H4.59636L5.25736 0.634375C5.29742 0.444792 5.38422 0.291667 5.51776 0.175C5.65129 0.0583332 5.81154 0 5.99849 0C6.2522 0 6.45918 0.109375 6.61942 0.328125C6.77967 0.546875 6.8264 0.7875 6.75964 1.05L6.19879 3.5H9.40364L10.0646 0.634375C10.1047 0.444792 10.1915 0.291667 10.325 0.175C10.4586 0.0583332 10.6188 0 10.8058 0C11.0595 0 11.2665 0.109375 11.4267 0.328125C11.5869 0.546875 11.6337 0.7875 11.5669 1.05L11.0061 3.5H13.1894C13.4564 3.5 13.6701 3.61287 13.8303 3.83862C13.9906 4.06437 14.0373 4.31608 13.9705 4.59375C13.9305 4.79792 13.837 4.95833 13.6901 5.075C13.5432 5.19167 13.3763 5.25 13.1894 5.25H10.6055L9.80424 8.75H11.9875C12.2546 8.75 12.4683 8.86317 12.6285 9.0895C12.7888 9.31583 12.8355 9.56725 12.7687 9.84375C12.7287 10.0479 12.6352 10.2083 12.4883 10.325C12.3414 10.4417 12.1745 10.5 11.9875 10.5H9.40364L8.74264 13.3656C8.70258 13.5552 8.61578 13.7083 8.48224 13.825C8.34871 13.9417 8.18846 14 8.00151 14C7.7478 14 7.54082 13.8906 7.38058 13.6719C7.22033 13.4531 7.1736 13.2125 7.24036 12.95L7.80121 10.5H4.59636ZM4.99697 8.75H8.20182L9.00303 5.25H5.79818L4.99697 8.75Z" fill="#4B5563"/>
</svg>
