<svg width="20" height="21" viewBox="0 0 20 21" fill="none" xmlns="http://www.w3.org/2000/svg">
<g clip-path="url(#clip0_82_453)">
<path d="M13.4766 2.02734L18.4688 7.07812C20.5156 9.14844 20.5156 12.4766 18.4688 14.5469L14.0938 18.9727C13.7305 19.3398 13.1367 19.3438 12.7695 18.9805C12.4023 18.6172 12.3984 18.0234 12.7617 17.6562L17.1328 13.2305C18.457 11.8906 18.457 9.73828 17.1328 8.39844L12.1445 3.34766C11.7812 2.98047 11.7852 2.38672 12.1523 2.02344C12.5195 1.66016 13.1133 1.66406 13.4766 2.03125V2.02734ZM0 9.46484V3.625C0 2.58984 0.839844 1.75 1.875 1.75H7.71484C8.37891 1.75 9.01562 2.01172 9.48438 2.48047L16.0469 9.04297C17.0234 10.0195 17.0234 11.6016 16.0469 12.5781L10.832 17.793C9.85547 18.7695 8.27344 18.7695 7.29688 17.793L0.734375 11.2305C0.261719 10.7617 0 10.1289 0 9.46484ZM5.625 6.125C5.625 5.79348 5.4933 5.47554 5.25888 5.24112C5.02446 5.0067 4.70652 4.875 4.375 4.875C4.04348 4.875 3.72554 5.0067 3.49112 5.24112C3.2567 5.47554 3.125 5.79348 3.125 6.125C3.125 6.45652 3.2567 6.77446 3.49112 7.00888C3.72554 7.2433 4.04348 7.375 4.375 7.375C4.70652 7.375 5.02446 7.2433 5.25888 7.00888C5.4933 6.77446 5.625 6.45652 5.625 6.125Z" fill="white"/>
</g>
<defs>
<clipPath id="clip0_82_453">
<path d="M0 0.5H20V20.5H0V0.5Z" fill="white"/>
</clipPath>
</defs>
</svg>
