<svg width="18" height="18" viewBox="0 0 18 18" fill="none" xmlns="http://www.w3.org/2000/svg">
<path d="M12.3647 4.09365C12.1979 3.98544 11.9948 3.94792 11.8003 3.98937C11.6058 4.03081 11.4357 4.14782 11.3275 4.31465L7.12496 10.7924L5.07546 8.8974C5.00315 8.83054 4.91838 8.77858 4.82599 8.74448C4.7336 8.71038 4.6354 8.69482 4.53699 8.69867C4.33825 8.70645 4.15074 8.79287 4.01571 8.9389C3.88068 9.08494 3.8092 9.27863 3.81698 9.47737C3.82476 9.67612 3.91118 9.86363 4.05721 9.99865L6.74821 12.4867C6.74821 12.4867 6.82546 12.5532 6.86121 12.5764C6.94384 12.63 7.03623 12.6668 7.13309 12.6848C7.22995 12.7027 7.3294 12.7013 7.42574 12.6808C7.52208 12.6603 7.61344 12.621 7.69459 12.5652C7.77575 12.5093 7.84511 12.438 7.89871 12.3554L12.5857 5.1309C12.6939 4.96404 12.7314 4.76103 12.69 4.56652C12.6486 4.372 12.5315 4.20191 12.3647 4.09365Z" fill="#10B981"/>
<circle cx="8.75" cy="8.75" r="8" stroke="#10B981" stroke-width="1.5"/>
</svg>
