<svg width="20" height="20" viewBox="0 0 20 20" fill="none" xmlns="http://www.w3.org/2000/svg">
<path d="M9.85714 17.5C10.1389 17.5 10.4207 17.4844 10.6954 17.4533C11.1595 17.4006 11.3412 16.8808 11.1227 16.468C10.9596 16.1597 10.6081 15.933 10.2596 15.9451C10.1196 15.95 9.98215 15.95 9.85714 15.95C6.4 15.95 3.57143 13.16 3.57143 9.75C3.57143 6.34 6.4 3.55 9.85714 3.55C10.3151 3.55 10.7314 3.59114 11.1363 3.67342C11.4166 3.73036 11.7114 3.65849 11.915 3.45768C12.3388 3.03967 12.1687 2.32268 11.5868 2.19738C11.0199 2.07532 10.4385 2 9.85714 2C5.53571 2 2 5.4875 2 9.75C2 14.0125 5.53571 17.5 9.85714 17.5ZM6.09327 9.91245C5.78658 9.60995 5.78658 9.11505 6.09327 8.81255C6.39405 8.51587 6.87738 8.51587 7.17816 8.81255L9.07143 10.68L15.2861 4.55005C15.5869 4.25337 16.0702 4.25337 16.371 4.55005C16.6777 4.85255 16.6777 5.34745 16.371 5.64995L9.64735 12.2819C9.32801 12.5969 8.81485 12.5969 8.49551 12.2819L6.09327 9.91245ZM15.3571 11.3L14.3671 13.4313L12.2143 14.4L14.3671 15.3765L15.3571 17.5L16.3393 15.3765L18.5 14.4L16.3393 13.4313L15.3571 11.3Z" fill="url(#paint0_linear_196_460)"/>
<defs>
<linearGradient id="paint0_linear_196_460" x1="2" y1="9.75" x2="18.5" y2="9.75" gradientUnits="userSpaceOnUse">
<stop stop-color="#A855F7"/>
<stop offset="0.754808" stop-color="#3B82F6"/>
</linearGradient>
</defs>
</svg>
