<svg width="18" height="18" viewBox="0 0 18 18" fill="none" xmlns="http://www.w3.org/2000/svg">
<g clip-path="url(#clip0_380_1299)">
<path d="M9.73489 1.91997C9.68687 1.77282 9.59302 1.6449 9.46706 1.55494C9.34111 1.46497 9.18966 1.41767 9.03489 1.41997H8.99989C8.84343 1.4155 8.68973 1.46179 8.56175 1.55191C8.43378 1.64204 8.33841 1.77116 8.28989 1.91997L4.20989 10.78C4.16449 10.8717 4.14055 10.9726 4.13989 11.075C4.13989 11.2076 4.19257 11.3348 4.28634 11.4285C4.38011 11.5223 4.50728 11.575 4.63989 11.575C4.75935 11.5775 4.87643 11.5414 4.97372 11.472C5.07101 11.4026 5.14332 11.3037 5.17989 11.19L6.21989 8.86497H11.7199L12.7599 11.16C12.8009 11.2773 12.8762 11.3796 12.9761 11.4536C13.0759 11.5276 13.1957 11.5699 13.3199 11.575C13.3908 11.575 13.461 11.561 13.5265 11.5339C13.5921 11.5067 13.6516 11.467 13.7017 11.4168C13.7519 11.3667 13.7917 11.3071 13.8188 11.2416C13.8459 11.1761 13.8599 11.1059 13.8599 11.035C13.8543 10.9365 13.8306 10.8398 13.7899 10.75L9.73489 1.91997ZM6.67989 7.85497L8.99989 2.74497L11.2999 7.85497H6.67989Z" fill="#6B7280"/>
<path d="M15.03 12.5H3.03003C2.47774 12.5 2.03003 12.9477 2.03003 13.5V15.5C2.03003 16.0523 2.47774 16.5 3.03003 16.5H15.03C15.5823 16.5 16.03 16.0523 16.03 15.5V13.5C16.03 12.9477 15.5823 12.5 15.03 12.5Z" fill="#6B7280"/>
</g>
<defs>
<clipPath id="clip0_380_1299">
<rect width="18" height="18" fill="white"/>
</clipPath>
</defs>
</svg>
