<svg width="24" height="24" viewBox="0 0 24 24" fill="none" xmlns="http://www.w3.org/2000/svg">
<path d="M3.25 14.2501L5.125 9.84712M5.125 9.84712H11.875M5.125 9.84712L7.998 3.09911C8.03626 2.99687 8.10484 2.90874 8.19455 2.84653C8.28426 2.78431 8.39083 2.75098 8.5 2.75098C8.60917 2.75098 8.71574 2.78431 8.80545 2.84653C8.89516 2.90874 8.96374 2.99687 9.002 3.09911L11.875 9.84712M11.875 9.84712L12.45 11.1961M13.336 20.6861C13.7979 20.5818 14.2206 20.3484 14.555 20.0131L20.009 14.5631C20.2518 14.3306 20.4458 14.0519 20.5795 13.7434C20.7132 13.4349 20.784 13.1028 20.7877 12.7666C20.7914 12.4304 20.728 12.0968 20.6011 11.7855C20.4742 11.4741 20.2864 11.1912 20.0488 10.9534C19.8111 10.7155 19.5284 10.5275 19.2171 10.4003C18.9059 10.2732 18.5724 10.2095 18.2362 10.2129C17.9 10.2163 17.5678 10.2868 17.2592 10.4203C16.9506 10.5537 16.6718 10.7475 16.439 10.9901L10.986 16.4421C10.651 16.7781 10.417 17.2021 10.312 17.6641L9.776 20.0181C9.73804 20.1843 9.74287 20.3573 9.79003 20.5211C9.83719 20.6848 9.92514 20.834 10.0456 20.9545C10.1662 21.075 10.3153 21.1629 10.479 21.2101C10.6428 21.2572 10.8159 21.2621 10.982 21.2241L13.336 20.6861Z" stroke="#6B7280" stroke-width="1.5" stroke-linecap="round" stroke-linejoin="round"/>
</svg>
