<svg width="20" height="20" viewBox="0 0 20 20" fill="none" xmlns="http://www.w3.org/2000/svg">
<path d="M9.16667 6.66671H10.8333V11.6667H9.16667V6.66671ZM12.5 0.833374H7.5V2.50004H12.5V0.833374ZM10 16.6667C6.775 16.6667 4.16667 14.0584 4.16667 10.8334C4.16667 7.60837 6.775 5.00004 10 5.00004C13.225 5.00004 15.8333 7.60837 15.8333 10.8334C16.4167 10.8334 16.9667 10.9417 17.5 11.125V10.8334C17.5 9.06671 16.8833 7.44171 15.8583 6.15837L17.0417 4.97504C16.6667 4.55004 16.2917 4.16671 15.8667 3.80004L14.6833 5.00004C13.3917 3.95004 11.7667 3.33337 10 3.33337C8.01088 3.33337 6.10322 4.12355 4.6967 5.53007C3.29018 6.9366 2.5 8.84425 2.5 10.8334C2.5 12.8225 3.29018 14.7302 4.6967 16.1367C6.10322 17.5432 8.01088 18.3334 10 18.3334C10.4917 18.3334 10.9667 18.2834 11.425 18.1917C11.1667 17.7084 10.9833 17.1667 10.9 16.5917C10.6 16.6334 10.3083 16.6667 10 16.6667ZM17.7833 13.2L14.7917 16.1917L13.4667 14.8667L12.5 15.8334L14.7917 18.3334L18.75 14.375L17.7833 13.2Z" fill="url(#paint0_linear_282_193)"/>
<defs>
<linearGradient id="paint0_linear_282_193" x1="2.5" y1="9.58337" x2="18.75" y2="9.58337" gradientUnits="userSpaceOnUse">
<stop stop-color="#A855F7"/>
<stop offset="0.754808" stop-color="#3B82F6"/>
</linearGradient>
</defs>
</svg>
