<svg width="20" height="20" viewBox="0 0 20 20" fill="none" xmlns="http://www.w3.org/2000/svg">
<path d="M12.5 2.49992H7.5V0.833252H12.5V2.49992ZM9.16667 11.6666H10.8333V6.66659H9.16667V11.6666ZM15.8333 10.8333C16.4167 10.8333 16.9667 10.9416 17.5 11.1249V10.8333C17.5 9.06659 16.8833 7.44158 15.8583 6.15825L17.0417 4.97492C16.6667 4.54992 16.2917 4.16659 15.8667 3.79992L14.6833 4.99992C13.3917 3.94992 11.7667 3.33325 10 3.33325C8.01088 3.33325 6.10322 4.12343 4.6967 5.52995C3.29018 6.93647 2.5 8.84413 2.5 10.8333C2.5 12.8224 3.29018 14.73 4.6967 16.1366C6.10322 17.5431 8.01088 18.3333 10 18.3333C10.4917 18.3333 10.9667 18.2833 11.425 18.1916C11.1667 17.7083 10.9833 17.1666 10.9 16.5916C10.6 16.6333 10.3083 16.6666 10 16.6666C6.775 16.6666 4.16667 14.0583 4.16667 10.8333C4.16667 7.60825 6.775 4.99992 10 4.99992C13.225 4.99992 15.8333 7.60825 15.8333 10.8333ZM14.1667 13.3333V18.3333L18.3333 15.8333L14.1667 13.3333Z" fill="url(#paint0_linear_486_2820)"/>
<defs>
<linearGradient id="paint0_linear_486_2820" x1="2.5" y1="9.58325" x2="18.3333" y2="9.58325" gradientUnits="userSpaceOnUse">
<stop stop-color="#A855F7"/>
<stop offset="0.754808" stop-color="#3B82F6"/>
</linearGradient>
</defs>
</svg>
