<svg width="20" height="20" viewBox="0 0 20 20" fill="none" xmlns="http://www.w3.org/2000/svg">
<path d="M10 0C12.6522 0 15.1957 1.05357 17.0711 2.92893C18.9464 4.8043 20 7.34784 20 10C20 12.6522 18.9464 15.1957 17.0711 17.0711C15.1957 18.9464 12.6522 20 10 20C7.34784 20 4.8043 18.9464 2.92893 17.0711C1.05357 15.1957 0 12.6522 0 10C0 7.34784 1.05357 4.8043 2.92893 2.92893C4.8043 1.05357 7.34784 0 10 0ZM9.0625 4.6875V10C9.0625 10.3125 9.21875 10.6055 9.48047 10.7812L13.2305 13.2812C13.6602 13.5703 14.2422 13.4531 14.5312 13.0195C14.8203 12.5859 14.7031 12.0078 14.2695 11.7188L10.9375 9.5V4.6875C10.9375 4.16797 10.5195 3.75 10 3.75C9.48047 3.75 9.0625 4.16797 9.0625 4.6875Z" fill="white"/>
</svg>
