<svg width="17" height="17" viewBox="0 0 17 17" fill="none" xmlns="http://www.w3.org/2000/svg">
<path d="M6.86279 8.23534C6.86279 8.59936 7.0074 8.94848 7.2648 9.20588C7.52221 9.46328 7.87132 9.60789 8.23534 9.60789C8.59936 9.60789 8.94848 9.46328 9.20588 9.20588C9.46328 8.94848 9.60789 8.59936 9.60789 8.23534C9.60789 7.87132 9.46328 7.52221 9.20588 7.2648C8.94848 7.0074 8.59936 6.86279 8.23534 6.86279C7.87132 6.86279 7.52221 7.0074 7.2648 7.2648C7.0074 7.52221 6.86279 7.87132 6.86279 8.23534Z" stroke="#9CA3AF" stroke-width="1.23529" stroke-linecap="round" stroke-linejoin="round"/>
<path d="M7.61903 12.3235C5.42067 12.1121 3.56727 10.7494 2.05884 8.23532C3.7059 5.49022 5.76472 4.11768 8.23531 4.11768C10.7059 4.11768 12.7647 5.49022 14.4118 8.23532C14.2674 8.476 14.1157 8.71219 13.9568 8.94356M10.2941 13.0392L11.6667 14.4118L14.4118 11.6667" stroke="#9CA3AF" stroke-width="1.23529" stroke-linecap="round" stroke-linejoin="round"/>
</svg>
