<svg width="16" height="16" viewBox="0 0 16 16" fill="none" xmlns="http://www.w3.org/2000/svg">
<path d="M6.66699 7.99984C6.66699 8.35346 6.80747 8.6926 7.05752 8.94265C7.30757 9.19269 7.6467 9.33317 8.00033 9.33317C8.35395 9.33317 8.69309 9.19269 8.94313 8.94265C9.19318 8.6926 9.33366 8.35346 9.33366 7.99984C9.33366 7.64622 9.19318 7.30708 8.94313 7.05703C8.69309 6.80698 8.35395 6.6665 8.00033 6.6665C7.6467 6.6665 7.30757 6.80698 7.05752 7.05703C6.80747 7.30708 6.66699 7.64622 6.66699 7.99984Z" stroke="#9CA3AF" stroke-width="1.2" stroke-linecap="round" stroke-linejoin="round"/>
<path d="M7.40133 11.9713C5.26578 11.766 3.46533 10.4422 2 8C3.6 5.33333 5.6 4 8 4C10.4 4 12.4 5.33333 14 8C13.8597 8.2338 13.7123 8.46324 13.558 8.688M10 12.6667L11.3333 14L14 11.3333" stroke="#9CA3AF" stroke-width="1.2" stroke-linecap="round" stroke-linejoin="round"/>
</svg>
