<svg width="25" height="25" viewBox="0 0 25 25" fill="none" xmlns="http://www.w3.org/2000/svg">
<path fill-rule="evenodd" clip-rule="evenodd" d="M19.5312 19.7155C20.0109 19.2858 20.3125 18.6624 20.3125 17.9686V10.9014C20.3126 10.5425 20.2302 10.1882 20.0717 9.86617C19.9133 9.54406 19.6829 9.26266 19.3984 9.04368L13.9297 4.83743C13.5199 4.52194 13.0172 4.35087 12.5 4.35087C11.9828 4.35087 11.4801 4.52194 11.0703 4.83743L5.60156 9.04368C5.31689 9.26282 5.0864 9.54447 4.92791 9.86687C4.76942 10.1892 4.68717 10.5438 4.6875 10.903V17.9686C4.68668 18.2757 4.74638 18.58 4.86319 18.864C4.98 19.148 5.15163 19.4062 5.36827 19.6239C5.58491 19.8415 5.84232 20.0144 6.12578 20.1325C6.40925 20.2506 6.71322 20.3118 7.02031 20.3124H7.8125V14.8436C7.8125 14.0148 8.14174 13.22 8.72779 12.6339C9.31384 12.0479 10.1087 11.7186 10.9375 11.7186H14.0625C14.8913 11.7186 15.6862 12.0479 16.2722 12.6339C16.8583 13.22 17.1875 14.0148 17.1875 14.8436V20.3124H17.9797C18.575 20.3093 19.1203 20.0843 19.5312 19.7155ZM22.6562 17.9686C22.6562 19.2118 22.1624 20.4041 21.2833 21.2832C20.4042 22.1623 19.212 22.6561 17.9688 22.6561H7.03125C5.78805 22.6561 4.59576 22.1623 3.71669 21.2832C2.83761 20.4041 2.34375 19.2118 2.34375 17.9686V10.9014C2.3438 10.1837 2.50866 9.47566 2.82561 8.83172C3.14257 8.18779 3.60316 7.62523 4.17188 7.18743L9.64062 2.98118C10.4603 2.3502 11.4656 2.00806 12.5 2.00806C13.5344 2.00806 14.5397 2.3502 15.3594 2.98118L20.8281 7.18743C21.3971 7.62539 21.8578 8.1882 22.1747 8.83242C22.4917 9.47665 22.6564 10.185 22.6562 10.903V17.9686ZM14.8438 14.8436C14.8438 14.6364 14.7614 14.4377 14.6149 14.2912C14.4684 14.1447 14.2697 14.0624 14.0625 14.0624H10.9375C10.7303 14.0624 10.5316 14.1447 10.3851 14.2912C10.2386 14.4377 10.1562 14.6364 10.1562 14.8436V20.3124H14.8438V14.8436Z" fill="#717478"/>
</svg>
