<svg width="17" height="25" viewBox="0 0 17 25" fill="none" xmlns="http://www.w3.org/2000/svg">
<g clip-path="url(#clip0_290_2886)">
<path d="M3.34821 3.125C1.49972 3.125 0 4.62472 0 6.47321V17.6339C0 19.4824 1.49972 20.9821 3.34821 20.9821H13.3929H14.5089C15.1263 20.9821 15.625 20.4834 15.625 19.8661C15.625 19.2488 15.1263 18.75 14.5089 18.75V16.5179C15.1263 16.5179 15.625 16.0191 15.625 15.4018V4.24107C15.625 3.62374 15.1263 3.125 14.5089 3.125H13.3929H3.34821ZM3.34821 16.5179H12.2768V18.75H3.34821C2.73088 18.75 2.23214 18.2513 2.23214 17.6339C2.23214 17.0166 2.73088 16.5179 3.34821 16.5179ZM4.46429 8.14732C4.46429 7.8404 4.7154 7.58929 5.02232 7.58929H11.7188C12.0257 7.58929 12.2768 7.8404 12.2768 8.14732C12.2768 8.45424 12.0257 8.70536 11.7188 8.70536H5.02232C4.7154 8.70536 4.46429 8.45424 4.46429 8.14732ZM5.02232 9.82143H11.7188C12.0257 9.82143 12.2768 10.0725 12.2768 10.3795C12.2768 10.6864 12.0257 10.9375 11.7188 10.9375H5.02232C4.7154 10.9375 4.46429 10.6864 4.46429 10.3795C4.46429 10.0725 4.7154 9.82143 5.02232 9.82143Z" fill="#717478"/>
</g>
<defs>
<clipPath id="clip0_290_2886">
<rect width="16.0714" height="25" fill="white"/>
</clipPath>
</defs>
</svg>
