<svg width="50" height="50" viewBox="0 0 50 50" fill="none" xmlns="http://www.w3.org/2000/svg">
<g clip-path="url(#clip0_290_2928)">
<path opacity="0.12" d="M14.762 23.9646C19.2329 23.9646 22.8572 20.3403 22.8572 15.8694C22.8572 11.3985 19.2329 7.77417 14.762 7.77417C10.2911 7.77417 6.66675 11.3985 6.66675 15.8694C6.66675 20.3403 10.2911 23.9646 14.762 23.9646Z" fill="url(#paint0_linear_290_2928)"/>
<g filter="url(#filter0_d_290_2928)">
<path d="M15.0669 10.6065C15.504 10.1694 16.1332 9.95109 16.9264 9.92549L17.0873 9.92285H17.0932L17.0991 9.92318L36.0366 11.1857C36.9016 11.1872 37.5832 11.4046 38.048 11.8692C38.5125 12.3337 38.7297 13.0153 38.7313 13.8803L39.9939 32.818L39.9942 32.8239V32.8299C39.9942 33.6992 39.7768 34.3839 39.3106 34.8501C38.8444 35.3163 38.1597 35.5337 37.2904 35.5337C36.4211 35.5337 35.7361 35.3163 35.2699 34.8501C34.8037 34.3839 34.5863 33.6992 34.5863 32.8299V17.6776C34.5863 16.8633 34.383 16.2854 34.0073 15.9098C33.6318 15.5342 33.0537 15.3307 32.2394 15.3307H17.0873C16.2179 15.3307 15.5331 15.1133 15.0669 14.6471C14.6008 14.1809 14.3833 13.4961 14.3833 12.6268C14.3833 11.7575 14.6008 11.0727 15.0669 10.6065Z" fill="url(#paint1_linear_290_2928)" stroke="url(#paint2_linear_290_2928)" stroke-width="0.357143"/>
<path d="M20.3955 15.1775C21.2881 14.2849 22.7352 14.2849 23.6278 15.1775C24.5205 16.0702 24.5205 17.5173 23.6278 18.4099L10.4958 31.5418C9.60319 32.4344 8.1561 32.4344 7.26348 31.5418C6.37083 30.6492 6.37083 29.2021 7.26348 28.3094L20.3955 15.1775Z" fill="url(#paint3_linear_290_2928)" stroke="url(#paint4_linear_290_2928)" stroke-width="0.285714"/>
<path d="M25.9513 20.7332C26.8439 19.8406 28.291 19.8406 29.1837 20.7332C30.0763 21.6258 30.0763 23.0729 29.1837 23.9655L16.0517 37.0974C15.1591 37.9901 13.712 37.9901 12.8194 37.0974C11.9267 36.2048 11.9267 34.7579 12.8194 33.8653L25.9513 20.7332Z" fill="url(#paint5_linear_290_2928)" stroke="url(#paint6_linear_290_2928)" stroke-width="0.285714"/>
<path d="M31.5073 26.2891C32.3999 25.3965 33.8471 25.3965 34.7397 26.2891C35.6323 27.1817 35.6323 28.6289 34.7397 29.5215L21.6077 42.6534C20.715 43.546 19.2679 43.546 18.3753 42.6534C17.4826 41.7608 17.4826 40.3136 18.3753 39.421L31.5073 26.2891Z" fill="url(#paint7_linear_290_2928)" stroke="url(#paint8_linear_290_2928)" stroke-width="0.285714"/>
</g>
<g filter="url(#filter1_ii_290_2928)">
<path d="M24.1414 25.7253L24.9495 26.0487L25.7575 25.7253L25.4345 26.5334L25.7575 27.3415L24.9495 27.0184L24.1414 27.3415L24.4647 26.5334L24.1414 25.7253Z" fill="url(#paint9_linear_290_2928)" fill-opacity="0.5"/>
<path d="M24.8965 26.1812L24.9496 26.2024L25.0025 26.181L25.501 25.9817L25.3018 26.4803L25.2806 26.5334L25.3018 26.5865L25.501 27.085L25.0025 26.8857L24.9496 26.8643L24.8965 26.8855L24.3977 27.085L24.5972 26.5865L24.6187 26.5334L24.5972 26.4805L24.3977 25.9817L24.8965 26.1812Z" stroke="white" stroke-opacity="0.3" stroke-width="0.285714"/>
</g>
<g filter="url(#filter2_d_290_2928)">
<path d="M31.2156 23.9055L34.2461 25.1177L37.2765 23.9055L36.0641 26.936L37.2765 29.9665L34.2461 28.7543L31.2156 29.9665L32.4277 26.936L31.2156 23.9055Z" fill="url(#paint10_linear_290_2928)"/>
<path d="M31.0133 23.7035C31.094 23.6227 31.2152 23.5979 31.3214 23.6403L34.2457 24.8101L37.1702 23.6403C37.2764 23.5979 37.3976 23.6227 37.4783 23.7035C37.5593 23.7843 37.584 23.9055 37.5414 24.0115L36.3717 26.936L37.5414 29.8603C37.584 29.9665 37.5593 30.0877 37.4783 30.1684C37.3976 30.2494 37.2764 30.2741 37.1702 30.2317L34.2457 29.062L31.3214 30.2317C31.2152 30.2741 31.094 30.2494 31.0133 30.1684C30.9326 30.0877 30.9079 29.9665 30.9502 29.8603L32.1198 26.936L30.9502 24.0115L30.9374 23.971C30.9148 23.8758 30.9426 23.7742 31.0133 23.7035Z" stroke="white" stroke-opacity="0.8" stroke-width="0.571429" stroke-linejoin="round"/>
</g>
<path opacity="0.6" d="M10.8334 25.6313C12.4771 25.6313 13.8096 24.2989 13.8096 22.6551C13.8096 21.0114 12.4771 19.679 10.8334 19.679C9.18966 19.679 7.85718 21.0114 7.85718 22.6551C7.85718 24.2989 9.18966 25.6313 10.8334 25.6313Z" fill="url(#paint11_linear_290_2928)"/>
<g opacity="0.1" filter="url(#filter3_d_290_2928)">
<path d="M12.262 22.1791C12.7223 22.1791 13.0954 21.806 13.0954 21.3458C13.0954 20.8855 12.7223 20.5125 12.262 20.5125C11.8018 20.5125 11.4287 20.8855 11.4287 21.3458C11.4287 21.806 11.8018 22.1791 12.262 22.1791Z" fill="white"/>
<path d="M12.262 20.3933C12.7879 20.3933 13.2143 20.8197 13.2143 21.3457C13.2143 21.8717 12.7879 22.2981 12.262 22.2981C11.736 22.2981 11.3096 21.8717 11.3096 21.3457C11.3096 20.8197 11.736 20.3933 12.262 20.3933Z" stroke="white" stroke-width="0.238095"/>
</g>
<g opacity="0.7">
<path d="M11.6666 21.4648C11.9296 21.4648 12.1428 21.2516 12.1428 20.9886C12.1428 20.7256 11.9296 20.5125 11.6666 20.5125C11.4036 20.5125 11.1904 20.7256 11.1904 20.9886C11.1904 21.2516 11.4036 21.4648 11.6666 21.4648Z" fill="white" fill-opacity="0.3"/>
<path d="M11.6666 21.5243C11.9624 21.5243 12.2023 21.2845 12.2023 20.9886C12.2023 20.6927 11.9624 20.4529 11.6666 20.4529C11.3707 20.4529 11.1309 20.6927 11.1309 20.9886C11.1309 21.2845 11.3707 21.5243 11.6666 21.5243Z" stroke="white" stroke-opacity="0.5" stroke-width="0.119048"/>
</g>
<path opacity="0.12" d="M38.4523 25.6314C40.7535 25.6314 42.619 23.7659 42.619 21.4648C42.619 19.1636 40.7535 17.2981 38.4523 17.2981C36.1511 17.2981 34.2856 19.1636 34.2856 21.4648C34.2856 23.7659 36.1511 25.6314 38.4523 25.6314Z" fill="url(#paint12_linear_290_2928)"/>
<path d="M36.1904 3.72681H11.1904C5.79902 3.72681 1.42847 8.09736 1.42847 13.4887V38.4887C1.42847 43.8801 5.79902 48.2506 11.1904 48.2506H36.1904C41.5817 48.2506 45.9523 43.8801 45.9523 38.4887V13.4887C45.9523 8.09736 41.5817 3.72681 36.1904 3.72681Z" stroke="url(#paint13_linear_290_2928)" stroke-width="2.85714"/>
</g>
<defs>
<filter id="filter0_d_290_2928" x="5.30831" y="9.74414" width="36.0074" height="36.0074" filterUnits="userSpaceOnUse" color-interpolation-filters="sRGB">
<feFlood flood-opacity="0" result="BackgroundImageFix"/>
<feColorMatrix in="SourceAlpha" type="matrix" values="0 0 0 0 0 0 0 0 0 0 0 0 0 0 0 0 0 0 127 0" result="hardAlpha"/>
<feOffset dy="1.14286"/>
<feGaussianBlur stdDeviation="0.571429"/>
<feComposite in2="hardAlpha" operator="out"/>
<feColorMatrix type="matrix" values="0 0 0 0 0 0 0 0 0 0 0 0 0 0 0 0 0 0 0.25 0"/>
<feBlend mode="normal" in2="BackgroundImageFix" result="effect1_dropShadow_290_2928"/>
<feBlend mode="normal" in="SourceGraphic" in2="effect1_dropShadow_290_2928" result="shape"/>
</filter>
<filter id="filter1_ii_290_2928" x="24.1411" y="25.7253" width="1.90217" height="2.75907" filterUnits="userSpaceOnUse" color-interpolation-filters="sRGB">
<feFlood flood-opacity="0" result="BackgroundImageFix"/>
<feBlend mode="normal" in="SourceGraphic" in2="BackgroundImageFix" result="shape"/>
<feColorMatrix in="SourceAlpha" type="matrix" values="0 0 0 0 0 0 0 0 0 0 0 0 0 0 0 0 0 0 127 0" result="hardAlpha"/>
<feOffset dx="0.285714" dy="0.285714"/>
<feGaussianBlur stdDeviation="0.47619"/>
<feComposite in2="hardAlpha" operator="arithmetic" k2="-1" k3="1"/>
<feColorMatrix type="matrix" values="0 0 0 0 1 0 0 0 0 1 0 0 0 0 1 0 0 0 0.2 0"/>
<feBlend mode="normal" in2="shape" result="effect1_innerShadow_290_2928"/>
<feColorMatrix in="SourceAlpha" type="matrix" values="0 0 0 0 0 0 0 0 0 0 0 0 0 0 0 0 0 0 127 0" result="hardAlpha"/>
<feOffset dy="1.14286"/>
<feGaussianBlur stdDeviation="0.571429"/>
<feComposite in2="hardAlpha" operator="arithmetic" k2="-1" k3="1"/>
<feColorMatrix type="matrix" values="0 0 0 0 1 0 0 0 0 1 0 0 0 0 1 0 0 0 0.3 0"/>
<feBlend mode="normal" in2="effect1_innerShadow_290_2928" result="effect2_innerShadow_290_2928"/>
</filter>
<filter id="filter2_d_290_2928" x="29.5012" y="23.3342" width="9.48933" height="9.48933" filterUnits="userSpaceOnUse" color-interpolation-filters="sRGB">
<feFlood flood-opacity="0" result="BackgroundImageFix"/>
<feColorMatrix in="SourceAlpha" type="matrix" values="0 0 0 0 0 0 0 0 0 0 0 0 0 0 0 0 0 0 127 0" result="hardAlpha"/>
<feOffset dy="1.14286"/>
<feGaussianBlur stdDeviation="0.571429"/>
<feComposite in2="hardAlpha" operator="out"/>
<feColorMatrix type="matrix" values="0 0 0 0 0 0 0 0 0 0 0 0 0 0 0 0 0 0 0.25 0"/>
<feBlend mode="normal" in2="BackgroundImageFix" result="effect1_dropShadow_290_2928"/>
<feBlend mode="normal" in="SourceGraphic" in2="effect1_dropShadow_290_2928" result="shape"/>
</filter>
<filter id="filter3_d_290_2928" x="10.238" y="20.2742" width="4.04783" height="4.04783" filterUnits="userSpaceOnUse" color-interpolation-filters="sRGB">
<feFlood flood-opacity="0" result="BackgroundImageFix"/>
<feColorMatrix in="SourceAlpha" type="matrix" values="0 0 0 0 0 0 0 0 0 0 0 0 0 0 0 0 0 0 127 0" result="hardAlpha"/>
<feOffset dy="0.952381"/>
<feGaussianBlur stdDeviation="0.47619"/>
<feComposite in2="hardAlpha" operator="out"/>
<feColorMatrix type="matrix" values="0 0 0 0 0 0 0 0 0 0 0 0 0 0 0 0 0 0 0.25 0"/>
<feBlend mode="normal" in2="BackgroundImageFix" result="effect1_dropShadow_290_2928"/>
<feBlend mode="normal" in="SourceGraphic" in2="effect1_dropShadow_290_2928" result="shape"/>
</filter>
<linearGradient id="paint0_linear_290_2928" x1="22.8572" y1="14.79" x2="8.2858" y2="18.8376" gradientUnits="userSpaceOnUse">
<stop stop-color="#A855F7"/>
<stop offset="0.754808" stop-color="#3B82F6"/>
</linearGradient>
<linearGradient id="paint1_linear_290_2928" x1="19.9629" y1="19.2906" x2="36.8682" y2="4.83433" gradientUnits="userSpaceOnUse">
<stop offset="0.0865385" stop-color="#A855F7"/>
<stop offset="0.995192" stop-color="#3B82F6"/>
</linearGradient>
<linearGradient id="paint2_linear_290_2928" x1="19.6126" y1="6.31335" x2="43.6037" y2="30.3044" gradientUnits="userSpaceOnUse">
<stop stop-color="white"/>
<stop offset="1" stop-color="#9333EA" stop-opacity="0.3"/>
</linearGradient>
<linearGradient id="paint3_linear_290_2928" x1="6.69093" y1="30.7675" x2="28.9355" y2="28.1756" gradientUnits="userSpaceOnUse">
<stop offset="0.0865385" stop-color="#A855F7"/>
<stop offset="0.995192" stop-color="#3B82F6"/>
</linearGradient>
<linearGradient id="paint4_linear_290_2928" x1="13.9304" y1="21.8445" x2="16.9609" y2="24.8749" gradientUnits="userSpaceOnUse">
<stop stop-color="white"/>
<stop offset="1" stop-color="#9333EA" stop-opacity="0.3"/>
</linearGradient>
<linearGradient id="paint5_linear_290_2928" x1="12.2468" y1="36.3231" x2="34.4913" y2="33.7315" gradientUnits="userSpaceOnUse">
<stop offset="0.0865385" stop-color="#A855F7"/>
<stop offset="0.995192" stop-color="#3B82F6"/>
</linearGradient>
<linearGradient id="paint6_linear_290_2928" x1="19.4863" y1="27.4001" x2="22.5168" y2="30.4305" gradientUnits="userSpaceOnUse">
<stop stop-color="white"/>
<stop offset="1" stop-color="#9333EA" stop-opacity="0.3"/>
</linearGradient>
<linearGradient id="paint7_linear_290_2928" x1="17.8027" y1="41.8789" x2="40.0473" y2="39.2872" gradientUnits="userSpaceOnUse">
<stop offset="0.0865385" stop-color="#A855F7"/>
<stop offset="0.995192" stop-color="#3B82F6"/>
</linearGradient>
<linearGradient id="paint8_linear_290_2928" x1="25.0423" y1="32.956" x2="28.0728" y2="35.9865" gradientUnits="userSpaceOnUse">
<stop stop-color="white"/>
<stop offset="1" stop-color="#9333EA" stop-opacity="0.3"/>
</linearGradient>
<linearGradient id="paint9_linear_290_2928" x1="23.7822" y1="26.9825" x2="25.954" y2="25.7884" gradientUnits="userSpaceOnUse">
<stop offset="0.0865385" stop-color="#A855F7"/>
<stop offset="0.995192" stop-color="#3B82F6"/>
</linearGradient>
<linearGradient id="paint10_linear_290_2928" x1="29.8684" y1="28.6193" x2="38.013" y2="24.1422" gradientUnits="userSpaceOnUse">
<stop offset="0.0865385" stop-color="#A855F7"/>
<stop offset="0.995192" stop-color="#3B82F6"/>
</linearGradient>
<linearGradient id="paint11_linear_290_2928" x1="13.8096" y1="22.2583" x2="8.45242" y2="23.7464" gradientUnits="userSpaceOnUse">
<stop stop-color="#A855F7"/>
<stop offset="0.754808" stop-color="#3B82F6"/>
</linearGradient>
<linearGradient id="paint12_linear_290_2928" x1="42.619" y1="20.9092" x2="35.119" y2="22.9925" gradientUnits="userSpaceOnUse">
<stop stop-color="#A855F7"/>
<stop offset="0.754808" stop-color="#3B82F6"/>
</linearGradient>
<linearGradient id="paint13_linear_290_2928" x1="2.85704" y1="25.9888" x2="44.5237" y2="25.9888" gradientUnits="userSpaceOnUse">
<stop stop-color="#A855F7"/>
<stop offset="0.754808" stop-color="#3B82F6"/>
</linearGradient>
<clipPath id="clip0_290_2928">
<rect width="50" height="49.7619" fill="white"/>
</clipPath>
</defs>
</svg>
