<svg width="20" height="20" viewBox="0 0 20 20" fill="none" xmlns="http://www.w3.org/2000/svg">
<path d="M9.99968 14.1667C10.4417 14.1667 10.8657 14.3423 11.1782 14.6548C11.4908 14.9674 11.6664 15.3913 11.6664 15.8333C11.6664 16.2754 11.4908 16.6993 11.1782 17.0118C10.8657 17.3244 10.4417 17.5 9.99968 17.5C9.55765 17.5 9.13373 17.3244 8.82117 17.0118C8.50861 16.6993 8.33301 16.2754 8.33301 15.8333C8.33301 15.3913 8.50861 14.9674 8.82117 14.6548C9.13373 14.3423 9.55765 14.1667 9.99968 14.1667ZM9.99968 8.33333C10.4417 8.33333 10.8657 8.50893 11.1782 8.82149C11.4908 9.13405 11.6664 9.55797 11.6664 10C11.6664 10.442 11.4908 10.866 11.1782 11.1785C10.8657 11.4911 10.4417 11.6667 9.99968 11.6667C9.55765 11.6667 9.13373 11.4911 8.82117 11.1785C8.50861 10.866 8.33301 10.442 8.33301 10C8.33301 9.55797 8.50861 9.13405 8.82117 8.82149C9.13373 8.50893 9.55765 8.33333 9.99968 8.33333ZM9.99968 2.5C10.4417 2.5 10.8657 2.67559 11.1782 2.98816C11.4908 3.30072 11.6664 3.72464 11.6664 4.16667C11.6664 4.60869 11.4908 5.03262 11.1782 5.34518C10.8657 5.65774 10.4417 5.83333 9.99968 5.83333C9.55765 5.83333 9.13373 5.65774 8.82117 5.34518C8.50861 5.03262 8.33301 4.60869 8.33301 4.16667C8.33301 3.72464 8.50861 3.30072 8.82117 2.98816C9.13373 2.67559 9.55765 2.5 9.99968 2.5Z" fill="#9CA3AF"/>
</svg>
