<svg width="28" height="28" viewBox="0 0 28 28" fill="none" xmlns="http://www.w3.org/2000/svg">
<path d="M13.9028 7.19434C13.4188 7.19434 13.0278 7.58535 13.0278 8.06934V8.59434C11.0317 8.99901 9.52777 10.7654 9.52777 12.8818V13.3959C9.52777 14.6811 9.05473 15.9225 8.20158 16.885L7.99928 17.1119C7.76958 17.3689 7.7149 17.7381 7.85438 18.0525C7.99376 18.367 8.30822 18.5693 8.65277 18.5693H19.1528C19.4973 18.5693 19.8091 18.367 19.9512 18.0525C20.0934 17.7381 20.036 17.3689 19.8063 17.1119L19.604 16.885C18.7508 15.9225 18.2778 14.6838 18.2778 13.3959V12.8818C18.2778 10.7654 16.7739 8.99901 14.7778 8.59434V8.06934C14.7778 7.58535 14.3868 7.19434 13.9028 7.19434ZM15.1415 20.683C15.4696 20.3549 15.6528 19.9092 15.6528 19.4443H13.9028H12.1528C12.1528 19.9092 12.336 20.3549 12.6641 20.683C12.9922 21.0112 13.438 21.1943 13.9028 21.1943C14.3677 21.1943 14.8133 21.0112 15.1415 20.683Z" fill="#4B5563"/>
</svg>
