<svg width="18" height="25" viewBox="0 0 18 25" fill="none" xmlns="http://www.w3.org/2000/svg">
<g clip-path="url(#clip0_290_2904)">
<path d="M5.30487 4.45719C5.65015 4.7676 5.67805 5.29425 5.36764 5.63953L2.85648 8.42971C2.70302 8.60061 2.48678 8.70176 2.25659 8.70524C2.0264 8.70873 1.80668 8.62153 1.64275 8.4611L0.244176 7.06601C-0.0801829 6.73817 -0.0801829 6.20803 0.244176 5.88018C0.568534 5.55234 1.10216 5.55234 1.42652 5.88018L2.1973 6.65097L4.11903 4.51649C4.42945 4.1712 4.95609 4.1433 5.30137 4.4537L5.30487 4.45719ZM5.30487 10.0376C5.65015 10.3479 5.67805 10.8746 5.36764 11.2199L2.85648 14.0101C2.70302 14.181 2.48678 14.2821 2.25659 14.2856C2.0264 14.2891 1.80668 14.2019 1.64275 14.0414L0.244176 12.6463C-0.0836706 12.3185 -0.0836706 11.7884 0.244176 11.464C0.572021 11.1396 1.10216 11.1362 1.42652 11.464L2.1973 12.2348L4.11903 10.1004C4.42945 9.75509 4.95609 9.72714 5.30137 10.0376H5.30487ZM7.81253 6.47309C7.81253 5.85577 8.31128 5.35702 8.92861 5.35702H16.7411C17.3584 5.35702 17.8572 5.85577 17.8572 6.47309C17.8572 7.09043 17.3584 7.58917 16.7411 7.58917H8.92861C8.31128 7.58917 7.81253 7.09043 7.81253 6.47309ZM7.81253 12.0535C7.81253 11.4362 8.31128 10.9374 8.92861 10.9374H16.7411C17.3584 10.9374 17.8572 11.4362 17.8572 12.0535C17.8572 12.6708 17.3584 13.1695 16.7411 13.1695H8.92861C8.31128 13.1695 7.81253 12.6708 7.81253 12.0535ZM5.58039 17.6338C5.58039 17.0165 6.07913 16.5178 6.69646 16.5178H16.7411C17.3584 16.5178 17.8572 17.0165 17.8572 17.6338C17.8572 18.2512 17.3584 18.7499 16.7411 18.7499H6.69646C6.07913 18.7499 5.58039 18.2512 5.58039 17.6338ZM1.67414 15.9597C2.11814 15.9597 2.54395 16.1361 2.85792 16.45C3.17187 16.764 3.34825 17.1898 3.34825 17.6338C3.34825 18.0779 3.17187 18.5037 2.85792 18.8176C2.54395 19.1315 2.11814 19.3079 1.67414 19.3079C1.23014 19.3079 0.804325 19.1315 0.49037 18.8176C0.176413 18.5037 3.47542e-05 18.0779 3.47542e-05 17.6338C3.47542e-05 17.1898 0.176413 16.764 0.49037 16.45C0.804325 16.1361 1.23014 15.9597 1.67414 15.9597Z" fill="#B4AA9C"/>
</g>
<defs>
<clipPath id="clip0_290_2904">
<rect width="17.8571" height="25" fill="white"/>
</clipPath>
</defs>
</svg>
