<svg width="28" height="28" viewBox="0 0 28 28" fill="none" xmlns="http://www.w3.org/2000/svg">
<path d="M20.3654 10.9722C20.4529 11.2101 20.379 11.4753 20.1904 11.6449L19.0064 12.7222C19.0364 12.9491 19.0529 13.1816 19.0529 13.4167C19.0529 13.6519 19.0364 13.8843 19.0064 14.1113L20.1904 15.1886C20.379 15.3582 20.4529 15.6234 20.3654 15.8613C20.2451 16.1866 20.1001 16.4984 19.9334 16.7991L19.8048 17.0207C19.6244 17.3214 19.422 17.6058 19.2006 17.8738C19.0392 18.0707 18.7712 18.1363 18.5307 18.0597L17.0076 17.5758C16.6412 17.8574 16.2364 18.0925 15.8045 18.2702L15.4626 19.8316C15.408 20.0804 15.2165 20.2773 14.965 20.3183C14.5876 20.3812 14.1994 20.414 13.8029 20.414C13.4064 20.414 13.0182 20.3812 12.6408 20.3183C12.3892 20.2773 12.1978 20.0804 12.1432 19.8316L11.8013 18.2702C11.3693 18.0925 10.9646 17.8574 10.5982 17.5758L9.07785 18.0624C8.83729 18.139 8.56926 18.0707 8.40795 17.8765C8.18644 17.6086 7.98414 17.3241 7.8037 17.0234L7.67515 16.8019C7.50835 16.5011 7.36343 16.1894 7.24312 15.864C7.15562 15.6261 7.22945 15.3609 7.41812 15.1913L8.60209 14.114C8.57199 13.8843 8.55565 13.6519 8.55565 13.4167C8.55565 13.1816 8.57199 12.9491 8.60209 12.7222L7.41812 11.6449C7.22945 11.4753 7.15562 11.2101 7.24312 10.9722C7.36343 10.6468 7.50835 10.3351 7.67515 10.0343L7.8037 9.81284C7.98414 9.51207 8.18644 9.22771 8.40795 8.95969C8.56926 8.76284 8.83729 8.69719 9.07785 8.7738L10.6009 9.25774C10.9673 8.9761 11.372 8.74098 11.804 8.56326L12.1459 7.0019C12.2006 6.75307 12.392 6.5562 12.6435 6.51518C13.0209 6.44956 13.4091 6.41675 13.8057 6.41675C14.2021 6.41675 14.5904 6.44956 14.9677 6.51245C15.2193 6.55347 15.4107 6.75034 15.4654 6.99917L15.8072 8.56054C16.2392 8.73826 16.6439 8.97338 17.0103 9.25502L18.5334 8.77108C18.7739 8.69447 19.042 8.76284 19.2033 8.95697C19.4248 9.22491 19.6271 9.50935 19.8076 9.81011L19.9361 10.0316C20.1029 10.3324 20.2478 10.6441 20.3682 10.9695L20.3654 10.9722ZM13.8057 15.6042C14.3858 15.6042 14.9421 15.3738 15.3524 14.9635C15.7626 14.5533 15.9932 13.9969 15.9932 13.4167C15.9932 12.8366 15.7626 12.2802 15.3524 11.87C14.9421 11.4597 14.3858 11.2292 13.8057 11.2292C13.2254 11.2292 12.6691 11.4597 12.2588 11.87C11.8486 12.2802 11.6182 12.8366 11.6182 13.4167C11.6182 13.9969 11.8486 14.5533 12.2588 14.9635C12.6691 15.3738 13.2254 15.6042 13.8057 15.6042Z" fill="#4B5563"/>
</svg>
