<svg width="52" height="9" viewBox="0 0 52 9" fill="none" xmlns="http://www.w3.org/2000/svg">
<path d="M51.3889 4.43908C51.6037 4.2243 51.6037 3.87606 51.3889 3.66127L47.8887 0.161091C47.6739 -0.0536972 47.3257 -0.0536972 47.1109 0.161091C46.8961 0.375879 46.8961 0.72412 47.1109 0.938908L50.2222 4.05018L47.1109 7.16144C46.8961 7.37623 46.8961 7.72447 47.1109 7.93926C47.3257 8.15405 47.6739 8.15405 47.8887 7.93926L51.3889 4.43908ZM4.80825e-08 4.05017L0 4.60017L51 4.60018V4.05018V3.50018L9.6165e-08 3.50017L4.80825e-08 4.05017Z" fill="url(#paint0_linear_290_2803)"/>
<defs>
<linearGradient id="paint0_linear_290_2803" x1="4.80825e-08" y1="4.55" x2="51" y2="4.55" gradientUnits="userSpaceOnUse">
<stop stop-color="#22D3EE"/>
<stop offset="1" stop-color="#3B82F6"/>
</linearGradient>
</defs>
</svg>
