<svg width="16" height="16" viewBox="0 0 16 16" fill="none" xmlns="http://www.w3.org/2000/svg">
<path d="M4.46562 4.06571C6.40938 2.12195 9.55 2.11258 11.5062 4.03445L10.2187 5.31883C10.0031 5.53445 9.94064 5.85633 10.0562 6.13758C10.1718 6.41883 10.4469 6.60007 10.75 6.60007H14.4844H14.75C15.1656 6.60007 15.5 6.26571 15.5 5.85007V1.85007C15.5 1.54695 15.3187 1.27195 15.0375 1.15633C14.7562 1.04071 14.4344 1.1032 14.2187 1.31883L12.9187 2.61883C10.1813 -0.0842969 5.77187 -0.074922 3.05 2.65007C2.2875 3.41258 1.7375 4.30945 1.4 5.26883C1.21562 5.79071 1.49062 6.35945 2.00938 6.54383C2.52813 6.7282 3.1 6.4532 3.28438 5.93445C3.525 5.2532 3.91562 4.61258 4.46562 4.06571ZM0.5 9.3501V9.58762V9.60946V13.3501C0.5 13.6532 0.68125 13.9282 0.962496 14.0439C1.24375 14.1595 1.56562 14.097 1.78125 13.8813L3.08125 12.5813C5.81875 15.2844 10.2282 15.2751 12.95 12.5501C13.7125 11.7876 14.2656 10.8907 14.6031 9.93442C14.7875 9.41258 14.5125 8.84386 13.9938 8.65946C13.475 8.47506 12.9031 8.7501 12.7187 9.26882C12.4782 9.9501 12.0875 10.5907 11.5375 11.1376C9.59376 13.0813 6.45313 13.0907 4.49687 11.1688L5.78125 9.8813C5.99687 9.6657 6.05938 9.34386 5.94375 9.06258C5.82813 8.7813 5.55313 8.6001 5.25 8.6001H1.5125H1.49062H1.25C0.834376 8.6001 0.5 8.93442 0.5 9.3501Z" fill="#717478"/>
</svg>
