<svg width="25" height="24" viewBox="0 0 25 24" fill="none" xmlns="http://www.w3.org/2000/svg">
<g clip-path="url(#clip0_290_2911)">
<path d="M6.97754 6.35247C10.0146 3.31536 14.9219 3.30071 17.9785 6.30363L15.9668 8.31047C15.6299 8.64738 15.5323 9.15032 15.7129 9.58977C15.8935 10.0292 16.3232 10.3124 16.7969 10.3124H22.6319H23.0469C23.6963 10.3124 24.2188 9.78997 24.2188 9.14054V2.89054C24.2188 2.41692 23.9355 1.98723 23.4961 1.80657C23.0566 1.62591 22.5537 1.72356 22.2167 2.06047L20.1855 4.09172C15.9082 -0.131912 9.01855 -0.117264 4.76562 4.14054C3.57422 5.33195 2.71485 6.73332 2.1875 8.23234C1.89941 9.04778 2.3291 9.93644 3.13965 10.2245C3.9502 10.5126 4.84375 10.0829 5.13184 9.27238C5.50781 8.20793 6.11816 7.20695 6.97754 6.35247ZM0.78125 14.6093V14.9805V15.0146V20.8593C0.78125 21.333 1.06445 21.7626 1.5039 21.9433C1.94336 22.124 2.44629 22.0263 2.7832 21.6893L4.81445 19.6581C9.0918 23.8817 15.9815 23.8671 20.2344 19.6093C21.4258 18.418 22.29 17.0166 22.8174 15.5223C23.1055 14.707 22.6758 13.8183 21.8653 13.5302C21.0548 13.2421 20.1611 13.6718 19.873 14.4823C19.4971 15.5468 18.8867 16.5478 18.0274 17.4023C14.9902 20.4393 10.083 20.4541 7.02636 17.4511L9.0332 15.4393C9.37011 15.1025 9.46777 14.5996 9.28711 14.1601C9.10645 13.7206 8.67676 13.4375 8.20312 13.4375H2.36328H2.3291H1.95312C1.30371 13.4375 0.78125 13.9598 0.78125 14.6093Z" fill="#717478"/>
</g>
<defs>
<clipPath id="clip0_290_2911">
<rect width="25" height="23.75" fill="white"/>
</clipPath>
</defs>
</svg>
