<svg width="24" height="25" viewBox="0 0 24 25" fill="none" xmlns="http://www.w3.org/2000/svg">
<g clip-path="url(#clip0_290_2893)">
<mask id="mask0_290_2893" style="mask-type:luminance" maskUnits="userSpaceOnUse" x="0" y="0" width="24" height="25">
<path d="M0 0.595215H23.8095V24.4047H0V0.595215Z" fill="white"/>
</mask>
<g mask="url(#mask0_290_2893)">
<path d="M16.0436 2.41342L21.9867 8.42625C24.4233 10.8909 24.4233 14.853 21.9867 17.3177L16.7783 22.5865C16.3458 23.0235 15.6389 23.0283 15.2018 22.5958C14.7646 22.1632 14.76 21.4563 15.1925 21.0192L20.3962 15.7505C21.9726 14.1554 21.9726 11.5931 20.3962 9.99806L14.4577 3.98523C14.0252 3.5481 14.03 2.84125 14.467 2.40878C14.9042 1.9763 15.6111 1.98094 16.0436 2.41807V2.41342ZM0 11.2676V4.31539C0 3.08306 0.999814 2.08325 2.23214 2.08325H9.18433C9.97489 2.08325 10.7329 2.39482 11.2909 2.95286L19.1035 10.7654C20.266 11.9279 20.266 13.8113 19.1035 14.9738L12.8952 21.1821C11.7327 22.3446 9.84933 22.3446 8.68676 21.1821L0.874256 13.3696C0.31157 12.8115 0 12.0581 0 11.2676ZM6.69643 7.29159C6.69643 6.89692 6.53964 6.51842 6.26057 6.23935C5.9815 5.96028 5.603 5.80349 5.20833 5.80349C4.81367 5.80349 4.43517 5.96028 4.1561 6.23935C3.87702 6.51842 3.72024 6.89692 3.72024 7.29159C3.72024 7.68625 3.87702 8.06475 4.1561 8.34382C4.43517 8.62289 4.81367 8.77968 5.20833 8.77968C5.603 8.77968 5.9815 8.62289 6.26057 8.34382C6.53964 8.06475 6.69643 7.68625 6.69643 7.29159Z" fill="#A3A3A3"/>
</g>
</g>
<defs>
<clipPath id="clip0_290_2893">
<rect width="23.8095" height="25" fill="white"/>
</clipPath>
</defs>
</svg>
