<svg width="24" height="25" viewBox="0 0 24 25" fill="none" xmlns="http://www.w3.org/2000/svg">
<g clip-path="url(#clip0_290_2879)">
<path d="M11.9048 0.595215C15.0621 0.595215 18.0901 1.84946 20.3227 4.08204C22.5552 6.31462 23.8095 9.34264 23.8095 12.5C23.8095 15.6574 22.5552 18.6853 20.3227 20.918C18.0901 23.1505 15.0621 24.4047 11.9048 24.4047C8.74743 24.4047 5.7194 23.1505 3.48682 20.918C1.25425 18.6853 0 15.6574 0 12.5C0 9.34264 1.25425 6.31462 3.48682 4.08204C5.7194 1.84946 8.74743 0.595215 11.9048 0.595215ZM10.7887 6.17557V12.5C10.7887 12.872 10.9747 13.2208 11.2863 13.43L15.7506 16.4062C16.2621 16.7503 16.955 16.6108 17.299 16.0946C17.6432 15.5784 17.5037 14.8902 16.9875 14.5462L13.0208 11.9047V6.17557C13.0208 5.55708 12.5232 5.0595 11.9048 5.0595C11.2863 5.0595 10.7887 5.55708 10.7887 6.17557Z" fill="#717478"/>
</g>
<defs>
<clipPath id="clip0_290_2879">
<rect width="23.8095" height="25" fill="white"/>
</clipPath>
</defs>
</svg>
