<svg width="52" height="9" viewBox="0 0 52 9" fill="none" xmlns="http://www.w3.org/2000/svg">
<path d="M51.3889 4.43908C51.6037 4.2243 51.6037 3.87606 51.3889 3.66127L47.8887 0.161088C47.6739 -0.0537006 47.3257 -0.0537006 47.1109 0.161088C46.8961 0.375876 46.8961 0.724117 47.1109 0.938905L50.2222 4.05018L47.1109 7.16144C46.8961 7.37623 46.8961 7.72447 47.1109 7.93926C47.3257 8.15405 47.6739 8.15405 47.8887 7.93926L51.3889 4.43908ZM0 4.05017L-4.80825e-08 4.60017L51 4.60018L51 4.05018L51 3.50018L4.80825e-08 3.50017L0 4.05017Z" fill="url(#paint0_linear_201_715)"/>
<defs>
<linearGradient id="paint0_linear_201_715" x1="-4.37114e-08" y1="4.55017" x2="51" y2="4.55018" gradientUnits="userSpaceOnUse">
<stop stop-color="#22D3EE"/>
<stop offset="1" stop-color="#3B82F6"/>
</linearGradient>
</defs>
</svg>
