<svg width="18" height="19" viewBox="0 0 18 19" fill="none" xmlns="http://www.w3.org/2000/svg">
<path d="M15.8329 0.833333C16.275 0.833333 16.6989 1.00893 17.0114 1.32149C17.324 1.63405 17.4996 2.05797 17.4996 2.5V14.1667C17.4996 14.6087 17.324 15.0326 17.0114 15.3452C16.6989 15.6577 16.275 15.8333 15.8329 15.8333H2.4996C2.05758 15.8333 1.63365 15.6577 1.32109 15.3452C1.00853 15.0326 0.832936 14.6087 0.832936 14.1667V9.16667C0.832936 8.94565 0.920734 8.73369 1.07701 8.57741C1.23329 8.42113 1.44526 8.33333 1.66627 8.33333C1.88728 8.33333 2.09925 8.42113 2.25553 8.57741C2.41181 8.73369 2.4996 8.94565 2.4996 9.16667V10.9167L6.6621 6.755C6.75883 6.65824 6.87368 6.58149 7.00008 6.52912C7.12648 6.47676 7.26195 6.44981 7.39877 6.44981C7.53559 6.44981 7.67106 6.47676 7.79746 6.52912C7.92386 6.58149 8.0387 6.65824 8.13544 6.755L11.5229 10.1433L12.5546 9.11167C12.6513 9.01491 12.7662 8.93816 12.8926 8.88579C13.019 8.83342 13.1545 8.80647 13.2913 8.80647C13.4281 8.80647 13.5636 8.83342 13.69 8.88579C13.8164 8.93816 13.9312 9.01491 14.0279 9.11167L15.8329 10.9175V2.5H9.16627C8.94526 2.5 8.73329 2.4122 8.57701 2.25592C8.42073 2.09964 8.33294 1.88768 8.33294 1.66667C8.33294 1.44565 8.42073 1.23369 8.57701 1.07741C8.73329 0.921131 8.94526 0.833333 9.16627 0.833333H15.8329ZM3.33294 0C3.48884 -3.47214e-07 3.64161 0.0437318 3.7739 0.126226C3.90618 0.208721 4.01267 0.326669 4.08127 0.466667L4.12127 0.564167L4.2296 0.879167C4.34394 1.21432 4.52817 1.52136 4.7701 1.77995C5.01203 2.03855 5.30613 2.24279 5.63294 2.37917L5.7871 2.4375L6.1021 2.545C6.25805 2.59831 6.39469 2.69667 6.49474 2.82763C6.59479 2.95859 6.65376 3.11628 6.6642 3.28076C6.67464 3.44524 6.63607 3.60912 6.55337 3.75168C6.47067 3.89424 6.34756 4.00907 6.1996 4.08167L6.1021 4.12167L5.7871 4.23C5.45195 4.34433 5.14491 4.52857 4.88632 4.77049C4.62772 5.01242 4.42348 5.30653 4.2871 5.63333L4.22877 5.7875L4.12127 6.1025C4.06796 6.25845 3.9696 6.39509 3.83864 6.49514C3.70768 6.59519 3.54999 6.65416 3.38551 6.6646C3.22103 6.67503 3.05715 6.63646 2.91459 6.55377C2.77203 6.47107 2.6572 6.34796 2.5846 6.2L2.5446 6.1025L2.43627 5.7875C2.32194 5.45235 2.1377 5.14531 1.89578 4.88671C1.65385 4.62812 1.35974 4.42387 1.03294 4.2875L0.87877 4.22917L0.56377 4.12167C0.407822 4.06836 0.271184 3.97 0.171132 3.83904C0.0710808 3.70807 0.0121087 3.55038 0.00167274 3.3859C-0.0087632 3.22143 0.0298057 3.05755 0.112503 2.91499C0.1952 2.77243 0.318311 2.65759 0.46627 2.585L0.56377 2.545L0.87877 2.43667C1.21392 2.32233 1.52096 2.1381 1.77956 1.89617C2.03815 1.65424 2.2424 1.36014 2.37877 1.03333L2.4371 0.879167L2.5446 0.564167C2.60075 0.399656 2.70694 0.256821 2.84829 0.155658C2.98965 0.0544952 3.15911 6.9356e-05 3.33294 0ZM12.0829 4.16667C12.4145 4.16667 12.7324 4.29836 12.9668 4.53278C13.2012 4.7672 13.3329 5.08515 13.3329 5.41667C13.3329 5.74819 13.2012 6.06613 12.9668 6.30055C12.7324 6.53497 12.4145 6.66667 12.0829 6.66667C11.7514 6.66667 11.4335 6.53497 11.1991 6.30055C10.9646 6.06613 10.8329 5.74819 10.8329 5.41667C10.8329 5.08515 10.9646 4.7672 11.1991 4.53278C11.4335 4.29836 11.7514 4.16667 12.0829 4.16667Z" fill="#4B5563"/>
</svg>
