<svg width="17" height="17" viewBox="0 0 17 17" fill="none" xmlns="http://www.w3.org/2000/svg">
<path d="M8.33333 0C12.9358 0 16.6667 3.73083 16.6667 8.33333C16.6667 12.9358 12.9358 16.6667 8.33333 16.6667C3.73083 16.6667 0 12.9358 0 8.33333C0 3.73083 3.73083 0 8.33333 0ZM8.33333 1.66667C6.56522 1.66667 4.86953 2.36905 3.61929 3.61929C2.36905 4.86953 1.66667 6.56522 1.66667 8.33333C1.66667 10.1014 2.36905 11.7971 3.61929 13.0474C4.86953 14.2976 6.56522 15 8.33333 15C10.1014 15 11.7971 14.2976 13.0474 13.0474C14.2976 11.7971 15 10.1014 15 8.33333C15 6.56522 14.2976 4.86953 13.0474 3.61929C11.7971 2.36905 10.1014 1.66667 8.33333 1.66667ZM10.6667 9.88083C10.7444 9.8024 10.837 9.7402 10.939 9.69786C11.041 9.65551 11.1504 9.63387 11.2608 9.63417C11.3712 9.63447 11.4805 9.65673 11.5823 9.69964C11.684 9.74254 11.7762 9.80525 11.8536 9.88411C11.9309 9.96297 11.9917 10.0564 12.0326 10.159C12.0735 10.2616 12.0936 10.3713 12.0917 10.4817C12.0898 10.5921 12.066 10.7011 12.0217 10.8022C11.9773 10.9033 11.9133 10.9947 11.8333 11.0708C10.8997 11.9884 9.64243 12.5018 8.33333 12.5C7.02424 12.5018 5.767 11.9884 4.83333 11.0708C4.67919 10.9153 4.59244 10.7054 4.59184 10.4865C4.59123 10.2675 4.67682 10.0571 4.83011 9.90077C4.98339 9.74443 5.19204 9.65469 5.41096 9.65095C5.62988 9.64722 5.84148 9.7298 6 9.88083C6.62215 10.493 7.46052 10.8352 8.33333 10.8333C9.24167 10.8333 10.0642 10.4708 10.6667 9.88083ZM5.41667 5C5.74819 5 6.06613 5.1317 6.30055 5.36612C6.53497 5.60054 6.66667 5.91848 6.66667 6.25C6.66667 6.58152 6.53497 6.89946 6.30055 7.13388C6.06613 7.3683 5.74819 7.5 5.41667 7.5C5.08515 7.5 4.7672 7.3683 4.53278 7.13388C4.29836 6.89946 4.16667 6.58152 4.16667 6.25C4.16667 5.91848 4.29836 5.60054 4.53278 5.36612C4.7672 5.1317 5.08515 5 5.41667 5ZM11.25 5C11.5815 5 11.8995 5.1317 12.1339 5.36612C12.3683 5.60054 12.5 5.91848 12.5 6.25C12.5 6.58152 12.3683 6.89946 12.1339 7.13388C11.8995 7.3683 11.5815 7.5 11.25 7.5C10.9185 7.5 10.6005 7.3683 10.3661 7.13388C10.1317 6.89946 10 6.58152 10 6.25C10 5.91848 10.1317 5.60054 10.3661 5.36612C10.6005 5.1317 10.9185 5 11.25 5Z" fill="#4B5563"/>
</svg>
