<svg width="60" height="60" viewBox="0 0 60 60" fill="none" xmlns="http://www.w3.org/2000/svg">
<g filter="url(#filter0_d_306_86)">
<path d="M17.3194 12.9897C17.8189 12.4902 18.5234 12.2241 19.4048 12.1652L19.7935 12.1521L19.8011 12.1528H19.808L42.99 13.6989L43.378 13.7113C44.2595 13.7701 44.9639 14.0364 45.4635 14.5358C46.0343 15.1067 46.301 15.9455 46.3011 17.01L47.8472 40.1919V40.2057C47.8472 41.2704 47.5812 42.1097 47.0103 42.6806C46.4393 43.2515 45.6 43.5175 44.5354 43.5175C43.4711 43.5174 42.6327 43.2513 42.0619 42.6806C41.491 42.1097 41.2243 41.2709 41.2243 40.2064V21.649C41.2242 20.652 40.975 19.9441 40.5151 19.4842C40.0551 19.0244 39.3473 18.775 38.3503 18.775L19.7935 18.7757C18.729 18.7757 17.8903 18.509 17.3194 17.9381C16.7485 17.3672 16.4817 16.5285 16.4817 15.4639C16.4817 14.3993 16.7485 13.5607 17.3194 12.9897Z" fill="url(#paint0_linear_306_86)" stroke="url(#paint1_linear_306_86)" stroke-width="0.437385"/>
<path d="M23.8454 18.5879C24.9385 17.4947 26.711 17.4942 27.8042 18.5872C28.8974 19.6803 28.8974 21.4535 27.8042 22.5467L11.7217 38.6292C10.6285 39.7222 8.85598 39.7216 7.76287 38.6285C6.66996 37.5354 6.66996 35.7635 7.76287 34.6704L23.8454 18.5879Z" fill="url(#paint2_linear_306_86)" stroke="url(#paint3_linear_306_86)" stroke-width="0.349908"/>
<path d="M30.6494 25.3919C31.7425 24.2988 33.515 24.2983 34.6082 25.3912C35.7014 26.4844 35.7014 28.2576 34.6082 29.3508L18.5257 45.4333C17.4325 46.5263 15.6599 46.5257 14.5668 45.4326C13.4739 44.3395 13.4739 42.5676 14.5668 41.4745L30.6494 25.3919Z" fill="url(#paint4_linear_306_86)" stroke="url(#paint5_linear_306_86)" stroke-width="0.349908"/>
<path d="M37.4536 32.1961C38.5467 31.103 40.3192 31.1025 41.4124 32.1954C42.5056 33.2886 42.5056 35.0618 41.4124 36.155L25.3299 52.2375C24.2367 53.3305 22.4641 53.3299 21.371 52.2368C20.2781 51.1437 20.2781 49.3718 21.371 48.2787L37.4536 32.1961Z" fill="url(#paint6_linear_306_86)" stroke="url(#paint7_linear_306_86)" stroke-width="0.349908"/>
</g>
<g filter="url(#filter1_di_306_86)">
<path d="M28.433 31.5051L29.4227 31.901L30.4124 31.5051L30.0166 32.4948L30.4124 33.4845L29.4227 33.0886L28.433 33.4845L28.8289 32.4948L28.433 31.5051Z" fill="url(#paint8_linear_306_86)" fill-opacity="0.5" shape-rendering="crispEdges"/>
<path d="M29.3582 32.0632L29.4231 32.0895L29.488 32.0632L30.0985 31.8188L29.8547 32.4299L29.8285 32.4948L29.8547 32.5597L30.0985 33.1708L29.488 32.9264L29.4231 32.9001L29.3582 32.9264L28.7464 33.1708L28.9915 32.5597L29.0178 32.4948L28.9915 32.4299L28.7464 31.8188L29.3582 32.0632Z" stroke="white" stroke-opacity="0.3" stroke-width="0.349908" shape-rendering="crispEdges"/>
</g>
<g filter="url(#filter2_d_306_86)">
<path d="M37.0966 29.2765L40.8079 30.761L44.5193 29.2765L43.0347 32.9878L44.5193 36.6992L40.8079 35.2146L37.0966 36.6992L38.5811 32.9878L37.0966 29.2765Z" fill="url(#paint9_linear_306_86)"/>
<path d="M36.8497 29.029C36.9486 28.9303 37.0969 28.8997 37.2267 28.9517L40.8071 30.3845L44.3889 28.9517C44.5189 28.8997 44.6677 28.9307 44.7666 29.0297C44.8654 29.1287 44.8959 29.2769 44.844 29.4067L43.4104 32.9878L44.844 36.5689C44.8959 36.6988 44.8654 36.847 44.7666 36.946C44.6677 37.045 44.5189 37.076 44.3889 37.024L40.8071 35.5912L37.2267 37.024C37.0969 37.0759 36.9486 37.0454 36.8497 36.9467C36.7507 36.8477 36.7196 36.6989 36.7716 36.5689L38.2038 32.9878L36.7716 29.4067C36.7196 29.2768 36.7507 29.128 36.8497 29.029Z" stroke="white" stroke-opacity="0.8" stroke-width="0.699817" stroke-linejoin="round"/>
</g>
<defs>
<filter id="filter0_d_306_86" x="5.36843" y="11.9338" width="44.0974" height="44.0975" filterUnits="userSpaceOnUse" color-interpolation-filters="sRGB">
<feFlood flood-opacity="0" result="BackgroundImageFix"/>
<feColorMatrix in="SourceAlpha" type="matrix" values="0 0 0 0 0 0 0 0 0 0 0 0 0 0 0 0 0 0 127 0" result="hardAlpha"/>
<feOffset dy="1.39963"/>
<feGaussianBlur stdDeviation="0.699817"/>
<feComposite in2="hardAlpha" operator="out"/>
<feColorMatrix type="matrix" values="0 0 0 0 0 0 0 0 0 0 0 0 0 0 0 0 0 0 0.25 0"/>
<feBlend mode="normal" in2="BackgroundImageFix" result="effect1_dropShadow_306_86"/>
<feBlend mode="normal" in="SourceGraphic" in2="effect1_dropShadow_306_86" result="shape"/>
</filter>
<filter id="filter1_di_306_86" x="11.9874" y="15.0594" width="35.5704" height="35.5707" filterUnits="userSpaceOnUse" color-interpolation-filters="sRGB">
<feFlood flood-opacity="0" result="BackgroundImageFix"/>
<feColorMatrix in="SourceAlpha" type="matrix" values="0 0 0 0 0 0 0 0 0 0 0 0 0 0 0 0 0 0 127 0" result="hardAlpha"/>
<feMorphology radius="16.7956" operator="dilate" in="SourceAlpha" result="effect1_dropShadow_306_86"/>
<feOffset dx="0.349908" dy="0.349908"/>
<feComposite in2="hardAlpha" operator="out"/>
<feColorMatrix type="matrix" values="0 0 0 0 1 0 0 0 0 1 0 0 0 0 1 0 0 0 0.2 0"/>
<feBlend mode="normal" in2="BackgroundImageFix" result="effect1_dropShadow_306_86"/>
<feBlend mode="normal" in="SourceGraphic" in2="effect1_dropShadow_306_86" result="shape"/>
<feColorMatrix in="SourceAlpha" type="matrix" values="0 0 0 0 0 0 0 0 0 0 0 0 0 0 0 0 0 0 127 0" result="hardAlpha"/>
<feOffset dy="1.39963"/>
<feGaussianBlur stdDeviation="0.699817"/>
<feComposite in2="hardAlpha" operator="arithmetic" k2="-1" k3="1"/>
<feColorMatrix type="matrix" values="0 0 0 0 1 0 0 0 0 1 0 0 0 0 1 0 0 0 0.3 0"/>
<feBlend mode="normal" in2="shape" result="effect2_innerShadow_306_86"/>
</filter>
<filter id="filter2_d_306_86" x="34.9971" y="28.5767" width="11.6215" height="11.6215" filterUnits="userSpaceOnUse" color-interpolation-filters="sRGB">
<feFlood flood-opacity="0" result="BackgroundImageFix"/>
<feColorMatrix in="SourceAlpha" type="matrix" values="0 0 0 0 0 0 0 0 0 0 0 0 0 0 0 0 0 0 127 0" result="hardAlpha"/>
<feOffset dy="1.39963"/>
<feGaussianBlur stdDeviation="0.699817"/>
<feComposite in2="hardAlpha" operator="out"/>
<feColorMatrix type="matrix" values="0 0 0 0 0 0 0 0 0 0 0 0 0 0 0 0 0 0 0.25 0"/>
<feBlend mode="normal" in2="BackgroundImageFix" result="effect1_dropShadow_306_86"/>
<feBlend mode="normal" in="SourceGraphic" in2="effect1_dropShadow_306_86" result="shape"/>
</filter>
<linearGradient id="paint0_linear_306_86" x1="23.3155" y1="23.6249" x2="44.0189" y2="5.92065" gradientUnits="userSpaceOnUse">
<stop offset="0.0865385" stop-color="#A855F7"/>
<stop offset="0.995192" stop-color="#3B82F6"/>
</linearGradient>
<linearGradient id="paint1_linear_306_86" x1="22.8865" y1="7.73196" x2="52.2679" y2="37.1134" gradientUnits="userSpaceOnUse">
<stop stop-color="white"/>
<stop offset="1" stop-color="#9333EA" stop-opacity="0.3"/>
</linearGradient>
<linearGradient id="paint2_linear_306_86" x1="7.06187" y1="37.6803" x2="34.3043" y2="34.5063" gradientUnits="userSpaceOnUse">
<stop offset="0.0865385" stop-color="#A855F7"/>
<stop offset="0.995192" stop-color="#3B82F6"/>
</linearGradient>
<linearGradient id="paint3_linear_306_86" x1="15.9279" y1="26.7526" x2="19.6392" y2="30.4639" gradientUnits="userSpaceOnUse">
<stop stop-color="white"/>
<stop offset="1" stop-color="#9333EA" stop-opacity="0.3"/>
</linearGradient>
<linearGradient id="paint4_linear_306_86" x1="13.8658" y1="44.4844" x2="41.1082" y2="41.3104" gradientUnits="userSpaceOnUse">
<stop offset="0.0865385" stop-color="#A855F7"/>
<stop offset="0.995192" stop-color="#3B82F6"/>
</linearGradient>
<linearGradient id="paint5_linear_306_86" x1="22.7319" y1="33.5566" x2="26.4432" y2="37.268" gradientUnits="userSpaceOnUse">
<stop stop-color="white"/>
<stop offset="1" stop-color="#9333EA" stop-opacity="0.3"/>
</linearGradient>
<linearGradient id="paint6_linear_306_86" x1="20.67" y1="51.2886" x2="47.9124" y2="48.1146" gradientUnits="userSpaceOnUse">
<stop offset="0.0865385" stop-color="#A855F7"/>
<stop offset="0.995192" stop-color="#3B82F6"/>
</linearGradient>
<linearGradient id="paint7_linear_306_86" x1="29.5361" y1="40.3608" x2="33.2474" y2="44.0722" gradientUnits="userSpaceOnUse">
<stop stop-color="white"/>
<stop offset="1" stop-color="#9333EA" stop-opacity="0.3"/>
</linearGradient>
<linearGradient id="paint8_linear_306_86" x1="27.9932" y1="33.0446" x2="30.653" y2="31.5824" gradientUnits="userSpaceOnUse">
<stop offset="0.0865385" stop-color="#A855F7"/>
<stop offset="0.995192" stop-color="#3B82F6"/>
</linearGradient>
<linearGradient id="paint9_linear_306_86" x1="35.447" y1="35.0496" x2="45.4214" y2="29.5664" gradientUnits="userSpaceOnUse">
<stop offset="0.0865385" stop-color="#A855F7"/>
<stop offset="0.995192" stop-color="#3B82F6"/>
</linearGradient>
</defs>
</svg>
