<svg width="25" height="25" viewBox="0 0 25 25" fill="none" xmlns="http://www.w3.org/2000/svg">
<path fill-rule="evenodd" clip-rule="evenodd" d="M19.5312 19.7157C20.0109 19.286 20.3125 18.6625 20.3125 17.9688V10.9016C20.3126 10.5426 20.2302 10.1884 20.0717 9.86629C19.9133 9.54418 19.6829 9.26278 19.3984 9.0438L13.9297 4.83755C13.5199 4.52206 13.0172 4.35099 12.5 4.35099C11.9828 4.35099 11.4801 4.52206 11.0703 4.83755L5.60156 9.0438C5.31689 9.26294 5.0864 9.54459 4.92791 9.867C4.76942 10.1894 4.68717 10.5439 4.6875 10.9032V17.9688C4.68668 18.2759 4.74638 18.5801 4.86319 18.8642C4.98 19.1482 5.15163 19.4064 5.36827 19.624C5.58491 19.8417 5.84232 20.0145 6.12578 20.1327C6.40925 20.2508 6.71322 20.3119 7.02031 20.3125H7.8125V14.8438C7.8125 14.015 8.14174 13.2201 8.72779 12.6341C9.31384 12.048 10.1087 11.7188 10.9375 11.7188H14.0625C14.8913 11.7188 15.6862 12.048 16.2722 12.6341C16.8583 13.2201 17.1875 14.015 17.1875 14.8438V20.3125H17.9797C18.575 20.3094 19.1203 20.0844 19.5312 19.7157ZM22.6562 17.9688C22.6562 19.212 22.1624 20.4043 21.2833 21.2834C20.4042 22.1624 19.212 22.6563 17.9688 22.6563H7.03125C5.78805 22.6563 4.59576 22.1624 3.71669 21.2834C2.83761 20.4043 2.34375 19.212 2.34375 17.9688V10.9016C2.3438 10.1839 2.50866 9.47578 2.82561 8.83184C3.14257 8.18791 3.60316 7.62535 4.17188 7.18755L9.64062 2.9813C10.4603 2.35032 11.4656 2.00818 12.5 2.00818C13.5344 2.00818 14.5397 2.35032 15.3594 2.9813L20.8281 7.18755C21.3971 7.62551 21.8578 8.18832 22.1747 8.83254C22.4917 9.47677 22.6564 10.1852 22.6562 10.9032V17.9688ZM14.8438 14.8438C14.8438 14.6366 14.7614 14.4379 14.6149 14.2914C14.4684 14.1449 14.2697 14.0625 14.0625 14.0625H10.9375C10.7303 14.0625 10.5316 14.1449 10.3851 14.2914C10.2386 14.4379 10.1562 14.6366 10.1562 14.8438V20.3125H14.8438V14.8438Z" fill="#4B5563"/>
</svg>
