<svg width="15" height="18" viewBox="0 0 15 18" fill="none" xmlns="http://www.w3.org/2000/svg">
<path d="M12.293 9.36167C12.2852 7.91016 12.9336 6.8146 14.2461 6.00776C13.5117 4.94385 12.4023 4.3585 10.9375 4.2438C9.55078 4.13306 8.03516 5.0625 7.48047 5.0625C6.89453 5.0625 5.55078 4.28335 4.49609 4.28335C2.31641 4.31895 0 6.04336 0 9.55151C0 10.5877 0.1875 11.6583 0.5625 12.763C1.0625 14.2146 2.86719 17.7741 4.75 17.7148C5.73438 17.6911 6.42969 17.0068 7.71094 17.0068C8.95312 17.0068 9.59766 17.7148 10.6953 17.7148C12.5937 17.6871 14.2266 14.4519 14.7031 12.9964C12.1562 11.7822 12.293 9.43682 12.293 9.36167ZM10.082 2.86743C11.1484 1.58599 11.0508 0.419238 11.0195 0C10.0781 0.0553711 8.98828 0.648633 8.36719 1.38032C7.68359 2.16343 7.28125 3.13242 7.36719 4.22402C8.38672 4.30312 9.31641 3.77314 10.082 2.86743Z" fill="#9CA3AF"/>
</svg>
