<svg width="20" height="28" viewBox="0 0 20 28" fill="none" xmlns="http://www.w3.org/2000/svg">
<path d="M5.94336 4.99216C6.33008 5.33982 6.36133 5.92966 6.01367 6.31638L3.20117 9.44138C3.0293 9.63279 2.78711 9.74607 2.5293 9.74997C2.27148 9.75388 2.02539 9.65622 1.8418 9.47654L0.275391 7.91404C-0.0878906 7.54685 -0.0878906 6.9531 0.275391 6.58591C0.638672 6.21872 1.23633 6.21872 1.59961 6.58591L2.46289 7.44919L4.61523 5.05857C4.96289 4.67185 5.55273 4.6406 5.93945 4.98825L5.94336 4.99216ZM5.94336 11.2422C6.33008 11.5898 6.36133 12.1797 6.01367 12.5664L3.20117 15.6914C3.0293 15.8828 2.78711 15.9961 2.5293 16C2.27148 16.0039 2.02539 15.9062 1.8418 15.7265L0.275391 14.164C-0.0917969 13.7968 -0.0917969 13.2031 0.275391 12.8398C0.642578 12.4765 1.23633 12.4726 1.59961 12.8398L2.46289 13.7031L4.61523 11.3125C4.96289 10.9258 5.55273 10.8945 5.93945 11.2422H5.94336ZM8.75195 7.24997C8.75195 6.55857 9.31055 5.99997 10.002 5.99997H18.752C19.4434 5.99997 20.002 6.55857 20.002 7.24997C20.002 7.94138 19.4434 8.49997 18.752 8.49997H10.002C9.31055 8.49997 8.75195 7.94138 8.75195 7.24997ZM8.75195 13.5C8.75195 12.8086 9.31055 12.25 10.002 12.25H18.752C19.4434 12.25 20.002 12.8086 20.002 13.5C20.002 14.1914 19.4434 14.75 18.752 14.75H10.002C9.31055 14.75 8.75195 14.1914 8.75195 13.5ZM6.25195 19.75C6.25195 19.0586 6.81055 18.5 7.50195 18.5H18.752C19.4434 18.5 20.002 19.0586 20.002 19.75C20.002 20.4414 19.4434 21 18.752 21H7.50195C6.81055 21 6.25195 20.4414 6.25195 19.75ZM1.87695 17.875C2.37423 17.875 2.85115 18.0725 3.20278 18.4241C3.55441 18.7758 3.75195 19.2527 3.75195 19.75C3.75195 20.2473 3.55441 20.7242 3.20278 21.0758C2.85115 21.4274 2.37423 21.625 1.87695 21.625C1.37967 21.625 0.902759 21.4274 0.551128 21.0758C0.199497 20.7242 0.00195311 20.2473 0.00195311 19.75C0.00195311 19.2527 0.199497 18.7758 0.551128 18.4241C0.902759 18.0725 1.37967 17.875 1.87695 17.875Z" fill="#4B5563"/>
</svg>
