<svg width="20" height="20" viewBox="0 0 20 20" fill="none" xmlns="http://www.w3.org/2000/svg">
<g clip-path="url(#clip0_201_654)">
<path d="M13.4766 1.52734L18.4688 6.57812C20.5156 8.64844 20.5156 11.9766 18.4688 14.0469L14.0938 18.4727C13.7305 18.8398 13.1367 18.8438 12.7695 18.4805C12.4023 18.1172 12.3984 17.5234 12.7617 17.1562L17.1328 12.7305C18.457 11.3906 18.457 9.23828 17.1328 7.89844L12.1445 2.84766C11.7812 2.48047 11.7852 1.88672 12.1523 1.52344C12.5195 1.16016 13.1133 1.16406 13.4766 1.53125V1.52734ZM0 8.96484V3.125C0 2.08984 0.839844 1.25 1.875 1.25H7.71484C8.37891 1.25 9.01562 1.51172 9.48438 1.98047L16.0469 8.54297C17.0234 9.51953 17.0234 11.1016 16.0469 12.0781L10.832 17.293C9.85547 18.2695 8.27344 18.2695 7.29688 17.293L0.734375 10.7305C0.261719 10.2617 0 9.62891 0 8.96484ZM5.625 5.625C5.625 5.29348 5.4933 4.97554 5.25888 4.74112C5.02446 4.5067 4.70652 4.375 4.375 4.375C4.04348 4.375 3.72554 4.5067 3.49112 4.74112C3.2567 4.97554 3.125 5.29348 3.125 5.625C3.125 5.95652 3.2567 6.27446 3.49112 6.50888C3.72554 6.7433 4.04348 6.875 4.375 6.875C4.70652 6.875 5.02446 6.7433 5.25888 6.50888C5.4933 6.27446 5.625 5.95652 5.625 5.625Z" fill="#4B5563"/>
</g>
<defs>
<clipPath id="clip0_201_654">
<path d="M0 0H20V20H0V0Z" fill="white"/>
</clipPath>
</defs>
</svg>
