<svg width="16" height="16" viewBox="0 0 16 16" fill="none" xmlns="http://www.w3.org/2000/svg">
<path d="M6.74333 14.5407C7.14733 14.8741 7.56867 15.1787 8 15.4761C8.43226 15.1827 8.85155 14.8706 9.25667 14.5407C9.932 13.9862 10.5676 13.385 11.1587 12.7414C12.5213 11.2514 14 9.09142 14 6.66675C14 5.87882 13.8448 5.0986 13.5433 4.37065C13.2417 3.64269 12.7998 2.98126 12.2426 2.42411C11.6855 1.86696 11.0241 1.425 10.2961 1.12347C9.56815 0.821943 8.78793 0.666748 8 0.666748C7.21207 0.666748 6.43185 0.821943 5.7039 1.12347C4.97595 1.425 4.31451 1.86696 3.75736 2.42411C3.20021 2.98126 2.75825 3.64269 2.45672 4.37065C2.15519 5.0986 2 5.87882 2 6.66675C2 9.09142 3.47867 11.2507 4.84133 12.7414C5.43241 13.3852 6.06798 13.986 6.74333 14.5407ZM8 8.83342C7.42536 8.83342 6.87426 8.60514 6.46794 8.19881C6.06161 7.79248 5.83333 7.24138 5.83333 6.66675C5.83333 6.09211 6.06161 5.54101 6.46794 5.13468C6.87426 4.72835 7.42536 4.50008 8 4.50008C8.57464 4.50008 9.12574 4.72835 9.53206 5.13468C9.93839 5.54101 10.1667 6.09211 10.1667 6.66675C10.1667 7.24138 9.93839 7.79248 9.53206 8.19881C9.12574 8.60514 8.57464 8.83342 8 8.83342Z" fill="#6B7280"/>
</svg>
