<svg width="23" height="23" viewBox="0 0 23 23" fill="none" xmlns="http://www.w3.org/2000/svg">
<path fill-rule="evenodd" clip-rule="evenodd" d="M20.125 5.75H2.875V4.3125H20.125V5.75ZM13.593 8.63219C12.6586 8.63219 11.7624 9.00339 11.1016 9.66414C10.4409 10.3249 10.0697 11.2211 10.0697 12.1555C10.0697 13.0899 10.4409 13.9861 11.1016 14.6469C11.7624 15.3076 12.6586 15.6788 13.593 15.6788C14.5274 15.6788 15.4236 15.3076 16.0844 14.6469C16.7451 13.9861 17.1163 13.0899 17.1163 12.1555C17.1163 11.2211 16.7451 10.3249 16.0844 9.66414C15.4236 9.00339 14.5274 8.63219 13.593 8.63219ZM8.63219 12.1541C8.63242 11.3688 8.81907 10.5948 9.17677 9.89577C9.53448 9.19672 10.053 8.59257 10.6898 8.13301C11.3265 7.67345 12.0632 7.37161 12.8394 7.25232C13.6155 7.13302 14.4089 7.19968 15.1542 7.44682C15.8996 7.69395 16.5756 8.1145 17.1268 8.67386C17.6779 9.23323 18.0884 9.91544 18.3244 10.6644C18.5604 11.4133 18.6153 12.2076 18.4845 12.9819C18.3537 13.7562 18.041 14.4883 17.572 15.1182L20.0402 17.5849L19.0224 18.6012L16.5557 16.1345C15.8179 16.6838 14.9419 17.0172 14.0256 17.0974C13.1093 17.1777 12.1887 17.0015 11.3667 16.5888C10.5447 16.176 9.8537 15.5428 9.3708 14.7599C8.88791 13.977 8.63218 13.0753 8.63219 12.1555M7.1875 12.2188H2.875V10.7812H7.1875V12.2188ZM8.625 18.6875H2.875V17.25H8.625V18.6875Z" fill="#9CA3AF"/>
</svg>
